{
.appVersion = "3223";
.formatVersion = 3;
axes = (
{
name = Weight;
tag = wght;
}
);
classes = (
{
code = "alef-hb bet-hb gimel-hb dalet-hb he-hb vav-hb zayin-hb het-hb tet-hb yod-hb finalkaf-hb kaf-hb lamed-hb finalmem-hb mem-hb finalnun-hb nun-hb samekh-hb ayin-hb finalpe-hb pe-hb finaltsadi-hb tsadi-hb qof-hb resh-hb shin-hb tav-hb";
name = HebrewLetters;
},
{
automatic = 1;

glyphs = (
{
color = 6;
glyphname = A;
kernLeft = A;
kernRight = A;
layers = (
{
anchors = (
{
name = bottom;
pos = (378,0);
},
{
name = ogonek;
pos = (700,122);
},
{
name = top;
pos = (378,700);
}
);
layerId = "EC64484B-0978-4CB1-9EE9-C40A2D8C4059";
shapes = (
{
closed = 1;
nodes = (
(207,0,ls),
(233,0,o),
(242,14,o),
(246,25,cs),
(270,91,l),
(485,91,l),
(509,25,ls),
(513,14,o),
(522,0,o),
(548,0,cs),
(733,0,ls),
(745,0,o),
(755,10,o),
(755,22,cs),
(755,24,o),
(755,26,o),
(754,29,cs),
(531,667,l),
(527,682,o),
(513,700,o),
(486,700,cs),
(269,700,ls),
(242,700,o),
(228,682,o),
(224,667,c),
(1,29,ls),
(0,26,o),
(0,24,o),
(0,22,cs),
(0,10,o),
(10,0,o),
(22,0,cs)
);
},
{
closed = 1;
nodes = (
(377,472,l),
(434,286,l),
(321,286,l)
);
}
);
width = 755;
}
);
unicode = 65;
userData = {
com.typemytype.robofont.guides = (
{
angle = 0;
isGlobal = 0;
magnetic = 5;
x = 0;
y = 680;
},
{
angle = 90;
isGlobal = 0;
magnetic = 5;
x = 35;
y = 0;
},
{
angle = 90;
isGlobal = 0;
magnetic = 5;
x = 637;
y = 0;
},
{
angle = 90;
isGlobal = 0;
magnetic = 5;
x = 336;
y = 0;
}
);
};
},
{
color = 6;
glyphname = Aogonek;
kernLeft = A;
kernRight = A;
layers = (
{
hints = (
{
horizontal = 1;
place = (0,0);
type = Tag;
}
);
layerId = "EC64484B-0978-4CB1-9EE9-C40A2D8C4059";
shapes = (
{
closed = 1;
nodes = (
(718,-220,ls),
(733,-220,o),
(745,-208,o),
(745,-193,cs),
(745,-125,ls),
(745,-110,o),
(733,-98,o),
(718,-98,cs),
(708,-98,ls),
(669,-98,o),
(658,-70,o),
(658,-49,cs),
(658,-29,o),
(668,-2,o),
(702,0,c),
(733,0,ls),
(745,0,o),
(755,10,o),
(755,22,cs),
(755,24,o),
(755,26,o),
(754,29,cs),
(531,667,l),
(527,682,o),
(513,700,o),
(486,700,cs),
(269,700,ls),
(242,700,o),
(228,682,o),
(224,667,c),
(1,29,ls),
(0,26,o),
(0,24,o),
(0,22,cs),
(0,10,o),
(10,0,o),
(22,0,cs),
(207,0,ls),
(233,0,o),
(242,14,o),
(246,25,cs),
(270,91,l),
(485,91,l),
(509,25,ls),
(512,15,o),
(519,3,o),
(537,0,c),
(534,-15,o),
(532,-31,o),
(532,-49,cs),
(532,-144,o),
(583,-220,o),
(704,-220,cs)
);
},
{
closed = 1;
nodes = (
(377,472,l),
(434,286,l),
(321,286,l)
);
}
);
width = 755;
}
);
unicode = 260;
},
{
color = 6;
glyphname = AE;
kernLeft = AE;
kernRight = E;
layers = (
{
anchors = (
{
name = bottom;
pos = (503,0);
},
{
name = top;
pos = (503,700);
}
);
layerId = "EC64484B-0978-4CB1-9EE9-C40A2D8C4059";
shapes = (
{
closed = 1;
nodes = (
(211,0,ls),
(237,0,o),
(246,14,o),
(250,25,cs),
(258,47,o),
(266,69,o),
(274,91,c),
(423,91,l),
(423,27,ls),
(423,12,o),
(435,0,o),
(450,0,cs),
(941,0,ls),
(956,0,o),
(968,12,o),
(968,27,cs),
(968,168,ls),
(968,183,o),
(956,195,o),
(941,195,cs),
(663,195,l),
(663,258,l),
(911,258,ls),
(926,258,o),
(938,270,o),
(938,285,cs),
(938,415,ls),
(938,430,o),
(926,442,o),
(911,442,cs),
(663,442,l),
(663,505,l),
(933,505,ls),
(948,505,o),
(960,517,o),
(960,532,cs),
(960,673,ls),
(960,688,o),
(948,700,o),
(933,700,cs),
(273,700,ls),
(246,700,o),
(232,682,o),
(228,667,c),
(154,454,o),
(79,242,o),
(5,29,cs),
(4,26,o),
(4,24,o),
(4,22,cs),
(4,10,o),
(14,0,o),
(26,0,cs)
);
},
{
closed = 1;
nodes = (
(391,505,l),
(423,505,l),
(423,286,l),
(325,286,l)
);
}
);
width = 1005;
}
);
unicode = 198;
userData = {
com.typemytype.robofont.guides = (
{
angle = 0;
isGlobal = 0;
magnetic = 5;
x = 0;
y = 505;
},
{
angle = 90;
isGlobal = 0;
magnetic = 5;
x = 431;
y = 0;
}
);
};
},
{
color = 6;
glyphname = B;
kernLeft = I;
layers = (
{
anchors = (
{
name = bottom;
pos = (367,0);
},
{
name = top;
pos = (367,700);
}
);
hints = (
{
horizontal = 1;
place = (0,0);
type = Tag;
}
);
layerId = "EC64484B-0978-4CB1-9EE9-C40A2D8C4059";
shapes = (
{
closed = 1;
nodes = (
(424,0,ls),
(605,0,o),
(706,70,o),
(706,220,cs),
(706,286,o),
(662,344,o),
(611,365,c),
(643,381,o),
(691,426,o),
(691,490,cs),
(691,630,o),
(605,700,o),
(414,700,cs),
(82,700,ls),
(67,700,o),
(55,688,o),
(55,673,cs),
(55,27,ls),
(55,12,o),
(67,0,o),
(82,0,cs)
);
},
{
closed = 1;
nodes = (
(305,270,l),
(398,270,ls),
(428,270,o),
(444,245,o),
(444,221,cs),
(444,199,o),
(431,172,o),
(398,172,cs),
(305,172,l)
);
},
{
closed = 1;
nodes = (
(305,528,l),
(389,528,ls),
(418,528,o),
(430,503,o),
(430,482,cs),
(430,461,o),
(418,437,o),
(389,437,cs),
(305,437,l)
);
}
);
width = 734;
}
);
unicode = 66;
userData = {
com.typemytype.robofont.guides = (
{
angle = 0;
isGlobal = 0;
magnetic = 5;
x = 0;
y = 271;
},
{
angle = 0;
isGlobal = 0;
magnetic = 5;
x = 0;
y = 437;
},
{
angle = 0;
isGlobal = 0;
magnetic = 5;
x = 0;
y = 521;
},
{
angle = 0;
isGlobal = 0;
magnetic = 5;
x = 0;
y = 198;
},
{
angle = 0;
isGlobal = 0;
magnetic = 5;
x = 0;
y = 9;
},
{
angle = 90;
isGlobal = 0;
magnetic = 5;
x = 355;
y = 0;
},
{
angle = 90;
isGlobal = 0;
magnetic = 5;
x = 583;
y = 0;
},
{
angle = 90;
isGlobal = 0;
magnetic = 5;
x = 94;
y = 0;
}
);
};
},
{
color = 6;
glyphname = C;
kernLeft = O;
kernRight = C;
layers = (
{
anchors = (
{
name = bottom;
pos = (367,0);
},
{
name = top;
pos = (367,700);
}
);
layerId = "EC64484B-0978-4CB1-9EE9-C40A2D8C4059";
shapes = (
{
closed = 1;
nodes = (
(542,-10,o),
(706,64,o),
(709,246,cs),
(709,258,o),
(699,268,o),
(687,268,cs),
(483,268,ls),
(461,268,o),
(453,262,o),
(446,239,cs),
(433,199,o),
(405,185,o),
(371,185,cs),
(327,185,o),
(299,205,o),
(297,266,cs),
(295,323,o),
(295,379,o),
(297,434,cs),
(299,495,o),
(327,515,o),
(371,515,cs),
(405,515,o),
(431,504,o),
(446,461,cs),
(454,439,o),
(461,432,o),
(483,432,cs),
(687,432,ls),
(699,432,o),
(709,442,o),
(709,454,cs),
(706,636,o),
(542,710,o),
(372,710,cs),
(185,710,o),
(45,625,o),
(37,439,cs),
(35,382,o),
(35,315,o),
(37,261,cs),
(45,70,o),
(180,-10,o),
(372,-10,cs)
);
}
);
width = 733;
}
);
unicode = 67;
userData = {
com.typemytype.robofont.guides = (
{
angle = 0;
isGlobal = 0;
magnetic = 5;
x = 0;
y = 434;
},
{
angle = 0;
isGlobal = 0;
magnetic = 5;
x = 0;
y = 266;
},
{
angle = 0;
isGlobal = 0;
magnetic = 5;
x = 0;
y = 710;
},
{
angle = 0;
isGlobal = 0;
magnetic = 5;
x = 0;
y = "-10";
},
{
angle = 90;
isGlobal = 0;
magnetic = 5;
x = 599;
y = 0;
},
{
angle = 90;
isGlobal = 0;
magnetic = 5;
x = 209;
y = 0;
},
{
angle = 90;
isGlobal = 0;
magnetic = 5;
x = 149;
y = 0;
},
{
angle = 90;
isGlobal = 0;
magnetic = 5;
x = 332;
y = 0;
}
);
};
},
{
color = 6;
glyphname = Ccedilla;
kernLeft = O;
kernRight = C;
layers = (
{
hints = (
{
horizontal = 1;
place = (0,0);
type = Tag;
}
);
layerId = "EC64484B-0978-4CB1-9EE9-C40A2D8C4059";
shapes = (
{
closed = 1;
nodes = (
(426,-220,o),
(465,-183,o),
(465,-130,cs),
(465,-77,o),
(435,-40,o),
(384,-40,cs),
(380,-40,o),
(362,-42,o),
(354,-45,c),
(372,-10,l),
(542,-10,o),
(706,64,o),
(709,246,cs),
(709,258,o),
(699,268,o),
(687,268,c),
(483,268,l),
(461,268,o),
(453,262,o),
(446,239,cs),
(433,199,o),
(405,185,o),
(371,185,cs),
(327,185,o),
(299,205,o),
(297,266,cs),
(295,323,o),
(295,379,o),
(297,434,cs),
(299,495,o),
(327,515,o),
(371,515,cs),
(405,515,o),
(431,504,o),
(446,461,cs),
(454,439,o),
(461,432,o),
(483,432,c),
(687,432,l),
(699,432,o),
(709,442,o),
(709,454,cs),
(706,636,o),
(542,710,o),
(372,710,cs),
(185,710,o),
(45,625,o),
(37,439,cs),
(35,382,o),
(35,315,o),
(37,261,cs),
(44,91,o),
(151,10,o),
(309,-6,c),
(289,-52,l),
(280,-71,o),
(282,-76,o),
(291,-85,c),
(312,-106,l),
(325,-119,o),
(348,-106,o),
(366,-106,cs),
(386,-106,o),
(394,-118,o),
(394,-130,cs),
(394,-142,o),
(385,-154,o),
(366,-154,cs),
(332,-154,o),
(327,-136,o),
(310,-151,c),
(289,-169,l),
(266,-189,o),
(313,-220,o),
(366,-220,cs)
);
}
);
width = 733;
}
);
unicode = 199;
userData = {
com.typemytype.robofont.guides = (
{
angle = 0;
isGlobal = 0;
magnetic = 5;
x = 0;
y = "-174";
},
{
angle = 0;
isGlobal = 0;
magnetic = 5;
x = 0;
y = "-220";
},
{
angle = 0;
isGlobal = 0;
magnetic = 5;
x = 0;
y = "-96";
},
{
angle = 0;
isGlobal = 0;
magnetic = 5;
x = 0;
y = "-50";
},
{
angle = 0;
isGlobal = 0;
magnetic = 5;
x = 0;
y = "-135";
},
{
angle = 90;
isGlobal = 0;
magnetic = 5;
x = 331;
y = 0;
},
{
angle = 90;
isGlobal = 0;
magnetic = 5;
x = 342;
y = 0;
}
);
};
},
{
color = 6;
glyphname = D;
kernLeft = I;
kernRight = D;
layers = (
{
anchors = (
{
name = bottom;
pos = (370,0);
},
{
name = center;
pos = (370,350);
},
{
name = top;
pos = (364,700);
}
);
hints = (
{
horizontal = 1;
place = (0,0);
type = Tag;
}
);
layerId = "EC64484B-0978-4CB1-9EE9-C40A2D8C4059";
shapes = (
{
closed = 1;
nodes = (
(375,0,ls),
(566,0,o),
(696,87,o),
(704,276,cs),
(706,330,o),
(706,368,o),
(704,425,cs),
(697,604,o),
(557,700,o),
(370,700,c),
(82,700,ls),
(67,700,o),
(55,688,o),
(55,673,cs),
(55,27,ls),
(55,12,o),
(67,0,o),
(82,0,cs)
);
},
{
closed = 1;
nodes = (
(305,505,l),
(365,505,ls),
(410,505,o),
(447,481,o),
(450,425,cs),
(453,370,o),
(453,333,o),
(450,276,cs),
(447,220,o),
(414,195,o),
(370,195,cs),
(305,195,l)
);
}
);
width = 740;
}
);
unicode = 68;
userData = {
com.typemytype.robofont.guides = (
{
angle = 0;
isGlobal = 0;
magnetic = 5;
x = 0;
y = 425;
},
{
angle = 0;
isGlobal = 0;
magnetic = 5;
x = 0;
y = 276;
},
{
angle = 0;
isGlobal = 0;
magnetic = 5;
x = 0;
y = 9;
},
{
angle = 90;
isGlobal = 0;
magnetic = 5;
x = 320;
y = 0;
},
{
angle = 90;
isGlobal = 0;
magnetic = 5;
x = 603;
y = 0;
},
{
angle = 90;
isGlobal = 0;
magnetic = 5;
x = 94;
y = 0;
}
);
};
},
{
color = 6;
glyphname = Dcroat;
kernLeft = I;
kernRight = D;
layers = (
{
hints = (
{
horizontal = 1;
place = (0,0);
type = Tag;
}
);
layerId = "EC64484B-0978-4CB1-9EE9-C40A2D8C4059";
shapes = (
{
closed = 1;
nodes = (
(395,0,ls),
(586,0,o),
(720,87,o),
(728,276,cs),
(730,330,o),
(730,368,o),
(728,425,cs),
(721,604,o),
(581,700,o),
(394,700,c),
(106,700,ls),
(91,700,o),
(79,688,o),
(79,673,cs),
(79,430,l),
(41,430,ls),
(26,430,o),
(14,418,o),
(14,403,cs),
(14,302,ls),
(14,287,o),
(26,275,o),
(41,275,cs),
(79,275,l),
(79,27,ls),
(79,12,o),
(91,0,o),
(106,0,cs)
);
},
{
closed = 1;
nodes = (
(329,275,l),
(385,275,ls),
(400,275,o),
(412,287,o),
(412,302,cs),
(412,403,ls),
(412,418,o),
(400,430,o),
(385,430,cs),
(329,430,l),
(329,505,l),
(394,505,ls),
(439,505,o),
(471,481,o),
(474,425,cs),
(477,370,o),
(477,333,o),
(474,276,cs),
(471,220,o),
(438,195,o),
(394,195,cs),
(329,195,l)
);
}
);
width = 764;
}
);
unicode = 272;
userData = {
com.typemytype.robofont.guides = (
{
angle = 0;
isGlobal = 0;
magnetic = 5;
x = 0;
y = 352;
},
{
angle = 90;
isGlobal = 0;
magnetic = 5;
x = 340;
y = 0;
},
{
angle = 90;
isGlobal = 0;
magnetic = 5;
x = 105;
y = 0;
}
);
};
},
{
color = 6;
glyphname = Eth;
kernLeft = I;
kernRight = D;
layers = (
{
hints = (
{
horizontal = 1;
place = (0,0);
type = Tag;
}
);
layerId = "EC64484B-0978-4CB1-9EE9-C40A2D8C4059";
shapes = (
{
closed = 1;
nodes = (
(395,0,ls),
(586,0,o),
(729,87,o),
(729,276,cs),
(729,326,o),
(729,375,o),
(729,425,cs),
(729,604,o),
(581,700,o),
(394,700,cs),
(106,700,ls),
(91,700,o),
(79,688,o),
(79,673,cs),
(79,429,l),
(41,429,l),
(26,429,o),
(14,417,o),
(14,402,cs),
(14,301,ls),
(14,286,o),
(26,274,o),
(41,274,cs),
(79,274,l),
(79,27,ls),
(79,12,o),
(91,0,o),
(106,0,cs)
);
},
{
closed = 1;
nodes = (
(329,274,l),
(385,274,ls),
(400,274,o),
(412,286,o),
(412,301,cs),
(412,402,ls),
(412,417,o),
(400,429,o),
(385,429,cs),
(329,429,l),
(329,505,l),
(394,505,ls),
(439,505,o),
(469,481,o),
(469,425,cs),
(469,375,o),
(469,326,o),
(469,276,cs),
(469,220,o),
(438,195,o),
(394,195,cs),
(329,195,l)
);
}
);
width = 766;
}
);
unicode = 208;
userData = {
com.typemytype.robofont.guides = (
{
angle = 0;
isGlobal = 0;
magnetic = 5;
x = 0;
y = 350;
}
);
};
},
{
color = 6;
glyphname = E;
kernLeft = I;
kernRight = E;
layers = (
{
anchors = (
{
name = bottom;
pos = (334,0);
},
{
name = ogonek;
pos = (626,122);
},
{
name = top;
pos = (334,700);
},
{
name = topleft;
pos = (20,700);
}
);
layerId = "EC64484B-0978-4CB1-9EE9-C40A2D8C4059";
shapes = (
{
closed = 1;
nodes = (
(603,0,ls),
(618,0,o),
(630,12,o),
(630,27,cs),
(630,168,ls),
(630,183,o),
(618,195,o),
(603,195,cs),
(295,195,l),
(295,258,l),
(573,258,ls),
(588,258,o),
(600,270,o),
(600,285,cs),
(600,415,ls),
(600,430,o),
(588,442,o),
(573,442,cs),
(295,442,l),
(295,505,l),
(595,505,ls),
(610,505,o),
(622,517,o),
(622,532,cs),
(622,673,ls),
(622,688,o),
(610,700,o),
(595,700,cs),
(82,700,ls),
(67,700,o),
(55,688,o),
(55,673,cs),
(55,27,ls),
(55,12,o),
(67,0,o),
(82,0,cs)
);
}
);
width = 667;
}
);
unicode = 69;
userData = {
com.typemytype.robofont.guides = (
{
angle = 0;
isGlobal = 0;
magnetic = 5;
x = 0;
y = 334;
},
{
angle = 0;
isGlobal = 0;
magnetic = 5;
x = 0;
y = 9;
},
{
angle = 0;
isGlobal = 0;
magnetic = 5;
x = 0;
y = 376;
},
{
angle = 0;
isGlobal = 0;
magnetic = 5;
x = 0;
y = 691;
},
{
angle = 0;
isGlobal = 0;
magnetic = 5;
x = 0;
y = 649;
},
{
angle = 90;
isGlobal = 0;
magnetic = 5;
x = 664;
y = 0;
},
{
angle = 90;
isGlobal = 0;
magnetic = 5;
x = 94;
y = 0;
},
{
angle = 90;
isGlobal = 0;
magnetic = 5;
x = 511;
y = 0;
}
);
};
},
{
color = 6;
glyphname = Eogonek;
kernLeft = I;
kernRight = E;
layers = (
{
anchors = (
{
name = top;
pos = (334,700);
}
);
hints = (
{
horizontal = 1;
place = (0,0);
type = Tag;
}
);
layerId = "EC64484B-0978-4CB1-9EE9-C40A2D8C4059";
shapes = (
{
closed = 1;
nodes = (
(603,-220,ls),
(618,-220,o),
(630,-208,o),
(630,-193,cs),
(630,-125,ls),
(630,-110,o),
(618,-98,o),
(603,-98,cs),
(593,-98,ls),
(554,-98,o),
(543,-70,o),
(543,-49,cs),
(543,-28,o),
(554,0,o),
(593,0,cs),
(603,0,ls),
(618,0,o),
(630,12,o),
(630,27,cs),
(630,168,ls),
(630,183,o),
(618,195,o),
(603,195,cs),
(295,195,l),
(295,258,l),
(573,258,ls),
(588,258,o),
(600,270,o),
(600,285,cs),
(600,415,ls),
(600,430,o),
(588,442,o),
(573,442,cs),
(295,442,l),
(295,505,l),
(595,505,ls),
(610,505,o),
(622,517,o),
(622,532,cs),
(622,673,ls),
(622,688,o),
(610,700,o),
(595,700,cs),
(82,700,ls),
(67,700,o),
(55,688,o),
(55,673,cs),
(55,27,ls),
(55,12,o),
(67,0,o),
(82,0,cs),
(422,0,l),
(419,-16,o),
(417,-31,o),
(417,-49,cs),
(417,-144,o),
(468,-220,o),
(589,-220,cs)
);
}
);
width = 667;
}
);
unicode = 280;
userData = {
com.typemytype.robofont.guides = (
{
angle = 90;
isGlobal = 0;
magnetic = 5;
x = 355;
y = 0;
}
);
};
},
{
color = 6;
glyphname = F;
kernLeft = I;
layers = (
{
anchors = (
{
name = bottom;
pos = (323,0);
},
{
name = top;
pos = (323,700);
}
);
hints = (
{
horizontal = 1;
place = (0,0);
type = Tag;
}
);
layerId = "EC64484B-0978-4CB1-9EE9-C40A2D8C4059";
shapes = (
{
closed = 1;
nodes = (
(273,0,ls),
(288,0,o),
(300,12,o),
(300,27,cs),
(300,215,l),
(566,215,ls),
(581,215,o),
(593,227,o),
(593,242,cs),
(593,393,ls),
(593,408,o),
(581,420,o),
(566,420,cs),
(300,420,l),
(300,494,l),
(586,494,ls),
(601,494,o),
(613,506,o),
(613,521,cs),
(613,673,ls),
(613,688,o),
(601,700,o),
(586,700,cs),
(82,700,ls),
(67,700,o),
(55,688,o),
(55,673,cs),
(55,27,ls),
(55,12,o),
(67,0,o),
(82,0,cs)
);
}
);
width = 646;
}
);
unicode = 70;
userData = {
com.typemytype.robofont.guides = (
{
angle = 0;
isGlobal = 0;
magnetic = 5;
x = 0;
y = 320;
},
{
angle = 0;
isGlobal = 0;
magnetic = 5;
x = 0;
y = 691;
},
{
angle = 0;
isGlobal = 0;
magnetic = 5;
x = 0;
y = 649;
},
{
angle = 0;
isGlobal = 0;
magnetic = 5;
x = 0;
y = 362;
},
{
angle = 0;
isGlobal = 0;
magnetic = 5;
x = 0;
y = 9;
},
{
angle = 90;
isGlobal = 0;
magnetic = 5;
x = 761;
y = 0;
},
{
angle = 90;
isGlobal = 0;
magnetic = 5;
x = 94;
y = 0;
},
{
angle = 90;
isGlobal = 0;
magnetic = 5;
x = 487;
y = 0;
},
{
angle = 90;
isGlobal = 0;
magnetic = 5;
x = 139;
y = 0;
}
);
};
},
{
color = 6;
glyphname = G;
kernLeft = O;
kernRight = G;
layers = (
{
anchors = (
{
name = bottom;
pos = (377,0);
},
{
name = top;
pos = (377,700);
}
);
hints = (
{
horizontal = 1;
place = (0,0);
type = Tag;
}
);
layerId = "EC64484B-0978-4CB1-9EE9-C40A2D8C4059";
shapes = (
{
closed = 1;
nodes = (
(576,-10,o),
(718,85,o),
(718,265,cs),
(718,395,ls),
(718,410,o),
(706,422,o),
(691,422,cs),
(416,422,ls),
(401,422,o),
(389,410,o),
(389,395,cs),
(389,284,ls),
(389,269,o),
(401,257,o),
(416,257,cs),
(463,257,l),
(463,256,l),
(463,205,o),
(428,185,o),
(378,185,cs),
(329,185,o),
(299,210,o),
(297,270,c),
(295,327,o),
(295,385,o),
(297,440,c),
(299,490,o),
(325,515,o),
(374,515,cs),
(423,515,o),
(438,486,o),
(446,476,cs),
(452,469,o),
(460,465,o),
(475,465,cs),
(696,465,ls),
(708,465,o),
(718,475,o),
(718,487,cs),
(715,608,o),
(585,710,o),
(374,710,cs),
(177,710,o),
(44,622,o),
(37,445,c),
(35,388,o),
(35,319,o),
(37,265,cs),
(45,79,o),
(172,-10,o),
(374,-10,cs)
);
}
);
width = 753;
}
);
unicode = 71;
userData = {
com.typemytype.robofont.guides = (
{
angle = 0;
isGlobal = 0;
magnetic = 5;
x = 0;
y = "-10";
},
{
angle = 0;
isGlobal = 0;
magnetic = 5;
x = 0;
y = 260;
},
{
angle = 0;
isGlobal = 0;
magnetic = 5;
x = 0;
y = 440;
},
{
angle = 90;
isGlobal = 0;
magnetic = 5;
x = 334;
y = 0;
},
{
angle = 90;
isGlobal = 0;
magnetic = 5;
x = 133;
y = 0;
},
{
angle = 90;
isGlobal = 0;
magnetic = 5;
x = 604;
y = 0;
},
{
angle = 90;
isGlobal = 0;
magnetic = 5;
x = 67;
y = 0;
}
);
};
},
{
color = 6;
glyphname = H;
kernLeft = I;
kernRight = I;
layers = (
{
anchors = (
{
name = bottom;
pos = (386,0);
},
{
name = center;
pos = (386,350);
},
{
name = top;
pos = (386,700);
},
{
name = topleft;
pos = (20,700);
}
);
layerId = "EC64484B-0978-4CB1-9EE9-C40A2D8C4059";
shapes = (
{
closed = 1;
nodes = (
(278,0,ls),
(293,0,o),
(305,12,o),
(305,27,cs),
(305,243,l),
(467,243,l),
(467,27,ls),
(467,12,o),
(479,0,o),
(494,0,cs),
(690,0,ls),
(705,0,o),
(717,12,o),
(717,27,cs),
(717,673,ls),
(717,688,o),
(705,700,o),
(690,700,cs),
(494,700,ls),
(479,700,o),
(467,688,o),
(467,673,cs),
(467,463,l),
(305,463,l),
(305,673,ls),
(305,688,o),
(293,700,o),
(278,700,cs),
(82,700,ls),
(67,700,o),
(55,688,o),
(55,673,cs),
(55,27,ls),
(55,11,o),
(67,0,o),
(82,0,cs)
);
}
);
width = 772;
}
);
unicode = 72;
userData = {
com.typemytype.robofont.guides = (
{
angle = 0;
isGlobal = 0;
magnetic = 5;
x = 0;
y = 350;
},
{
angle = 0;
isGlobal = 0;
magnetic = 5;
x = 0;
y = 9;
},
{
angle = 0;
isGlobal = 0;
magnetic = 5;
x = 0;
y = 691;
},
{
angle = 90;
isGlobal = 0;
magnetic = 5;
x = 94;
y = 0;
},
{
angle = 90;
isGlobal = 0;
magnetic = 5;
x = 139;
y = 0;
},
{
angle = 90;
isGlobal = 0;
magnetic = 5;
x = 543;
y = 0;
},
{
angle = 90;
isGlobal = 0;
magnetic = 5;
x = 588;
y = 0;
}
);
};
},
{
color = 3;
glyphname = Hbar;
kernLeft = I;
kernRight = I;
layers = (
{
hints = (
{
horizontal = 1;
place = (0,0);
type = Tag;
}
);
layerId = "EC64484B-0978-4CB1-9EE9-C40A2D8C4059";
shapes = (
{
closed = 1;
nodes = (
(682,521,ls),
(697,521,o),
(709,533,o),
(709,548,cs),
(709,616,ls),
(709,631,o),
(697,643,o),
(682,643,cs),
(88,643,ls),
(73,643,o),
(61,631,o),
(61,616,cs),
(61,548,ls),
(61,533,o),
(73,521,o),
(88,521,cs)
);
},
{
ref = H;
}
);
width = 772;
},
{
associatedMasterId = "EC64484B-0978-4CB1-9EE9-C40A2D8C4059";
color = 6;
hints = (
{
horizontal = 1;
place = (0,0);
type = Tag;
}
);
layerId = "FF0B9B16-2378-4A37-8098-43DBF73F83A5";
name = "Bold Jan 19 16, 17:03";
shapes = (
{
closed = 1;
nodes = (
(278,0,ls),
(293,0,o),
(305,12,o),
(305,27,cs),
(305,243,l),
(467,243,l),
(467,27,ls),
(467,12,o),
(479,0,o),
(494,0,cs),
(690,0,ls),
(705,0,o),
(717,12,o),
(717,27,cs),
(717,673,ls),
(717,688,o),
(705,700,o),
(690,700,cs),
(494,700,l),
(479,700,o),
(467,688,o),
(467,673,cs),
(467,644,l),
(305,644,l),
(305,673,ls),
(305,688,o),
(293,700,o),
(278,700,cs),
(82,700,ls),
(67,700,o),
(55,688,o),
(55,673,cs),
(55,27,ls),
(55,11,o),
(67,0,o),
(82,0,cs)
);
},
{
closed = 1;
nodes = (
(305,519,l),
(467,519,l),
(467,463,l),
(305,463,l)
);
}
);
width = 772;
}
);
unicode = 294;
},
{
color = 6;
glyphname = I;
kernLeft = I;
kernRight = I;
layers = (
{
anchors = (
{
name = bottom;
pos = (184,0);
},
{
name = ogonek;
pos = (301,122);
},
{
name = top;
pos = (184,700);
},
{
name = topleft;
pos = (20,700);
}
);
layerId = "EC64484B-0978-4CB1-9EE9-C40A2D8C4059";
shapes = (
{
closed = 1;
nodes = (
(286,0,ls),
(301,0,o),
(313,12,o),
(313,27,cs),
(313,673,ls),
(313,688,o),
(301,700,o),
(286,700,cs),
(82,700,ls),
(67,700,o),
(55,688,o),
(55,673,cs),
(55,27,ls),
(55,12,o),
(67,0,o),
(82,0,cs)
);
}
);
width = 368;
}
);
unicode = 73;
userData = {
com.typemytype.robofont.guides = (
{
angle = 90;
isGlobal = 0;
magnetic = 5;
x = 85;
y = 0;
},
{
angle = 90;
isGlobal = 0;
magnetic = 5;
x = 148;
y = 0;
}
);
};
},
{
color = 6;
glyphname = IJ;
kernLeft = I;
layers = (
{
hints = (
{
horizontal = 1;
place = (0,0);
type = Tag;
}
);
layerId = "EC64484B-0978-4CB1-9EE9-C40A2D8C4059";
shapes = (
{
closed = 1;
nodes = (
(628,-10,o),
(758,45,o),
(758,258,cs),
(758,673,ls),
(758,688,o),
(746,700,o),
(731,700,cs),
(526,700,ls),
(511,700,o),
(499,688,o),
(499,673,c),
(499,298,ls),
(499,227,o),
(476,205,o),
(420,205,cs),
(405,205,o),
(393,193,o),
(393,178,cs),
(393,17,ls),
(393,2,o),
(405,-10,o),
(420,-10,cs)
);
},
{
closed = 1;
nodes = (
(286,0,ls),
(301,0,o),
(313,12,o),
(313,27,cs),
(313,673,ls),
(313,688,o),
(301,700,o),
(286,700,cs),
(82,700,ls),
(67,700,o),
(55,688,o),
(55,673,cs),
(55,27,ls),
(55,12,o),
(67,0,o),
(82,0,cs)
);
}
);
width = 807;
}
);
unicode = 306;
userData = {
com.typemytype.robofont.guides = (
{
angle = 90;
isGlobal = 0;
magnetic = 5;
x = 642;
y = 0;
}
);
};
},
{
color = 6;
glyphname = Iogonek;
kernLeft = I;
kernRight = I;
layers = (
{
hints = (
{
horizontal = 1;
place = (0,0);
type = Tag;
}
);
layerId = "EC64484B-0978-4CB1-9EE9-C40A2D8C4059";
shapes = (
{
closed = 1;
nodes = (
(286,-222,ls),
(301,-222,o),
(313,-210,o),
(313,-195,cs),
(313,-127,ls),
(313,-112,o),
(301,-100,o),
(286,-100,cs),
(276,-100,l),
(237,-100,o),
(226,-71,o),
(226,-50,cs),
(226,-29,o),
(237,0,o),
(276,0,cs),
(286,0,ls),
(301,0,o),
(313,12,o),
(313,27,cs),
(313,673,ls),
(313,688,o),
(301,700,o),
(286,700,cs),
(82,700,ls),
(67,700,o),
(55,688,o),
(55,673,cs),
(55,27,ls),
(55,12,o),
(67,0,o),
(82,0,cs),
(105,0,l),
(102,-16,o),
(100,-32,o),
(100,-50,cs),
(100,-145,o),
(151,-222,o),
(272,-222,cs)
);
}
);
width = 368;
}
);
unicode = 302;
userData = {
com.typemytype.robofont.guides = (
{
angle = 90;
isGlobal = 0;
magnetic = 5;
x = 110;
y = 0;
}
);
};
},
{
color = 6;
glyphname = J;
kernLeft = J;
kernRight = U;
layers = (
{
anchors = (
{
name = bottom;
pos = (351,0);
},
{
name = top;
pos = (371,700);
}
);
hints = (
{
horizontal = 1;
place = (0,0);
type = Tag;
}
);
layerId = "EC64484B-0978-4CB1-9EE9-C40A2D8C4059";
shapes = (
{
closed = 1;
nodes = (
(509,-10,o),
(653,73,o),
(653,258,cs),
(653,673,ls),
(653,688,o),
(641,700,o),
(626,700,cs),
(97,700,ls),
(82,700,o),
(70,688,o),
(70,673,cs),
(70,524,ls),
(70,509,o),
(82,497,o),
(97,497,cs),
(394,497,l),
(394,266,ls),
(394,205,o),
(371,185,o),
(335,185,cs),
(302,185,o),
(290,198,o),
(277,225,cs),
(267,247,o),
(258,257,o),
(236,257,cs),
(32,257,ls),
(20,257,o),
(10,247,o),
(10,235,cs),
(13,78,o),
(162,-10,o),
(327,-10,cs)
);
}
);
width = 702;
}
);
unicode = 74;
userData = {
com.typemytype.robofont.guides = (
{
angle = 0;
isGlobal = 0;
magnetic = 5;
x = 0;
y = "-10";
},
{
angle = 0;
isGlobal = 0;
magnetic = 5;
x = 0;
y = 133;
},
{
angle = 0;
isGlobal = 0;
magnetic = 5;
x = 0;
y = 677;
},
{
angle = 90;
isGlobal = 0;
magnetic = 5;
x = 303;
y = 0;
},
{
angle = 90;
isGlobal = 0;
magnetic = 5;
x = 60;
y = 0;
},
{
angle = 90;
isGlobal = 0;
magnetic = 5;
x = 91;
y = 0;
}
);
};
},
{
color = 6;
glyphname = K;
kernLeft = I;
kernRight = K;
layers = (
{
anchors = (
{
name = bottom;
pos = (358,0);
},
{
name = top;
pos = (358,700);
}
);
layerId = "EC64484B-0978-4CB1-9EE9-C40A2D8C4059";
shapes = (
{
closed = 1;
nodes = (
(273,0,ls),
(288,0,o),
(300,12,o),
(300,27,cs),
(300,241,l),
(422,23,ls),
(425,17,o),
(436,0,o),
(463,0,cs),
(691,0,ls),
(703,0,o),
(713,10,o),
(713,22,cs),
(713,25,o),
(712,30,o),
(710,33,cs),
(513,365,l),
(693,667,ls),
(695,670,o),
(696,674,o),
(696,678,cs),
(696,690,o),
(686,700,o),
(674,700,cs),
(453,700,ls),
(431,700,o),
(419,689,o),
(413,678,cs),
(300,475,l),
(300,673,ls),
(300,688,o),
(288,700,o),
(273,700,cs),
(82,700,ls),
(67,700,o),
(55,688,o),
(55,673,cs),
(55,27,ls),
(55,12,o),
(67,0,o),
(82,0,cs)
);
}
);
width = 715;
}
);
unicode = 75;
userData = {
com.typemytype.robofont.guides = (
{
angle = 0;
isGlobal = 0;
magnetic = 5;
x = 0;
y = 365;
},
{
angle = 90;
isGlobal = 0;
magnetic = 5;
x = 547;
y = 0;
},
{
angle = 90;
isGlobal = 0;
magnetic = 5;
x = 94;
y = 0;
},
{
angle = 90;
isGlobal = 0;
magnetic = 5;
x = 139;
y = 0;
}
);
};
},
{
color = 6;
glyphname = L;
kernLeft = I;
kernRight = L;
layers = (
{
anchors = (
{
name = bottom;
pos = (313,0);
},
{
name = center;
pos = (313,350);
},
{
name = top;
pos = (173,700);
},
{
name = topright;
pos = (486,700);
}
);
layerId = "EC64484B-0978-4CB1-9EE9-C40A2D8C4059";
shapes = (
{
closed = 1;
nodes = (
(586,0,ls),
(601,0,o),
(613,12,o),
(613,27,cs),
(613,178,ls),
(613,193,o),
(601,205,o),
(586,205,cs),
(309,205,l),
(309,673,ls),
(309,688,o),
(297,700,o),
(282,700,cs),
(82,700,ls),
(67,700,o),
(55,688,o),
(55,673,cs),
(55,27,ls),
(55,12,o),
(67,0,o),
(82,0,cs)
);
}
);
width = 626;
}
);
unicode = 76;
},
{
color = 6;
glyphname = Lslash;
kernLeft = I;
kernRight = L;
layers = (
{
hints = (
{
horizontal = 1;
place = (0,0);
type = Tag;
}
);
layerId = "EC64484B-0978-4CB1-9EE9-C40A2D8C4059";
shapes = (
{
closed = 1;
nodes = (
(594,0,ls),
(609,0,o),
(621,12,o),
(621,27,cs),
(621,178,ls),
(621,193,o),
(609,205,o),
(594,205,cs),
(317,205,l),
(317,325,l),
(472,386,ls),
(488,392,o),
(494,401,o),
(494,419,cs),
(494,527,ls),
(494,539,o),
(485,548,o),
(473,548,cs),
(471,548,o),
(467,547,o),
(462,545,cs),
(317,488,l),
(317,673,ls),
(317,688,o),
(305,700,o),
(290,700,cs),
(90,700,ls),
(75,700,o),
(63,688,o),
(63,673,cs),
(63,388,l),
(35,377,ls),
(19,371,o),
(13,362,o),
(13,344,cs),
(13,236,ls),
(13,224,o),
(22,215,o),
(34,215,cs),
(36,215,o),
(40,216,o),
(45,218,cs),
(63,225,l),
(63,27,ls),
(63,12,o),
(75,0,o),
(90,0,cs)
);
}
);
width = 634;
}
);
unicode = 321;
userData = {
com.typemytype.robofont.guides = (
{
angle = 0;
isGlobal = 0;
magnetic = 5;
x = 0;
y = 215;
},
{
angle = 0;
isGlobal = 0;
magnetic = 5;
x = 0;
y = 548;
},
{
angle = 0;
isGlobal = 0;
magnetic = 5;
x = 0;
y = 438;
},
{
angle = 0;
isGlobal = 0;
magnetic = 5;
x = 0;
y = 267;
},
{
angle = 0;
isGlobal = 0;
magnetic = 5;
x = 0;
y = 353;
},
{
angle = 90;
isGlobal = 0;
magnetic = 5;
x = 129;
y = 0;
},
{
angle = 90;
isGlobal = 0;
magnetic = 5;
x = 325;
y = 0;
},
{
angle = 90;
isGlobal = 0;
magnetic = 5;
x = "-5";
y = 0;
}
);
};
},
{
color = 6;
glyphname = M;
kernLeft = I;
kernRight = I;
layers = (
{
anchors = (
{
name = bottom;
pos = (428,0);
},
{
name = top;
pos = (428,700);
}
);
hints = (
{
horizontal = 1;
place = (0,0);
type = Tag;
}
);
layerId = "EC64484B-0978-4CB1-9EE9-C40A2D8C4059";
shapes = (
{
closed = 1;
nodes = (
(263,0,ls),
(278,0,o),
(290,12,o),
(290,27,cs),
(290,301,l),
(356,193,ls),
(363,182,o),
(373,168,o),
(393,168,cs),
(463,168,ls),
(483,168,o),
(493,182,o),
(500,193,cs),
(566,301,l),
(566,27,ls),
(566,12,o),
(578,0,o),
(593,0,cs),
(774,0,ls),
(789,0,o),
(801,12,o),
(801,27,cs),
(801,673,ls),
(801,688,o),
(789,700,o),
(774,700,cs),
(616,700,ls),
(589,700,o),
(577,680,o),
(573,673,cs),
(428,433,l),
(283,673,ls),
(279,680,o),
(267,700,o),
(240,700,cs),
(82,700,ls),
(67,700,o),
(55,688,o),
(55,673,cs),
(55,27,ls),
(55,12,o),
(67,0,o),
(82,0,cs)
);
}
);
width = 856;
}
);
unicode = 77;
userData = {
com.typemytype.robofont.guides = (
{
angle = 0;
isGlobal = 0;
magnetic = 5;
x = 0;
y = 168;
},
{
angle = 0;
isGlobal = 0;
magnetic = 5;
x = 0;
y = 9;
},
{
angle = 0;
isGlobal = 0;
magnetic = 5;
x = 0;
y = 691;
},
{
angle = 90;
isGlobal = 0;
magnetic = 5;
x = 126;
y = 0;
},
{
angle = 90;
isGlobal = 0;
magnetic = 5;
x = 636;
y = 0;
}
);
};
},
{
color = 6;
glyphname = N;
kernLeft = I;
kernRight = I;
layers = (
{
anchors = (
{
name = bottom;
pos = (374,0);
},
{
name = top;
pos = (370,700);
}
);
layerId = "EC64484B-0978-4CB1-9EE9-C40A2D8C4059";
shapes = (
{
closed = 1;
nodes = (
(263,0,ls),
(278,0,o),
(290,12,o),
(290,27,cs),
(290,278,l),
(459,23,ls),
(463,17,o),
(473,0,o),
(500,0,cs),
(658,0,ls),
(673,0,o),
(685,12,o),
(685,27,cs),
(685,673,ls),
(685,688,o),
(673,700,o),
(658,700,cs),
(477,700,ls),
(462,700,o),
(450,688,o),
(450,673,cs),
(450,400,l),
(281,677,ls),
(277,684,o),
(267,700,o),
(240,700,cs),
(82,700,ls),
(67,700,o),
(55,688,o),
(55,673,cs),
(55,27,ls),
(55,12,o),
(67,0,o),
(82,0,cs)
);
}
);
width = 740;
}
);
unicode = 78;
userData = {
com.typemytype.robofont.guides = (
{
angle = 0;
isGlobal = 0;
magnetic = 5;
x = 0;
y = 9;
},
{
angle = 0;
isGlobal = 0;
magnetic = 5;
x = 0;
y = 691;
},
{
angle = 90;
isGlobal = 0;
magnetic = 5;
x = 540;
y = 0;
},
{
angle = 90;
isGlobal = 0;
magnetic = 5;
x = 125;
y = 0;
}
);
};
},
{
color = 6;
glyphname = Eng;
kernLeft = I;
kernRight = I;
layers = (
{
hints = (
{
horizontal = 1;
place = (0,0);
type = Tag;
}
);
layerId = "EC64484B-0978-4CB1-9EE9-C40A2D8C4059";
shapes = (
{
closed = 1;
nodes = (
(359,-225,ls),
(541,-225,o),
(685,-145,o),
(685,26,cs),
(685,673,ls),
(685,688,o),
(673,700,o),
(658,700,cs),
(477,700,ls),
(462,700,o),
(450,688,o),
(450,673,cs),
(450,400,l),
(281,677,ls),
(277,684,o),
(267,700,o),
(240,700,cs),
(82,700,ls),
(67,700,o),
(55,688,o),
(55,673,cs),
(55,27,ls),
(55,12,o),
(67,0,o),
(82,0,cs),
(263,0,ls),
(278,0,o),
(290,12,o),
(290,27,cs),
(290,278,l),
(450,38,l),
(450,36,l),
(450,2,o),
(426,-22,o),
(383,-22,cs),
(343,-22,ls),
(328,-22,o),
(316,-34,o),
(316,-49,c),
(316,-198,ls),
(316,-213,o),
(328,-225,o),
(343,-225,cs)
);
}
);
width = 740;
}
);
unicode = 330;
},
{
color = 6;
glyphname = O;
kernLeft = O;
kernRight = O;
layers = (
{
anchors = (
{
name = bottom;
pos = (371,0);
},
{
name = center;
pos = (371,350);
},
{
name = ogonek;
pos = (492,123);
},
{
name = top;
pos = (371,700);
},
{
name = topleft;
pos = (20,700);
},
{
name = topright;
pos = (722,700);
}
);
layerId = "EC64484B-0978-4CB1-9EE9-C40A2D8C4059";
shapes = (
{
closed = 1;
nodes = (
(567,-10,o),
(697,81,o),
(705,260,cs),
(707,314,o),
(707,379,o),
(705,436,cs),
(698,611,o),
(567,710,o),
(371,710,cs),
(175,710,o),
(44,611,o),
(37,436,cs),
(35,379,o),
(35,314,o),
(37,260,cs),
(45,81,o),
(175,-10,o),
(371,-10,cs)
);
},
{
closed = 1;
nodes = (
(327,185,o),
(299,210,o),
(297,266,cs),
(295,323,o),
(295,379,o),
(297,434,cs),
(299,490,o),
(328,515,o),
(371,515,cs),
(414,515,o),
(443,490,o),
(445,434,cs),
(447,379,o),
(447,323,o),
(445,266,cs),
(443,210,o),
(415,185,o),
(371,185,cs)
);
}
);
width = 742;
}
);
unicode = 79;
userData = {
com.typemytype.robofont.guides = (
{
angle = 0;
isGlobal = 0;
magnetic = 5;
x = 0;
y = "-10";
},
{
angle = 0;
isGlobal = 0;
magnetic = 5;
x = 0;
y = 710;
},
{
angle = 0;
isGlobal = 0;
magnetic = 5;
x = 0;
y = 335;
},
{
angle = 0;
isGlobal = 0;
magnetic = 5;
x = 0;
y = 434;
},
{
angle = 0;
isGlobal = 0;
magnetic = 5;
x = 0;
y = 266;
},
{
angle = 90;
isGlobal = 0;
magnetic = 5;
x = 496;
y = 0;
}
);
};
},
{
color = 6;
glyphname = OE;
kernLeft = O;
kernRight = E;
layers = (
{
anchors = (
{
name = bottom;
pos = (501,0);
},
{
name = top;
pos = (501,700);
}
);
hints = (
{
horizontal = 1;
place = (0,0);
type = Tag;
}
);
layerId = "EC64484B-0978-4CB1-9EE9-C40A2D8C4059";
shapes = (
{
closed = 1;
nodes = (
(937,0,ls),
(952,0,o),
(964,12,o),
(964,27,cs),
(964,168,ls),
(964,183,o),
(952,195,o),
(937,195,cs),
(649,195,l),
(649,258,l),
(907,258,ls),
(922,258,o),
(934,270,o),
(934,285,cs),
(934,415,ls),
(934,430,o),
(922,442,o),
(907,442,cs),
(649,442,l),
(649,505,l),
(929,505,ls),
(944,505,o),
(956,517,o),
(956,532,cs),
(956,673,ls),
(956,688,o),
(944,700,o),
(929,700,cs),
(369,700,ls),
(182,700,o),
(42,604,o),
(35,425,cs),
(33,368,o),
(33,330,o),
(35,276,cs),
(43,87,o),
(173,0,o),
(364,0,cs)
);
},
{
closed = 1;
nodes = (
(325,195,o),
(292,220,o),
(289,276,cs),
(286,333,o),
(286,370,o),
(289,425,cs),
(292,481,o),
(329,505,o),
(374,505,cs),
(410,505,l),
(410,195,l),
(369,195,ls)
);
}
);
width = 1002;
}
);
unicode = 338;
userData = {
com.typemytype.robofont.guides = (
{
angle = 90;
isGlobal = 0;
magnetic = 5;
x = 842;
y = 0;
},
{
angle = 90;
isGlobal = 0;
magnetic = 5;
x = 66;
y = 0;
},
{
angle = 90;
isGlobal = 0;
magnetic = 5;
x = 439;
y = 0;
},
{
angle = 90;
isGlobal = 0;
magnetic = 5;
x = 502;
y = 0;
}
);
};
},
{
color = 6;
glyphname = P;
kernLeft = I;
layers = (
{
anchors = (
{
name = bottom;
pos = (353,0);
},
{
name = top;
pos = (353,700);
}
);
hints = (
{
horizontal = 1;
place = (0,0);
type = Tag;
}
);
layerId = "EC64484B-0978-4CB1-9EE9-C40A2D8C4059";
shapes = (
{
closed = 1;
nodes = (
(288,0,ls),
(303,0,o),
(315,12,o),
(315,27,cs),
(315,218,l),
(385,218,ls),
(566,218,o),
(686,289,o),
(686,455,cs),
(686,621,o),
(566,700,o),
(385,700,cs),
(82,700,ls),
(67,700,o),
(55,688,o),
(55,673,cs),
(55,27,ls),
(55,12,o),
(67,0,o),
(82,0,cs)
);
},
{
closed = 1;
nodes = (
(310,514,l),
(380,514,ls),
(416,514,o),
(426,482,o),
(426,457,cs),
(426,418,o),
(401,403,o),
(380,403,cs),
(310,403,l)
);
}
);
width = 705;
}
);
unicode = 80;
userData = {
com.typemytype.robofont.guides = (
{
angle = 0;
isGlobal = 0;
magnetic = 5;
x = 0;
y = 493;
},
{
angle = 0;
isGlobal = 0;
magnetic = 5;
x = 0;
y = 403;
},
{
angle = 0;
isGlobal = 0;
magnetic = 5;
x = 0;
y = 218;
},
{
angle = 0;
isGlobal = 0;
magnetic = 5;
x = 0;
y = 310;
},
{
angle = 0;
isGlobal = 0;
magnetic = 5;
x = 0;
y = 9;
},
{
angle = 0;
isGlobal = 0;
magnetic = 5;
x = 0;
y = 691;
},
{
angle = 90;
isGlobal = 0;
magnetic = 5;
x = 345;
y = 0;
},
{
angle = 90;
isGlobal = 0;
magnetic = 5;
x = 94;
y = 0;
},
{
angle = 90;
isGlobal = 0;
magnetic = 5;
x = 139;
y = 0;
}
);
};
},
{
color = 6;
glyphname = Thorn;
kernLeft = I;
layers = (
{
anchors = (
{
name = bottom;
pos = (353,0);
},
{
name = top;
pos = (353,700);
}
);
hints = (
{
horizontal = 1;
place = (0,0);
type = Tag;
}
);
layerId = "EC64484B-0978-4CB1-9EE9-C40A2D8C4059";
shapes = (
{
closed = 1;
nodes = (
(288,0,ls),
(303,0,o),
(315,12,o),
(315,27,cs),
(315,119,l),
(380,119,ls),
(566,119,o),
(686,190,o),
(686,356,cs),
(686,522,o),
(566,601,o),
(380,601,c),
(315,601,l),
(315,673,ls),
(315,688,o),
(303,700,o),
(288,700,cs),
(82,700,l),
(67,700,o),
(55,688,o),
(55,673,cs),
(55,27,ls),
(55,12,o),
(67,0,o),
(82,0,cs)
);
},
{
closed = 1;
nodes = (
(310,415,l),
(380,415,ls),
(416,415,o),
(426,383,o),
(426,358,cs),
(426,319,o),
(401,304,o),
(380,304,cs),
(310,304,l)
);
}
);
width = 705;
}
);
unicode = 222;
userData = {
com.typemytype.robofont.guides = (
{
angle = 0;
isGlobal = 0;
magnetic = 5;
x = 0;
y = 119;
},
{
angle = 0;
isGlobal = 0;
magnetic = 5;
x = 0;
y = 601;
},
{
angle = 0;
isGlobal = 0;
magnetic = 5;
x = 0;
y = 570;
},
{
angle = 0;
isGlobal = 0;
magnetic = 5;
x = 0;
y = 350;
}
);
};
},
{
color = 6;
glyphname = Q;
kernLeft = O;
kernRight = O;
layers = (
{
anchors = (
{
name = bottom;
pos = (371,0);
},
{
name = top;
pos = (371,700);
}
);
hints = (
{
horizontal = 1;
place = (0,0);
type = Tag;
}
);
layerId = "EC64484B-0978-4CB1-9EE9-C40A2D8C4059";
shapes = (
{
closed = 1;
nodes = (
(694,-65,l),
(706,-65,o),
(716,-55,o),
(714,-43,cs),
(714,-40,o),
(712,-36,o),
(711,-34,c),
(632,79,l),
(675,123,o),
(700,184,o),
(704,260,cs),
(706,314,o),
(706,379,o),
(704,436,cs),
(697,611,o),
(566,710,o),
(370,710,cs),
(174,710,o),
(43,611,o),
(36,436,cs),
(34,379,o),
(34,314,o),
(36,260,cs),
(44,81,o),
(174,-10,o),
(370,-10,cs),
(390,-10,o),
(410,-9,o),
(428,-7,c),
(456,-42,l),
(462,-50,o),
(473,-65,o),
(498,-65,c)
);
},
{
closed = 1;
nodes = (
(326,185,o),
(298,210,o),
(296,266,cs),
(294,323,o),
(294,379,o),
(296,434,cs),
(298,490,o),
(327,515,o),
(370,515,cs),
(413,515,o),
(442,490,o),
(444,434,cs),
(446,379,o),
(446,323,o),
(444,266,cs),
(442,210,o),
(414,185,o),
(370,185,cs)
);
}
);
width = 742;
}
);
unicode = 81;
userData = {
com.typemytype.robofont.guides = (
{
angle = 0;
isGlobal = 0;
magnetic = 5;
x = 0;
y = 710;
},
{
angle = 0;
isGlobal = 0;
magnetic = 5;
x = 0;
y = "-10";
},
{
angle = 0;
isGlobal = 0;
magnetic = 5;
x = 0;
y = "-56";
},
{
angle = 90;
isGlobal = 0;
magnetic = 5;
x = 82;
y = 0;
},
{
angle = 90;
isGlobal = 0;
magnetic = 5;
x = 750;
y = 0;
},
{
angle = 90;
isGlobal = 0;
magnetic = 5;
x = 580;
y = 0;
}
);
};
},
{
color = 6;
glyphname = R;
kernLeft = I;
kernRight = R;
layers = (
{
anchors = (
{
name = bottom;
pos = (369,0);
},
{
name = top;
pos = (341,700);
}
);
layerId = "EC64484B-0978-4CB1-9EE9-C40A2D8C4059";
shapes = (
{
closed = 1;
nodes = (
(278,0,ls),
(293,0,o),
(305,12,o),
(305,27,cs),
(305,218,l),
(346,218,l),
(432,27,ls),
(436,18,o),
(448,0,o),
(475,0,cs),
(680,0,ls),
(692,0,o),
(702,10,o),
(702,22,cs),
(702,27,o),
(701,29,o),
(699,33,cs),
(576,261,l),
(639,301,o),
(684,367,o),
(684,457,cs),
(684,608,o),
(570,700,o),
(378,700,cs),
(82,700,ls),
(67,700,o),
(55,688,o),
(55,673,cs),
(55,27,ls),
(55,12,o),
(67,0,o),
(82,0,cs)
);
},
{
closed = 1;
nodes = (
(305,514,l),
(378,514,ls),
(411,514,o),
(424,485,o),
(424,459,cs),
(424,432,o),
(409,408,o),
(378,408,cs),
(305,408,l)
);
}
);
width = 722;
}
);
unicode = 82;
userData = {
com.typemytype.robofont.guides = (
{
angle = 0;
isGlobal = 0;
magnetic = 5;
x = 0;
y = 691;
},
{
angle = 0;
isGlobal = 0;
magnetic = 5;
x = 0;
y = 9;
},
{
angle = 90;
isGlobal = 0;
magnetic = 5;
x = 616;
y = 0;
},
{
angle = 90;
isGlobal = 0;
magnetic = 5;
x = 574;
y = 0;
},
{
angle = 90;
isGlobal = 0;
magnetic = 5;
x = 94;
y = 0;
},
{
angle = 90;
isGlobal = 0;
magnetic = 5;
x = 139;
y = 0;
}
);
};
},
{
color = 6;
glyphname = S;
kernLeft = S;
kernRight = S;
layers = (
{
anchors = (
{
name = bottom;
pos = (349,0);
},
{
name = top;
pos = (349,700);
}
);
layerId = "EC64484B-0978-4CB1-9EE9-C40A2D8C4059";
shapes = (
{
closed = 1;
nodes = (
(536,-10,o),
(679,80,o),
(679,226,cs),
(679,356,o),
(603,419,o),
(403,444,cs),
(313,455,o),
(292,468,o),
(292,487,cs),
(292,504,o),
(306,515,o),
(340,515,cs),
(368,515,o),
(386,503,o),
(393,497,cs),
(405,486,o),
(414,481,o),
(433,481,cs),
(633,481,ls),
(644,481,o),
(654,491,o),
(654,503,cs),
(651,590,o),
(540,710,o),
(340,710,cs),
(158,710,o),
(35,616,o),
(35,480,cs),
(35,347,o),
(135,281,o),
(293,260,cs),
(392,247,o),
(422,237,o),
(422,213,cs),
(422,195,o),
(392,185,o),
(347,185,cs),
(314,185,o),
(292,193,o),
(273,208,cs),
(259,219,o),
(251,225,o),
(230,225,cs),
(40,225,ls),
(28,225,o),
(18,215,o),
(18,203,cs),
(21,92,o),
(126,-10,o),
(347,-10,cs)
);
}
);
width = 697;
}
);
unicode = 83;
userData = {
com.typemytype.robofont.guides = (
{
angle = 0;
isGlobal = 0;
magnetic = 5;
x = 0;
y = 355;
},
{
angle = 90;
isGlobal = 0;
magnetic = 5;
x = 306;
y = 0;
}
);
};
},
{
color = 6;
glyphname = Scedilla;
kernLeft = S;
kernRight = S;
layers = (
{
hints = (
{
horizontal = 1;
place = (0,0);
type = Tag;
}
);
layerId = "EC64484B-0978-4CB1-9EE9-C40A2D8C4059";
shapes = (
{
closed = 1;
nodes = (
(405,-220,o),
(444,-183,o),
(444,-130,cs),
(444,-77,o),
(414,-40,o),
(363,-40,cs),
(359,-40,o),
(341,-42,o),
(333,-45,c),
(351,-10,l),
(538,-8,o),
(679,81,o),
(679,226,cs),
(679,356,o),
(603,419,o),
(403,444,cs),
(313,455,o),
(292,468,o),
(292,487,cs),
(292,504,o),
(306,515,o),
(340,515,cs),
(368,515,o),
(386,503,o),
(393,497,cs),
(405,486,o),
(414,481,o),
(433,481,c),
(633,481,l),
(644,481,o),
(654,491,o),
(654,503,cs),
(651,590,o),
(540,710,o),
(340,710,cs),
(158,710,o),
(35,616,o),
(35,480,cs),
(35,347,o),
(135,281,o),
(293,260,cs),
(392,247,o),
(422,237,o),
(422,213,cs),
(422,195,o),
(392,185,o),
(347,185,cs),
(314,185,o),
(292,193,o),
(273,208,cs),
(259,219,o),
(251,225,o),
(230,225,c),
(40,225,l),
(28,225,o),
(18,215,o),
(18,203,cs),
(20,102,o),
(107,9,o),
(288,-7,c),
(268,-52,l),
(259,-71,o),
(261,-76,o),
(270,-85,c),
(291,-106,l),
(304,-119,o),
(327,-106,o),
(345,-106,cs),
(365,-106,o),
(373,-118,o),
(373,-130,cs),
(373,-142,o),
(364,-154,o),
(345,-154,cs),
(311,-154,o),
(306,-136,o),
(289,-151,c),
(268,-169,l),
(245,-189,o),
(292,-220,o),
(345,-220,cs)
);
}
);
width = 697;
}
);
unicode = 350;
userData = {
com.typemytype.robofont.guides = (
{
angle = 90;
isGlobal = 0;
magnetic = 5;
x = 306;
y = 0;
}
);
};
},
{
color = 6;
glyphname = Germandbls;
layers = (
{
anchors = (
{
name = bottom;
pos = (341,0);
}
);
hints = (
{
horizontal = 1;
place = (0,0);
type = Tag;
}
);
layerId = "EC64484B-0978-4CB1-9EE9-C40A2D8C4059";
name = Black;
shapes = (
{
closed = 1;
nodes = (
(250,0,ls),
(265,0,o),
(277,12,o),
(277,27,cs),
(277,459,ls),
(277,516,o),
(299,541,o),
(348,541,cs),
(376,541,o),
(395,531,o),
(395,517,cs),
(395,513,o),
(393,510,o),
(389,506,cs),
(325,432,ls),
(310,414,o),
(307,409,o),
(307,391,cs),
(307,298,ls),
(307,281,o),
(317,271,o),
(336,271,cs),
(377,271,ls),
(436,271,o),
(459,250,o),
(459,219,cs),
(459,188,o),
(437,168,o),
(378,168,cs),
(340,168,ls),
(320,168,o),
(307,157,o),
(307,141,cs),
(307,27,ls),
(307,11,o),
(320,0,o),
(340,0,cs),
(435,0,ls),
(593,0,o),
(705,81,o),
(705,207,cs),
(705,282,o),
(664,350,o),
(571,379,c),
(651,469,ls),
(676,496,o),
(679,508,o),
(679,526,cs),
(679,610,o),
(553,710,o),
(362,710,cs),
(170,710,o),
(45,617,o),
(45,452,cs),
(45,27,ls),
(45,12,o),
(57,0,o),
(72,0,cs)
);
}
);
width = 715;
}
);
unicode = 7838;
},
{
color = 6;
glyphname = T;
kernLeft = T;
kernRight = T;
layers = (
{
anchors = (
{
name = bottom;
pos = (337,0);
},
{
name = center;
pos = (337,350);
},
{
name = top;
pos = (337,700);
}
);
hints = (
{
horizontal = 1;
place = (0,0);
type = Tag;
}
);
layerId = "EC64484B-0978-4CB1-9EE9-C40A2D8C4059";
shapes = (
{
closed = 1;
nodes = (
(437,0,ls),
(452,0,o),
(464,12,o),
(464,27,cs),
(464,485,l),
(630,485,ls),
(645,485,o),
(657,497,o),
(657,512,cs),
(657,673,ls),
(657,688,o),
(645,700,o),
(630,700,cs),
(44,700,ls),
(29,700,o),
(17,688,o),
(17,673,cs),
(17,512,ls),
(17,497,o),
(29,485,o),
(44,485,cs),
(210,485,l),
(210,27,ls),
(210,12,o),
(222,0,o),
(237,0,cs)
);
}
);
width = 674;
}
);
unicode = 84;
userData = {
com.typemytype.robofont.guides = (
{
angle = 0;
isGlobal = 0;
magnetic = 5;
x = 0;
y = 495;
},
{
angle = 0;
isGlobal = 0;
magnetic = 5;
x = 0;
y = 9;
},
{
angle = 0;
isGlobal = 0;
magnetic = 5;
x = 0;
y = 691;
},
{
angle = 0;
isGlobal = 0;
magnetic = 5;
x = 0;
y = 649;
},
{
angle = 90;
isGlobal = 0;
magnetic = 5;
x = 279;
y = 0;
},
{
angle = 90;
isGlobal = 0;
magnetic = 5;
x = 324;
y = 0;
},
{
angle = 90;
isGlobal = 0;
magnetic = 5;
x = 59;
y = 0;
},
{
angle = 90;
isGlobal = 0;
magnetic = 5;
x = 544;
y = 0;
}
);
};
},
{
color = 6;
glyphname = Tbar;
kernLeft = T;
kernRight = T;
layers = (
{
hints = (
{
horizontal = 1;
place = (0,0);
type = Tag;
}
);
layerId = "EC64484B-0978-4CB1-9EE9-C40A2D8C4059";
shapes = (
{
closed = 1;
nodes = (
(441,0,ls),
(456,0,o),
(468,12,o),
(468,27,cs),
(468,258,l),
(558,258,ls),
(573,258,o),
(585,270,o),
(585,285,cs),
(585,356,ls),
(585,371,o),
(573,383,o),
(558,383,cs),
(468,383,l),
(468,485,l),
(634,485,ls),
(649,485,o),
(661,497,o),
(661,512,cs),
(661,673,ls),
(661,688,o),
(649,700,o),
(634,700,cs),
(48,700,ls),
(33,700,o),
(21,688,o),
(21,673,cs),
(21,512,ls),
(21,497,o),
(33,485,o),
(48,485,cs),
(214,485,l),
(214,383,l),
(124,383,ls),
(109,383,o),
(97,371,o),
(97,356,cs),
(97,285,ls),
(97,270,o),
(109,258,o),
(124,258,cs),
(214,258,l),
(214,27,ls),
(214,12,o),
(226,0,o),
(241,0,cs)
);
}
);
width = 682;
}
);
unicode = 358;
userData = {
com.typemytype.robofont.guides = (
{
angle = 0;
isGlobal = 0;
magnetic = 5;
x = 0;
y = 380;
},
{
angle = 90;
isGlobal = 0;
magnetic = 5;
x = 301;
y = 0;
},
{
angle = 90;
isGlobal = 0;
magnetic = 5;
x = 50;
y = 0;
}
);
};
},
{
color = 6;
glyphname = U;
kernLeft = U;
kernRight = U;
layers = (
{
anchors = (
{
name = bottom;
pos = (373,0);
},
{
name = ogonek;
pos = (469,115);
},
{
name = top;
pos = (373,700);
},
{
name = topright;
pos = (726,700);
}
);
layerId = "EC64484B-0978-4CB1-9EE9-C40A2D8C4059";
shapes = (
{
closed = 1;
nodes = (
(564,-10,o),
(697,75,o),
(697,264,cs),
(697,673,ls),
(697,688,o),
(685,700,o),
(670,700,cs),
(474,700,ls),
(459,700,o),
(447,688,o),
(447,673,cs),
(447,268,ls),
(447,218,o),
(422,191,o),
(373,191,cs),
(324,191,o),
(299,218,o),
(299,268,cs),
(299,673,ls),
(299,688,o),
(287,700,o),
(272,700,cs),
(76,700,ls),
(61,700,o),
(49,688,o),
(49,673,cs),
(49,264,ls),
(49,75,o),
(182,-10,o),
(374,-10,cs)
);
}
);
width = 746;
}
);
unicode = 85;
userData = {
com.typemytype.robofont.guides = (
{
angle = 0;
isGlobal = 0;
magnetic = 5;
x = 0;
y = 267;
},
{
angle = 90;
isGlobal = 0;
magnetic = 5;
x = 333;
y = 0;
},
{
angle = 90;
isGlobal = 0;
magnetic = 5;
x = 535;
y = 0;
},
{
angle = 90;
isGlobal = 0;
magnetic = 5;
x = 580;
y = 0;
},
{
angle = 90;
isGlobal = 0;
magnetic = 5;
x = 84;
y = 0;
},
{
angle = 90;
isGlobal = 0;
magnetic = 5;
x = 129;
y = 0;
}
);
};
},
{
color = 6;
glyphname = Uogonek;
kernLeft = U;
kernRight = U;
layers = (
{
hints = (
{
horizontal = 1;
place = (0,0);
type = Tag;
},
{
horizontal = 1;
place = (0,0);
type = Tag;
}
);
layerId = "EC64484B-0978-4CB1-9EE9-C40A2D8C4059";
shapes = (
{
closed = 1;
nodes = (
(471,-220,l),
(486,-220,o),
(498,-208,o),
(498,-193,c),
(498,-125,l),
(498,-110,o),
(486,-98,o),
(471,-98,c),
(461,-98,l),
(422,-98,o),
(411,-70,o),
(411,-49,cs),
(411,-30,o),
(416,-11,o),
(448,-5,cs),
(596,21,o),
(697,100,o),
(697,264,c),
(697,673,l),
(697,688,o),
(685,700,o),
(670,700,c),
(474,700,l),
(459,700,o),
(447,688,o),
(447,673,c),
(447,268,l),
(447,218,o),
(422,191,o),
(373,191,cs),
(324,191,o),
(299,218,o),
(299,268,c),
(299,673,l),
(299,688,o),
(287,700,o),
(272,700,c),
(76,700,l),
(61,700,o),
(49,688,o),
(49,673,c),
(49,264,l),
(49,104,o),
(144,19,o),
(289,-3,c),
(286,-18,o),
(285,-33,o),
(285,-49,cs),
(285,-144,o),
(336,-220,o),
(457,-220,c)
);
}
);
width = 746;
}
);
unicode = 370;
userData = {
com.typemytype.robofont.guides = (
{
angle = 0;
isGlobal = 0;
magnetic = 5;
x = 0;
y = "-187";
},
{
angle = 90;
isGlobal = 0;
magnetic = 5;
x = 332;
y = 0;
}
);
};
},
{
color = 6;
glyphname = V;
layers = (
{
anchors = (
{
name = bottom;
pos = (363,0);
},
{
name = top;
pos = (363,700);
}
);
hints = (
{
horizontal = 1;
place = (0,0);
type = Tag;
}
);
layerId = "EC64484B-0978-4CB1-9EE9-C40A2D8C4059";
shapes = (
{
closed = 1;
nodes = (
(477,0,ls),
(504,0,o),
(518,18,o),
(522,33,cs),
(710,671,ls),
(711,675,o),
(711,676,o),
(711,678,cs),
(711,690,o),
(701,700,o),
(689,700,cs),
(503,700,ls),
(476,700,o),
(462,682,o),
(458,667,cs),
(363,295,l),
(268,667,ls),
(264,682,o),
(250,700,o),
(223,700,cs),
(37,700,ls),
(25,700,o),
(15,690,o),
(15,678,cs),
(15,676,o),
(15,675,o),
(16,671,cs),
(204,33,ls),
(208,18,o),
(222,0,o),
(249,0,cs)
);
}
);
width = 726;
}
);
unicode = 86;
userData = {
com.typemytype.robofont.guides = (
{
angle = 0;
isGlobal = 0;
magnetic = 5;
x = 0;
y = 24;
}
);
};
},
{
color = 6;
glyphname = W;
kernLeft = W;
kernRight = W;
layers = (
{
anchors = (
{
name = bottom;
pos = (428,0);
},
{
name = top;
pos = (428,700);
}
);
layerId = "EC64484B-0978-4CB1-9EE9-C40A2D8C4059";
shapes = (
{
closed = 1;
nodes = (
(305,0,ls),
(332,0,o),
(343,19,o),
(346,27,cs),
(428,232,l),
(510,27,ls),
(513,19,o),
(524,0,o),
(551,0,cs),
(694,0,ls),
(721,0,o),
(738,20,o),
(740,38,c),
(832,675,l),
(832,676,o),
(832,677,o),
(832,678,cs),
(832,690,o),
(822,700,o),
(810,700,cs),
(624,700,ls),
(601,700,o),
(590,693,o),
(588,673,cs),
(554,392,l),
(513,516,ls),
(510,525,o),
(503,545,o),
(479,545,cs),
(377,545,ls),
(353,545,o),
(346,525,o),
(343,516,cs),
(302,391,l),
(268,673,ls),
(266,693,o),
(255,700,o),
(232,700,cs),
(46,700,ls),
(34,700,o),
(24,690,o),
(24,678,cs),
(24,677,o),
(24,676,o),
(24,675,c),
(116,38,l),
(118,20,o),
(135,0,o),
(162,0,cs)
);
}
);
width = 856;
}
);
unicode = 87;
userData = {
com.typemytype.robofont.guides = (
{
angle = 0;
isGlobal = 0;
magnetic = 5;
x = 0;
y = 545;
},
{
angle = 0;
isGlobal = 0;
magnetic = 5;
x = 0;
y = 670;
},
{
angle = 0;
isGlobal = 0;
magnetic = 5;
x = 0;
y = 24;
}
);
};
},
{
color = 6;
glyphname = X;
layers = (
{
anchors = (
{
name = bottom;
pos = (370,0);
},
{
name = top;
pos = (370,700);
}
);
hints = (
{
horizontal = 1;
place = (0,0);
type = Tag;
}
);
layerId = "EC64484B-0978-4CB1-9EE9-C40A2D8C4059";
shapes = (
{
closed = 1;
nodes = (
(240,0,ls),
(266,0,o),
(278,18,o),
(281,23,cs),
(364,157,l),
(451,23,ls),
(454,18,o),
(466,0,o),
(492,0,cs),
(717,0,ls),
(729,0,o),
(739,10,o),
(739,22,cs),
(739,24,o),
(739,28,o),
(736,33,cs),
(523,361,l),
(716,667,ls),
(719,672,o),
(719,673,o),
(719,678,cs),
(719,690,o),
(709,700,o),
(697,700,cs),
(490,700,ls),
(464,700,o),
(452,682,o),
(448,675,cs),
(372,553,l),
(302,675,ls),
(298,682,o),
(286,700,o),
(260,700,cs),
(43,700,ls),
(31,700,o),
(21,690,o),
(21,678,cs),
(21,673,o),
(22,671,o),
(24,667,cs),
(213,358,l),
(3,33,ls),
(0,28,o),
(0,24,o),
(0,22,cs),
(0,10,o),
(10,0,o),
(22,0,cs)
);
}
);
width = 739;
}
);
unicode = 88;
userData = {
com.typemytype.robofont.guides = (
{
angle = 0;
isGlobal = 0;
magnetic = 5;
x = 0;
y = 350;
},
{
angle = 90;
isGlobal = 0;
magnetic = 5;
x = 28;
y = 0;
},
{
angle = 90;
isGlobal = 0;
magnetic = 5;
x = 580;
y = 0;
}
);
};
},
{
color = 6;
glyphname = Y;
kernLeft = Y;
kernRight = Y;
layers = (
{
anchors = (
{
name = bottom;
pos = (355,0);
},
{
name = top;
pos = (355,700);
},
{
name = topleft;
pos = (20,700);
}
);
layerId = "EC64484B-0978-4CB1-9EE9-C40A2D8C4059";
shapes = (
{
closed = 1;
nodes = (
(453,0,ls),
(468,0,o),
(480,12,o),
(480,27,cs),
(480,224,l),
(705,669,ls),
(706,671,o),
(707,675,o),
(707,678,cs),
(707,690,o),
(697,700,o),
(685,700,cs),
(497,700,ls),
(470,700,o),
(458,681,o),
(455,675,cs),
(355,474,l),
(255,675,ls),
(252,681,o),
(240,700,o),
(213,700,cs),
(25,700,ls),
(13,700,o),
(3,690,o),
(3,678,cs),
(3,675,o),
(4,671,o),
(5,669,cs),
(230,224,l),
(230,27,ls),
(230,12,o),
(242,0,o),
(257,0,cs)
);
}
);
width = 710;
}
);
unicode = 89;
userData = {
com.typemytype.robofont.guides = (
{
angle = 90;
isGlobal = 0;
magnetic = 5;
x = 310;
y = 0;
}
);
};
},
{
color = 6;
glyphname = Z;
kernLeft = Z;
kernRight = Z;
layers = (
{
anchors = (
{
name = bottom;
pos = (347,0);
},
{
name = center;
pos = (347,350);
},
{
name = top;
pos = (337,700);
}
);
layerId = "EC64484B-0978-4CB1-9EE9-C40A2D8C4059";
shapes = (
{
closed = 1;
nodes = (
(633,0,ls),
(648,0,o),
(660,12,o),
(660,27,cs),
(660,178,ls),
(660,193,o),
(648,205,o),
(633,205,cs),
(369,205,l),
(634,498,ls),
(642,506,o),
(647,517,o),
(647,531,cs),
(647,673,ls),
(647,688,o),
(635,700,o),
(620,700,cs),
(72,700,ls),
(57,700,o),
(45,688,o),
(45,673,cs),
(45,524,ls),
(45,509,o),
(57,497,o),
(72,497,cs),
(330,497,l),
(50,206,ls),
(45,201,o),
(35,190,o),
(35,171,cs),
(35,27,ls),
(35,12,o),
(47,0,o),
(62,0,cs)
);
}
);
width = 693;
}
);
unicode = 90;
userData = {
com.typemytype.robofont.guides = (
{
angle = 0;
isGlobal = 0;
magnetic = 5;
x = 0;
y = 51;
},
{
angle = 0;
isGlobal = 0;
magnetic = 5;
x = 0;
y = 9;
},
{
angle = 0;
isGlobal = 0;
magnetic = 5;
x = 0;
y = 691;
},
{
angle = 0;
isGlobal = 0;
magnetic = 5;
x = 0;
y = 649;
},
{
angle = 90;
isGlobal = 0;
magnetic = 5;
x = 189;
y = 0;
},
{
angle = 90;
isGlobal = 0;
magnetic = 5;
x = 815;
y = 0;
},
{
angle = 90;
isGlobal = 0;
magnetic = 5;
x = 732;
y = 0;
},
{
angle = 90;
isGlobal = 0;
magnetic = 5;
x = "-431";
y = 0;
},
{
angle = 90;
isGlobal = 0;
magnetic = 5;
x = 74;
y = 0;
},
{
angle = 90;
isGlobal = 0;
magnetic = 5;
x = 541;
y = 0;
}
);
};
},
{
color = 6;
glyphname = a;
kernLeft = a;
kernRight = a;
layers = (
{
anchors = (
{
name = bottom;
pos = (311,0);
},
{
name = ogonek;
pos = (580,122);
},
{
name = top;
pos = (310,520);
}
);
hints = (
{
horizontal = 1;
place = (0,0);
type = Tag;
},
{
horizontal = 1;
place = (0,0);
type = Tag;
}
);
layerId = "EC64484B-0978-4CB1-9EE9-C40A2D8C4059";
shapes = (
{
closed = 1;
nodes = (
(273,-10,o),
(324,15,o),
(353,55,c),
(353,27,ls),
(353,12,o),
(365,0,o),
(380,0,cs),
(555,0,ls),
(570,0,o),
(582,12,o),
(582,27,cs),
(582,314,ls),
(582,451,o),
(495,530,o),
(314,530,cs),
(127,530,o),
(54,431,o),
(51,380,cs),
(50,367,o),
(60,358,o),
(73,358,c),
(243,358,l),
(255,358,o),
(264,362,o),
(271,369,cs),
(284,382,o),
(293,390,o),
(312,390,cs),
(340,390,o),
(342,375,o),
(342,340,c),
(342,339,l),
(236,322,l),
(103,299,o),
(17,246,o),
(17,149,cs),
(17,59,o),
(96,-10,o),
(211,-10,cs)
);
},
{
closed = 1;
nodes = (
(255,138,o),
(242,151,o),
(242,166,cs),
(242,180,o),
(251,195,o),
(286,203,cs),
(345,216,l),
(345,215,l),
(345,162,o),
(319,138,o),
(280,138,cs)
);
}
);
width = 622;
}
);
unicode = 97;
},
{
color = 6;
glyphname = aogonek;
kernLeft = a;
kernRight = a;
layers = (
{
hints = (
{
horizontal = 1;
place = (0,0);
type = Tag;
},
{
horizontal = 1;
place = (0,0);
type = Tag;
},
{
horizontal = 1;
place = (0,0);
type = Tag;
},
{
horizontal = 1;
place = (0,0);
type = Tag;
}
);
layerId = "EC64484B-0978-4CB1-9EE9-C40A2D8C4059";
shapes = (
{
closed = 1;
nodes = (
(555,-220,l),
(570,-220,o),
(582,-208,o),
(582,-193,c),
(582,-125,l),
(582,-110,o),
(570,-98,o),
(555,-98,c),
(545,-98,l),
(506,-98,o),
(495,-70,o),
(495,-49,cs),
(495,-29,o),
(505,-2,o),
(539,0,c),
(555,0,l),
(570,0,o),
(582,12,o),
(582,27,c),
(582,314,l),
(582,451,o),
(495,530,o),
(314,530,cs),
(127,530,o),
(54,431,o),
(51,380,cs),
(50,367,o),
(60,358,o),
(73,358,c),
(240,358,l),
(241,358,o),
(242,358,o),
(243,358,c),
(275,358,o),
(278,390,o),
(312,390,cs),
(340,390,o),
(342,375,o),
(342,340,c),
(342,339,l),
(236,322,l),
(103,299,o),
(17,246,o),
(17,149,cs),
(17,59,o),
(96,-10,o),
(211,-10,cs),
(273,-10,o),
(324,15,o),
(353,55,c),
(353,27,l),
(353,14,o),
(361,3,o),
(373,0,c),
(370,-14,o),
(369,-33,o),
(369,-49,cs),
(369,-144,o),
(420,-220,o),
(541,-220,c)
);
},
{
closed = 1;
nodes = (
(255,138,o),
(242,151,o),
(242,166,cs),
(242,180,o),
(251,195,o),
(286,203,c),
(345,216,l),
(345,215,l),
(345,162,o),
(319,138,o),
(280,138,cs)
);
}
);
width = 622;
}
);
metricLeft = a;
metricRight = a;
unicode = 261;
userData = {
com.typemytype.robofont.guides = (
{
angle = 0;
isGlobal = 0;
magnetic = 5;
x = 0;
y = 22;
},
{
angle = 0;
isGlobal = 0;
magnetic = 5;
x = 0;
y = "-220";
},
{
angle = 90;
isGlobal = 0;
magnetic = 5;
x = 472;
y = 0;
}
);
};
},
{
color = 6;
glyphname = ae;
kernLeft = a;
kernRight = e;
layers = (
{
anchors = (
{
name = bottom;
pos = (468,0);
},
{
name = top;
pos = (468,520);
}
);
hints = (
{
horizontal = 1;
place = (0,0);
type = Tag;
},
{
horizontal = 1;
place = (0,0);
type = Tag;
},
{
horizontal = 1;
place = (0,0);
type = Tag;
}
);
layerId = "EC64484B-0978-4CB1-9EE9-C40A2D8C4059";
shapes = (
{
closed = 1;
nodes = (
(290,-10,o),
(367,-1,o),
(428,51,c),
(476,11,o),
(544,-10,o),
(625,-10,cs),
(810,-10,o),
(896,94,o),
(896,145,cs),
(896,158,o),
(887,167,o),
(874,167,cs),
(685,167,ls),
(669,167,o),
(664,165,o),
(652,153,cs),
(641,142,o),
(635,135,o),
(623,135,cs),
(594,135,o),
(584,156,o),
(584,196,cs),
(584,201,l),
(882,201,ls),
(897,201,o),
(909,213,o),
(909,228,cs),
(909,258,ls),
(909,405,o),
(820,530,o),
(624,530,cs),
(565,530,o),
(514,516,o),
(471,493,c),
(438,517,o),
(388,530,o),
(314,530,cs),
(127,530,o),
(51,431,o),
(51,380,cs),
(51,367,o),
(60,358,o),
(73,358,cs),
(240,358,l),
(241,358,o),
(242,358,o),
(243,358,cs),
(275,358,o),
(278,390,o),
(312,390,cs),
(339,390,o),
(342,376,o),
(342,342,c),
(342,339,l),
(236,322,l),
(103,299,o),
(17,246,o),
(17,149,cs),
(17,59,o),
(95,-10,o),
(231,-10,cs)
);
},
{
closed = 1;
nodes = (
(255,138,o),
(242,151,o),
(242,166,cs),
(242,180,o),
(251,195,o),
(286,203,cs),
(345,216,l),
(345,215,l),
(345,162,o),
(319,138,o),
(280,138,cs)
);
},
{
closed = 1;
nodes = (
(584,330,ls),
(584,371,o),
(598,390,o),
(624,390,cs),
(649,390,o),
(664,371,o),
(664,330,cs),
(664,326,l),
(584,326,l)
);
}
);
width = 935;
}
);
unicode = 230;
userData = {
com.typemytype.robofont.guides = (
{
angle = 0;
isGlobal = 0;
magnetic = 5;
x = 0;
y = "-10";
},
{
angle = 0;
isGlobal = 0;
magnetic = 5;
x = 0;
y = 530;
},
{
angle = 90;
isGlobal = 0;
magnetic = 5;
x = 473;
y = 0;
},
{
angle = 90;
isGlobal = 0;
magnetic = 5;
x = "-379";
y = 0;
},
{
angle = 90;
isGlobal = 0;
magnetic = 5;
x = 453;
y = 0;
}
);
};
},
{
color = 6;
glyphname = b;
kernLeft = h;
kernRight = b;
layers = (
{
anchors = (
{
name = bottom;
pos = (331,0);
},
{
name = top;
pos = (331,750);
}
);
hints = (
{
horizontal = 1;
place = (0,0);
type = Tag;
},
{
horizontal = 1;
place = (0,0);
type = Tag;
}
);
layerId = "EC64484B-0978-4CB1-9EE9-C40A2D8C4059";
shapes = (
{
closed = 1;
nodes = (
(533,-10,o),
(622,54,o),
(629,221,cs),
(630,251,o),
(630,270,o),
(629,300,cs),
(623,457,o),
(533,530,o),
(417,530,cs),
(361,530,o),
(316,512,o),
(284,483,c),
(284,683,ls),
(284,698,o),
(272,710,o),
(257,710,cs),
(72,710,ls),
(57,710,o),
(45,698,o),
(45,683,cs),
(45,27,ls),
(45,12,o),
(57,0,o),
(72,0,cs),
(242,0,ls),
(257,0,o),
(269,12,o),
(269,27,cs),
(269,50,l),
(301,14,o),
(348,-10,o),
(417,-10,cs)
);
},
{
closed = 1;
nodes = (
(297,169,o),
(286,191,o),
(284,227,cs),
(282,257,o),
(282,271,o),
(284,301,cs),
(286,333,o),
(300,351,o),
(334,351,cs),
(371,351,o),
(380,329,o),
(384,293,cs),
(386,273,o),
(386,247,o),
(384,227,cs),
(380,191,o),
(371,169,o),
(334,169,cs)
);
}
);
width = 661;
}
);
unicode = 98;
userData = {
com.typemytype.robofont.guides = (
{
angle = 0;
isGlobal = 0;
magnetic = 5;
x = 0;
y = 530;
},
{
angle = 0;
isGlobal = 0;
magnetic = 5;
x = 0;
y = "-10";
},
{
angle = 0;
isGlobal = 0;
magnetic = 5;
x = 0;
y = 710;
},
{
angle = 0;
isGlobal = 0;
magnetic = 5;
x = 0;
y = 288;
},
{
angle = 0;
isGlobal = 0;
magnetic = 5;
x = 0;
y = 232;
},
{
angle = 0;
isGlobal = 0;
magnetic = 5;
x = 0;
y = 451;
},
{
angle = 0;
isGlobal = 0;
magnetic = 5;
x = 0;
y = 69;
},
{
angle = 90;
isGlobal = 0;
magnetic = 5;
x = 121;
y = 0;
},
{
angle = 90;
isGlobal = 0;
magnetic = 5;
x = 79;
y = 0;
}
);
};
},
{
color = 6;
glyphname = c;
kernLeft = o;
kernRight = c;
layers = (
{
anchors = (
{
name = bottom;
pos = (311,0);
},
{
name = top;
pos = (311,520);
}
);
hints = (
{
horizontal = 1;
place = (0,0);
type = Tag;
},
{
horizontal = 1;
place = (0,0);
type = Tag;
}
);
layerId = "EC64484B-0978-4CB1-9EE9-C40A2D8C4059";
shapes = (
{
closed = 1;
nodes = (
(531,-10,o),
(600,141,o),
(603,184,cs),
(604,199,o),
(591,211,o),
(576,211,cs),
(381,211,ls),
(366,211,o),
(357,203,o),
(352,191,cs),
(344,172,o),
(339,161,o),
(315,161,cs),
(284,161,o),
(277,181,o),
(275,224,cs),
(274,243,o),
(274,266,o),
(275,295,cs),
(276,335,o),
(284,359,o),
(315,359,cs),
(335,359,o),
(343,348,o),
(352,329,cs),
(358,317,o),
(366,309,o),
(381,309,cs),
(576,309,ls),
(591,309,o),
(604,321,o),
(603,336,cs),
(600,389,o),
(521,530,o),
(310,530,cs),
(157,530,o),
(37,448,o),
(30,300,cs),
(29,277,o),
(29,240,o),
(30,219,cs),
(38,71,o),
(157,-10,o),
(310,-10,cs)
);
}
);
width = 622;
}
);
unicode = 99;
userData = {
com.typemytype.robofont.guides = (
{
angle = 0;
isGlobal = 0;
magnetic = 5;
x = 0;
y = "-10";
},
{
angle = 0;
isGlobal = 0;
magnetic = 5;
x = 0;
y = 295;
},
{
angle = 0;
isGlobal = 0;
magnetic = 5;
x = 0;
y = 225;
},
{
angle = 90;
isGlobal = 0;
magnetic = 5;
x = 445;
y = 0;
},
{
angle = 90;
isGlobal = 0;
magnetic = 5;
x = 484;
y = 0;
},
{
angle = 90;
isGlobal = 0;
magnetic = 5;
x = 137;
y = 0;
},
{
angle = 90;
isGlobal = 0;
magnetic = 5;
x = 270;
y = 0;
}
);
};
},
{
color = 6;
glyphname = ccedilla;
kernLeft = o;
kernRight = c;
layers = (
{
hints = (
{
horizontal = 1;
place = (0,0);
type = Tag;
},
{
horizontal = 1;
place = (0,0);
type = Tag;
}
);
layerId = "EC64484B-0978-4CB1-9EE9-C40A2D8C4059";
shapes = (
{
closed = 1;
nodes = (
(371,-220,o),
(410,-183,o),
(410,-130,cs),
(410,-77,o),
(380,-40,o),
(329,-40,cs),
(325,-40,o),
(307,-42,o),
(299,-45,c),
(317,-10,l),
(532,-7,o),
(600,141,o),
(603,184,cs),
(604,199,o),
(591,211,o),
(576,211,c),
(381,211,l),
(366,211,o),
(357,203,o),
(352,191,cs),
(344,172,o),
(339,161,o),
(315,161,cs),
(284,161,o),
(277,181,o),
(275,224,cs),
(274,243,o),
(274,266,o),
(275,295,cs),
(276,335,o),
(284,359,o),
(315,359,cs),
(335,359,o),
(343,348,o),
(352,329,cs),
(358,317,o),
(366,309,o),
(381,309,c),
(576,309,l),
(591,309,o),
(604,321,o),
(603,336,cs),
(600,389,o),
(521,530,o),
(310,530,cs),
(157,530,o),
(37,448,o),
(30,300,cs),
(29,277,o),
(29,240,o),
(30,219,cs),
(37,89,o),
(129,11,o),
(254,-6,c),
(234,-52,l),
(225,-71,o),
(227,-76,o),
(236,-85,c),
(257,-106,l),
(270,-119,o),
(293,-106,o),
(311,-106,cs),
(331,-106,o),
(339,-118,o),
(339,-130,cs),
(339,-142,o),
(330,-154,o),
(311,-154,cs),
(277,-154,o),
(272,-136,o),
(255,-151,c),
(234,-169,l),
(211,-189,o),
(258,-220,o),
(311,-220,cs)
);
}
);
width = 622;
}
);
unicode = 231;
},
{
color = 6;
glyphname = d;
kernLeft = d;
kernRight = d;
layers = (
{
anchors = (
{
name = bottom;
pos = (331,0);
},
{
name = center;
pos = (466,612);
},
{
name = top;
pos = (331,750);
},
{
name = topright;
pos = (781,710);
}
);
hints = (
{
horizontal = 1;
place = (0,0);
type = Tag;
},
{
horizontal = 1;
place = (0,0);
type = Tag;
}
);
layerId = "EC64484B-0978-4CB1-9EE9-C40A2D8C4059";
shapes = (
{
closed = 1;
nodes = (
(313,-10,o),
(360,14,o),
(392,50,c),
(392,27,ls),
(392,12,o),
(404,0,o),
(419,0,cs),
(589,0,ls),
(604,0,o),
(616,12,o),
(616,27,cs),
(616,683,ls),
(616,698,o),
(604,710,o),
(589,710,cs),
(404,710,ls),
(389,710,o),
(377,698,o),
(377,683,cs),
(377,483,l),
(345,512,o),
(300,530,o),
(244,530,cs),
(128,530,o),
(38,457,o),
(32,300,cs),
(31,270,o),
(31,251,o),
(32,221,cs),
(39,54,o),
(128,-10,o),
(244,-10,cs)
);
},
{
closed = 1;
nodes = (
(290,169,o),
(281,191,o),
(277,227,cs),
(275,247,o),
(275,273,o),
(277,293,cs),
(281,329,o),
(290,351,o),
(327,351,cs),
(361,351,o),
(375,333,o),
(377,301,cs),
(379,271,o),
(379,257,o),
(377,227,cs),
(375,191,o),
(364,169,o),
(327,169,cs)
);
}
);
width = 661;
}
);
unicode = 100;
userData = {
com.typemytype.robofont.guides = (
{
angle = 0;
isGlobal = 0;
magnetic = 5;
x = 0;
y = 650;
},
{
angle = 0;
isGlobal = 0;
magnetic = 5;
x = 0;
y = 530;
},
{
angle = 90;
isGlobal = 0;
magnetic = 5;
x = 438;
y = 0;
},
{
angle = 90;
isGlobal = 0;
magnetic = 5;
x = 499;
y = 0;
}
);
};
},
{
color = 6;
glyphname = dcroat;
kernLeft = d;
kernRight = d;
layers = (
{
hints = (
{
horizontal = 1;
place = (0,0);
type = Tag;
},
{
horizontal = 1;
place = (0,0);
type = Tag;
}
);
layerId = "EC64484B-0978-4CB1-9EE9-C40A2D8C4059";
shapes = (
{
closed = 1;
nodes = (
(313,-10,o),
(362,18,o),
(392,57,c),
(392,27,ls),
(392,12,o),
(404,0,o),
(419,0,cs),
(589,0,ls),
(604,0,o),
(616,12,o),
(616,27,cs),
(616,548,l),
(646,548,ls),
(661,548,o),
(673,560,o),
(673,575,cs),
(673,626,ls),
(673,641,o),
(661,653,o),
(646,653,cs),
(616,653,l),
(616,683,ls),
(616,698,o),
(604,710,o),
(589,710,cs),
(404,710,ls),
(389,710,o),
(377,698,o),
(377,683,cs),
(377,653,l),
(347,653,ls),
(332,653,o),
(320,641,o),
(320,626,cs),
(320,575,ls),
(320,560,o),
(332,548,o),
(347,548,cs),
(377,548,l),
(377,483,l),
(345,512,o),
(300,530,o),
(244,530,cs),
(128,530,o),
(38,457,o),
(32,300,cs),
(31,270,o),
(31,251,o),
(32,221,cs),
(39,54,o),
(128,-10,o),
(244,-10,cs)
);
},
{
closed = 1;
nodes = (
(290,169,o),
(281,191,o),
(277,227,cs),
(275,247,o),
(275,273,o),
(277,293,cs),
(281,329,o),
(290,351,o),
(327,351,cs),
(361,351,o),
(375,333,o),
(377,301,cs),
(379,271,o),
(379,257,o),
(377,227,cs),
(375,191,o),
(364,169,o),
(327,169,cs)
);
}
);
width = 662;
}
);
unicode = 273;
userData = {
com.typemytype.robofont.guides = (
{
angle = 0;
isGlobal = 0;
magnetic = 5;
x = 0;
y = 600;
}
);
};
},
{
color = 6;
glyphname = eth;
layers = (
{
hints = (
{
horizontal = 1;
place = (0,0);
type = Tag;
}
);
layerId = "EC64484B-0978-4CB1-9EE9-C40A2D8C4059";
shapes = (
{
closed = 1;
nodes = (
(489,-10,o),
(597,68,o),
(606,225,cs),
(607,245,o),
(607,268,o),
(606,288,cs),
(599,424,o),
(560,524,o),
(498,601,c),
(539,617,l),
(555,623,o),
(561,632,o),
(561,650,c),
(561,678,l),
(561,690,o),
(552,699,o),
(540,699,cs),
(538,699,o),
(534,698,o),
(529,696,c),
(439,661,l),
(429,670,o),
(417,678,o),
(406,687,cs),
(396,694,o),
(380,700,o),
(353,700,c),
(165,700,l),
(153,700,o),
(143,690,o),
(143,678,cs),
(143,673,o),
(147,665,o),
(156,659,cs),
(188,637,o),
(219,613,o),
(246,586,c),
(172,557,l),
(156,551,o),
(150,542,o),
(150,524,c),
(150,496,l),
(150,484,o),
(159,475,o),
(171,475,cs),
(173,475,o),
(177,476,o),
(182,478,c),
(300,524,l),
(312,506,o),
(322,488,o),
(330,470,c),
(325,470,o),
(321,470,o),
(316,470,c),
(153,470,o),
(26,392,o),
(26,230,cs),
(26,68,o),
(142,-10,o),
(316,-10,cs)
);
},
{
closed = 1;
nodes = (
(279,150,o),
(272,171,o),
(271,204,cs),
(270,224,o),
(270,236,o),
(271,256,cs),
(273,288,o),
(279,310,o),
(316,310,cs),
(353,310,o),
(359,288,o),
(361,256,cs),
(362,236,o),
(362,223,o),
(361,203,cs),
(360,171,o),
(350,150,o),
(316,150,cs)
);
}
);
width = 638;
}
);
unicode = 240;
userData = {
com.typemytype.robofont.guides = (
{
angle = 0;
isGlobal = 0;
magnetic = 5;
x = 0;
y = 512;
},
{
angle = 90;
isGlobal = 0;
magnetic = 5;
x = 214;
y = 0;
},
{
angle = 90;
isGlobal = 0;
magnetic = 5;
x = 484;
y = 0;
}
);
};
},
{
color = 6;
glyphname = e;
kernLeft = o;
kernRight = e;
layers = (
{
anchors = (
{
name = bottom;
pos = (312,0);
},
{
name = ogonek;
pos = (561,10);
},
{
name = top;
pos = (312,520);
}
);
hints = (
{
horizontal = 1;
place = (0,0);
type = Tag;
}
);
layerId = "EC64484B-0978-4CB1-9EE9-C40A2D8C4059";
shapes = (
{
closed = 1;
nodes = (
(499,-10,o),
(582,94,o),
(585,145,cs),
(586,158,o),
(576,167,o),
(563,167,cs),
(374,167,ls),
(358,167,o),
(353,165,o),
(341,153,cs),
(330,142,o),
(324,135,o),
(312,135,cs),
(283,135,o),
(273,156,o),
(273,196,cs),
(273,198,o),
(273,199,o),
(273,201,c),
(571,201,ls),
(586,201,o),
(598,213,o),
(598,228,cs),
(598,258,ls),
(598,405,o),
(509,530,o),
(313,530,cs),
(142,530,o),
(31,438,o),
(28,266,cs),
(28,264,o),
(28,261,o),
(28,259,cs),
(28,72,o),
(139,-10,o),
(314,-10,cs)
);
},
{
closed = 1;
nodes = (
(273,327,l),
(273,371,o),
(287,390,o),
(313,390,cs),
(339,390,o),
(353,371,o),
(353,327,c),
(353,326,l),
(273,326,l)
);
}
);
width = 623;
}
);
unicode = 101;
userData = {
com.typemytype.robofont.guides = (
{
angle = 0;
isGlobal = 0;
magnetic = 5;
x = 0;
y = "-10";
},
{
angle = 90;
isGlobal = 0;
magnetic = 5;
x = 275;
y = 0;
},
{
angle = 90;
isGlobal = 0;
magnetic = 5;
x = 496;
y = 0;
},
{
angle = 90;
isGlobal = 0;
magnetic = 5;
x = 61;
y = 0;
},
{
angle = 90;
isGlobal = 0;
magnetic = 5;
x = 122;
y = 0;
},
{
angle = 90;
isGlobal = 0;
magnetic = 5;
x = 430;
y = 0;
}
);
};
},
{
color = 6;
glyphname = eogonek;
kernLeft = o;
kernRight = e;
layers = (
{
anchors = (
{
name = top;
pos = (312,520);
}
);
hints = (
{
horizontal = 1;
place = (0,0);
type = Tag;
},
{
horizontal = 1;
place = (0,0);
type = Tag;
},
{
horizontal = 1;
place = (0,0);
type = Tag;
}
);
layerId = "EC64484B-0978-4CB1-9EE9-C40A2D8C4059";
shapes = (
{
closed = 1;
nodes = (
(382,-220,l),
(397,-220,o),
(409,-208,o),
(409,-193,c),
(409,-125,l),
(409,-110,o),
(397,-98,o),
(382,-98,c),
(372,-98,l),
(333,-98,o),
(322,-70,o),
(322,-49,cs),
(322,-28,o),
(338,-12,o),
(380,-5,c),
(519,15,o),
(582,100,o),
(585,145,cs),
(586,158,o),
(576,167,o),
(563,167,c),
(374,167,l),
(358,167,o),
(353,165,o),
(341,153,cs),
(330,142,o),
(324,135,o),
(312,135,cs),
(283,135,o),
(273,156,o),
(273,196,c),
(273,201,l),
(571,201,l),
(586,201,o),
(598,213,o),
(598,228,c),
(598,258,l),
(598,405,o),
(509,530,o),
(313,530,cs),
(142,530,o),
(30,437,o),
(28,264,cs),
(28,262,o),
(28,261,o),
(28,259,cs),
(28,116,o),
(93,34,o),
(202,3,c),
(198,-13,o),
(196,-30,o),
(196,-49,cs),
(196,-144,o),
(247,-220,o),
(368,-220,cs)
);
},
{
closed = 1;
nodes = (
(273,327,l),
(273,371,o),
(287,390,o),
(313,390,cs),
(339,390,o),
(353,371,o),
(353,327,c),
(353,326,l),
(273,326,l)
);
}
);
width = 623;
}
);
unicode = 281;
userData = {
com.typemytype.robofont.guides = (
{
angle = 0;
isGlobal = 0;
magnetic = 5;
x = 0;
y = 259;
},
{
angle = 0;
isGlobal = 0;
magnetic = 5;
x = 0;
y = "-220";
},
{
angle = 90;
isGlobal = 0;
magnetic = 5;
x = 339;
y = 0;
}
);
};
},
{
color = 6;
glyphname = f;
kernLeft = f;
kernRight = f;
layers = (
{
anchors = (
{
name = bottom;
pos = (246,0);
},
{
name = top;
pos = (246,750);
}
);
hints = (
{
horizontal = 1;
place = (0,0);
type = Tag;
}
);
layerId = "EC64484B-0978-4CB1-9EE9-C40A2D8C4059";
shapes = (
{
closed = 1;
nodes = (
(313,0,ls),
(328,0,o),
(340,12,o),
(340,27,cs),
(340,345,l),
(454,345,ls),
(469,345,o),
(481,357,o),
(481,372,cs),
(481,493,ls),
(481,508,o),
(469,520,o),
(454,520,cs),
(340,520,l),
(340,532,ls),
(340,553,o),
(353,565,o),
(383,565,cs),
(464,565,ls),
(479,565,o),
(491,577,o),
(491,592,cs),
(491,713,ls),
(491,728,o),
(479,740,o),
(464,740,cs),
(371,740,ls),
(226,740,o),
(111,701,o),
(111,537,cs),
(111,520,l),
(42,520,ls),
(27,520,o),
(15,508,o),
(15,493,cs),
(15,372,ls),
(15,357,o),
(27,345,o),
(42,345,cs),
(111,345,l),
(111,27,ls),
(111,12,o),
(123,0,o),
(138,0,cs)
);
}
);
width = 492;
}
);
unicode = 102;
userData = {
com.typemytype.robofont.guides = (
{
angle = 0;
isGlobal = 0;
magnetic = 5;
x = 0;
y = 345;
},
{
angle = 0;
isGlobal = 0;
magnetic = 5;
x = 0;
y = 9;
},
{
angle = 0;
isGlobal = 0;
magnetic = 5;
x = 0;
y = 740;
},
{
angle = 90;
isGlobal = 0;
magnetic = 5;
x = 297;
y = 0;
},
{
angle = 90;
isGlobal = 0;
magnetic = 5;
x = 371;
y = 0;
}
);
};
},
{
color = 6;
glyphname = g;
kernLeft = g;
kernRight = u;
layers = (
{
anchors = (
{
name = bottom;
pos = (333,-225);
},
{
name = top;
pos = (327,520);
}
);
hints = (
{
horizontal = 1;
place = (0,0);
type = Tag;
},
{
horizontal = 1;
place = (0,0);
type = Tag;
},
{
horizontal = 1;
place = (0,0);
type = Tag;
}
);
layerId = "EC64484B-0978-4CB1-9EE9-C40A2D8C4059";
shapes = (
{
closed = 1;
nodes = (
(496,-220,o),
(621,-151,o),
(621,17,c),
(620,493,l),
(620,508,o),
(608,520,o),
(593,520,c),
(418,520,l),
(403,520,o),
(391,508,o),
(391,493,c),
(391,462,l),
(359,502,o),
(308,530,o),
(243,530,cs),
(117,530,o),
(39,457,o),
(31,300,c),
(30,280,o),
(30,269,o),
(31,249,c),
(40,82,o),
(117,23,o),
(243,23,cs),
(301,23,o),
(345,39,o),
(376,66,c),
(376,0,l),
(376,-40,o),
(362,-59,o),
(333,-59,cs),
(309,-59,o),
(300,-51,o),
(291,-34,cs),
(285,-22,o),
(278,-14,o),
(263,-14,c),
(68,-14,l),
(53,-14,o),
(40,-26,o),
(41,-41,cs),
(44,-84,o),
(112,-220,o),
(338,-220,cs)
);
},
{
closed = 1;
nodes = (
(289,197,o),
(279,219,o),
(276,255,cs),
(275,265,o),
(275,283,o),
(276,293,c),
(279,329,o),
(289,351,o),
(326,351,cs),
(360,351,o),
(373,333,o),
(376,301,cs),
(377,291,o),
(377,257,o),
(376,247,cs),
(373,215,o),
(360,197,o),
(326,197,cs)
);
}
);
width = 666;
}
);
unicode = 103;
userData = {
com.typemytype.robofont.guides = (
{
angle = 0;
isGlobal = 0;
magnetic = 5;
x = 0;
y = 530;
},
{
angle = 0;
isGlobal = 0;
magnetic = 5;
x = 0;
y = "-220";
},
{
angle = 0;
isGlobal = 0;
magnetic = 5;
x = 0;
y = 288;
},
{
angle = 0;
isGlobal = 0;
magnetic = 5;
x = 0;
y = 232;
},
{
angle = 90;
isGlobal = 0;
magnetic = 5;
x = 56;
y = 0;
},
{
angle = 90;
isGlobal = 0;
magnetic = 5;
x = 270;
y = 0;
}
);
};
},
{
color = 6;
glyphname = h;
kernLeft = h;
kernRight = n;
layers = (
{
anchors = (
{
name = bottom;
pos = (343,0);
},
{
name = center;
pos = (187,599);
},
{
name = top;
pos = (343,676);
}
);
layerId = "EC64484B-0978-4CB1-9EE9-C40A2D8C4059";
shapes = (
{
closed = 1;
nodes = (
(267,0,ls),
(282,0,o),
(294,12,o),
(294,27,cs),
(294,296,ls),
(294,332,o),
(313,351,o),
(345,351,cs),
(377,351,o),
(395,332,o),
(395,296,cs),
(395,27,ls),
(395,12,o),
(407,0,o),
(422,0,cs),
(618,0,ls),
(633,0,o),
(645,12,o),
(645,27,cs),
(645,303,ls),
(645,461,o),
(547,530,o),
(446,530,cs),
(384,530,o),
(329,506,o),
(294,468,c),
(294,683,ls),
(294,698,o),
(282,710,o),
(267,710,cs),
(72,710,ls),
(57,710,o),
(45,698,o),
(45,683,cs),
(45,27,ls),
(45,12,o),
(57,0,o),
(72,0,cs)
);
}
);
width = 685;
}
);
unicode = 104;
userData = {
com.typemytype.robofont.guides = (
{
angle = 0;
isGlobal = 0;
magnetic = 5;
x = 0;
y = 9;
},
{
angle = 0;
isGlobal = 0;
magnetic = 5;
x = 0;
y = 301;
},
{
angle = 0;
isGlobal = 0;
magnetic = 5;
x = 0;
y = 414;
},
{
angle = 0;
isGlobal = 0;
magnetic = 5;
x = 0;
y = 710;
},
{
angle = 90;
isGlobal = 0;
magnetic = 5;
x = 79;
y = 0;
},
{
angle = 90;
isGlobal = 0;
magnetic = 5;
x = 291;
y = 0;
}
);
};
},
{
color = 3;
glyphname = hbar;
kernLeft = h;
kernRight = n;
layers = (
{
hints = (
{
horizontal = 1;
place = (0,0);
type = Tag;
}
);
layerId = "EC64484B-0978-4CB1-9EE9-C40A2D8C4059";
shapes = (
{
closed = 1;
nodes = (
(339,538,ls),
(354,538,o),
(366,550,o),
(366,565,cs),
(366,616,ls),
(366,631,o),
(354,643,o),
(339,643,cs),
(20,643,ls),
(5,643,o),
(-7,631,o),
(-7,616,cs),
(-7,565,ls),
(-7,550,o),
(5,538,o),
(20,538,cs)
);
},
{
ref = h;
}
);
width = 685;
}
);
metricRight = h;
unicode = 295;
userData = {
com.typemytype.robofont.guides = (
{
angle = 90;
isGlobal = 0;
magnetic = 5;
x = 189;
y = 0;
},
{
angle = 90;
isGlobal = 0;
magnetic = 5;
x = 110;
y = 0;
}
);
};
},
{
color = 6;
glyphname = i;
kernLeft = i;
kernRight = i;
layers = (
{
anchors = (
{
name = bottom;
pos = (162,0);
},
{
name = top;
pos = (166,772);
}
);
hints = (
{
horizontal = 1;
place = (0,0);
type = Tag;
}
);
layerId = "EC64484B-0978-4CB1-9EE9-C40A2D8C4059";
shapes = (
{
closed = 1;
nodes = (
(251,0,ls),
(266,0,o),
(278,12,o),
(278,27,cs),
(278,493,ls),
(278,508,o),
(266,520,o),
(251,520,cs),
(72,520,ls),
(57,520,o),
(45,508,o),
(45,493,cs),
(45,27,ls),
(45,12,o),
(57,0,o),
(72,0,cs)
);
},
{
closed = 1;
nodes = (
(246,575,ls),
(261,575,o),
(273,587,o),
(273,602,cs),
(273,723,ls),
(273,738,o),
(261,750,o),
(246,750,cs),
(77,750,ls),
(62,750,o),
(50,738,o),
(50,723,cs),
(50,602,ls),
(50,587,o),
(62,575,o),
(77,575,cs)
);
}
);
width = 323;
}
);
unicode = 105;
userData = {
com.typemytype.robofont.guides = (
{
angle = 0;
isGlobal = 0;
magnetic = 5;
x = 0;
y = 510;
},
{
angle = 0;
isGlobal = 0;
magnetic = 5;
x = 0;
y = 22;
},
{
angle = 0;
isGlobal = 0;
magnetic = 5;
x = 0;
y = 627;
},
{
angle = 90;
isGlobal = 0;
magnetic = 5;
x = 79;
y = 0;
},
{
angle = 90;
isGlobal = 0;
magnetic = 5;
x = 121;
y = 0;
},
{
angle = 90;
isGlobal = 0;
magnetic = 5;
x = 70;
y = 0;
},
{
angle = 90;
isGlobal = 0;
magnetic = 5;
x = 131;
y = 0;
}
);
};
},
{
color = 6;
glyphname = idotless;
kernLeft = i;
kernRight = i;
layers = (
{
anchors = (
{
name = bottom;
pos = (162,0);
},
{
name = ogonek;
pos = (291,10);
},
{
name = top;
pos = (162,520);
}
);
hints = (
{
horizontal = 1;
place = (0,0);
type = Tag;
}
);
layerId = "EC64484B-0978-4CB1-9EE9-C40A2D8C4059";
shapes = (
{
closed = 1;
nodes = (
(251,0,l),
(266,0,o),
(278,12,o),
(278,27,cs),
(278,493,ls),
(278,508,o),
(266,520,o),
(251,520,cs),
(72,520,ls),
(57,520,o),
(45,508,o),
(45,493,cs),
(45,27,ls),
(45,12,o),
(57,0,o),
(72,0,cs)
);
}
);
width = 323;
}
);
unicode = 305;
},
{
color = 6;
glyphname = iogonek;
kernLeft = i;
kernRight = i;
layers = (
{
hints = (
{
horizontal = 1;
place = (0,0);
type = Tag;
},
{
horizontal = 1;
place = (0,0);
type = Tag;
}
);
layerId = "EC64484B-0978-4CB1-9EE9-C40A2D8C4059";
shapes = (
{
closed = 1;
nodes = (
(251,-192,ls),
(266,-192,o),
(278,-180,o),
(278,-165,cs),
(278,-107,ls),
(278,-92,o),
(266,-80,o),
(251,-80,c),
(241,-80,ls),
(202,-80,o),
(191,-61,o),
(191,-40,cs),
(191,-19,o),
(202,0,o),
(241,0,cs),
(251,0,ls),
(266,0,o),
(278,12,o),
(278,27,cs),
(278,493,ls),
(278,508,o),
(266,520,o),
(251,520,cs),
(72,520,ls),
(57,520,o),
(45,508,o),
(45,493,cs),
(45,27,ls),
(45,12,o),
(57,0,o),
(72,0,cs),
(79,0,l),
(76,-12,o),
(75,-26,o),
(75,-40,cs),
(75,-125,o),
(126,-192,o),
(237,-192,cs)
);
},
{
closed = 1;
nodes = (
(246,575,ls),
(261,575,o),
(273,587,o),
(273,602,cs),
(273,723,ls),
(273,738,o),
(261,750,o),
(246,750,cs),
(77,750,ls),
(62,750,o),
(50,738,o),
(50,723,cs),
(50,602,ls),
(50,587,o),
(62,575,o),
(77,575,cs)
);
}
);
width = 323;
}
);
unicode = 303;
userData = {
com.typemytype.robofont.guides = (
{
angle = 0;
isGlobal = 0;
magnetic = 5;
x = 0;
y = 22;
},
{
angle = 90;
isGlobal = 0;
magnetic = 5;
x = 131;
y = 0;
}
);
};
},
{
color = 6;
glyphname = j;
kernRight = i;
layers = (
{
anchors = (
{
name = top;
pos = (179,772);
}
);
layerId = "EC64484B-0978-4CB1-9EE9-C40A2D8C4059";
shapes = (
{
closed = 1;
nodes = (
(45,-190,ls),
(190,-190,o),
(300,-121,o),
(300,29,cs),
(300,493,ls),
(300,508,o),
(288,520,o),
(273,520,cs),
(85,520,ls),
(70,520,o),
(58,508,o),
(58,493,cs),
(58,35,ls),
(58,4,o),
(45,-15,o),
(15,-15,cs),
(-43,-15,ls),
(-58,-15,o),
(-70,-27,o),
(-70,-42,cs),
(-70,-163,ls),
(-70,-178,o),
(-58,-190,o),
(-43,-190,cs)
);
},
{
closed = 1;
nodes = (
(268,575,ls),
(283,575,o),
(295,587,o),
(295,602,cs),
(295,723,ls),
(295,738,o),
(283,750,o),
(268,750,cs),
(90,750,ls),
(75,750,o),
(63,738,o),
(63,723,cs),
(63,602,ls),
(63,587,o),
(75,575,o),
(90,575,cs)
);
}
);
width = 345;
}
);
unicode = 106;
userData = {
com.typemytype.robofont.guides = (
{
angle = 0;
isGlobal = 0;
magnetic = 5;
x = 0;
y = 740;
},
{
angle = 0;
isGlobal = 0;
magnetic = 5;
x = 0;
y = "-190";
},
{
angle = 90;
isGlobal = 0;
magnetic = 5;
x = "-46";
y = 0;
}
);
};
},
{
color = 6;
glyphname = jdotless;
kernLeft = dotlessj;
kernRight = i;
layers = (
{
anchors = (
{
name = bottom;
pos = (241,-225);
},
{
name = top;
pos = (241,520);
}
);
hints = (
{
horizontal = 1;
place = (0,0);
type = Tag;
}
);
layerId = "EC64484B-0978-4CB1-9EE9-C40A2D8C4059";
shapes = (
{
closed = 1;
nodes = (
(182,-190,l),
(327,-190,o),
(437,-94,o),
(437,70,cs),
(437,493,ls),
(437,508,o),
(425,520,o),
(410,520,cs),
(52,520,ls),
(37,520,o),
(25,508,o),
(25,493,cs),
(25,364,ls),
(25,349,o),
(37,337,o),
(52,337,cs),
(193,337,l),
(193,70,ls),
(193,39,o),
(180,20,o),
(150,20,cs),
(49,20,ls),
(34,20,o),
(22,8,o),
(22,-7,cs),
(22,-163,ls),
(22,-178,o),
(34,-190,o),
(49,-190,cs)
);
}
);
width = 482;
}
);
unicode = 567;
userData = {
com.typemytype.robofont.guides = (
{
angle = 0;
isGlobal = 0;
magnetic = 5;
x = 0;
y = "-190";
},
{
angle = 90;
isGlobal = 0;
magnetic = 5;
x = 45;
y = 0;
}
);
};
},
{
color = 6;
glyphname = k;
kernLeft = h;
kernRight = k;
layers = (
{
anchors = (
{
name = bottom;
pos = (322,0);
},
{
name = top;
pos = (322,750);
}
);
hints = (
{
horizontal = 1;
place = (0,0);
type = Tag;
}
);
layerId = "EC64484B-0978-4CB1-9EE9-C40A2D8C4059";
shapes = (
{
closed = 1;
nodes = (
(247,0,ls),
(262,0,o),
(274,12,o),
(274,27,cs),
(274,187,l),
(376,17,ls),
(378,14,o),
(387,0,o),
(407,0,cs),
(617,0,ls),
(630,0,o),
(641,11,o),
(641,24,cs),
(641,30,o),
(639,34,o),
(637,37,cs),
(475,286,l),
(612,481,ls),
(614,484,o),
(617,490,o),
(617,496,cs),
(617,509,o),
(606,520,o),
(593,520,cs),
(391,520,ls),
(373,520,o),
(365,508,o),
(362,503,cs),
(274,359,l),
(274,683,ls),
(274,698,o),
(262,710,o),
(247,710,cs),
(72,710,ls),
(57,710,o),
(45,698,o),
(45,683,cs),
(45,27,ls),
(45,12,o),
(57,0,o),
(72,0,cs)
);
}
);
width = 643;
}
);
unicode = 107;
userData = {
com.typemytype.robofont.guides = (
{
angle = 0;
isGlobal = 0;
magnetic = 5;
x = 0;
y = 520;
},
{
angle = 0;
isGlobal = 0;
magnetic = 5;
x = 0;
y = 710;
},
{
angle = 0;
isGlobal = 0;
magnetic = 5;
x = 0;
y = 260;
},
{
angle = 90;
isGlobal = 0;
magnetic = 5;
x = 460;
y = 0;
},
{
angle = 90;
isGlobal = 0;
magnetic = 5;
x = 430;
y = 0;
}
);
};
},
{
color = 6;
glyphname = kgreenlandic;
kernLeft = n;
kernRight = k;
layers = (
{
anchors = (
{
name = bottom;
pos = (322,0);
},
{
name = top;
pos = (322,520);
}
);
hints = (
{
horizontal = 1;
place = (0,0);
type = Tag;
}
);
layerId = "EC64484B-0978-4CB1-9EE9-C40A2D8C4059";
shapes = (
{
closed = 1;
nodes = (
(247,0,ls),
(262,0,o),
(274,12,o),
(274,27,cs),
(274,187,l),
(376,17,ls),
(378,14,o),
(387,0,o),
(407,0,cs),
(617,0,ls),
(630,0,o),
(641,11,o),
(641,24,cs),
(641,30,o),
(639,34,o),
(637,37,cs),
(485,266,l),
(612,481,ls),
(614,484,o),
(617,490,o),
(617,496,cs),
(617,509,o),
(606,520,o),
(593,520,cs),
(401,520,ls),
(383,520,o),
(375,508,o),
(372,503,cs),
(274,329,l),
(274,493,ls),
(274,508,o),
(262,520,o),
(247,520,cs),
(72,520,ls),
(57,520,o),
(45,508,o),
(45,493,cs),
(45,27,ls),
(45,12,o),
(57,0,o),
(72,0,cs)
);
}
);
width = 643;
}
);
unicode = 312;
userData = {
com.typemytype.robofont.guides = (
{
angle = 0;
isGlobal = 0;
magnetic = 5;
x = 0;
y = 520;
},
{
angle = 0;
isGlobal = 0;
magnetic = 5;
x = 0;
y = 260;
}
);
};
},
{
color = 6;
glyphname = l;
kernLeft = l;
kernRight = l;
layers = (
{
anchors = (
{
name = bottom;
pos = (162,0);
},
{
name = center;
pos = (162,375);
},
{
name = top;
pos = (162,675);
},
{
name = topright;
pos = (440,710);
}
);
layerId = "EC64484B-0978-4CB1-9EE9-C40A2D8C4059";
shapes = (
{
closed = 1;
nodes = (
(251,0,ls),
(266,0,o),
(278,12,o),
(278,27,cs),
(278,683,ls),
(278,698,o),
(266,710,o),
(251,710,cs),
(72,710,ls),
(57,710,o),
(45,698,o),
(45,683,cs),
(45,27,ls),
(45,12,o),
(57,0,o),
(72,0,cs)
);
}
);
width = 323;
}
);
unicode = 108;
userData = {
com.typemytype.robofont.guides = (
{
angle = 0;
isGlobal = 0;
magnetic = 5;
x = 0;
y = 9;
},
{
angle = 0;
isGlobal = 0;
magnetic = 5;
x = 0;
y = 710;
}
);
};
},
{
color = 6;
glyphname = lslash;
kernLeft = l;
kernRight = l;
layers = (
{
hints = (
{
horizontal = 1;
place = (0,0);
type = Tag;
}
);
layerId = "EC64484B-0978-4CB1-9EE9-C40A2D8C4059";
shapes = (
{
closed = 1;
nodes = (
(290,0,ls),
(305,0,o),
(317,12,o),
(317,27,cs),
(317,319,l),
(355,334,ls),
(371,340,o),
(377,349,o),
(377,367,cs),
(377,475,ls),
(377,487,o),
(368,496,o),
(356,496,cs),
(354,496,o),
(350,495,o),
(345,493,cs),
(317,482,l),
(317,683,ls),
(317,698,o),
(305,710,o),
(290,710,cs),
(111,710,ls),
(96,710,o),
(84,698,o),
(84,683,cs),
(84,391,l),
(46,377,ls),
(30,371,o),
(24,362,o),
(24,344,cs),
(24,236,ls),
(24,224,o),
(33,215,o),
(45,215,cs),
(47,215,o),
(51,216,o),
(56,218,cs),
(84,229,l),
(84,27,ls),
(84,12,o),
(96,0,o),
(111,0,cs)
);
}
);
width = 400;
}
);
unicode = 322;
userData = {
com.typemytype.robofont.guides = (
{
angle = 0;
isGlobal = 0;
magnetic = 5;
x = 0;
y = 355;
},
{
angle = 90;
isGlobal = 0;
magnetic = 5;
x = 231;
y = 0;
},
{
angle = 90;
isGlobal = 0;
magnetic = 5;
x = 100;
y = 0;
},
{
angle = 90;
isGlobal = 0;
magnetic = 5;
x = 30;
y = 0;
}
);
};
},
{
color = 6;
glyphname = m;
kernLeft = n;
kernRight = n;
layers = (
{
anchors = (
{
name = bottom;
pos = (469,0);
},
{
name = top;
pos = (469,520);
}
);
hints = (
{
horizontal = 1;
place = (0,0);
type = Tag;
},
{
horizontal = 1;
place = (0,0);
type = Tag;
}
);
layerId = "EC64484B-0978-4CB1-9EE9-C40A2D8C4059";
shapes = (
{
closed = 1;
nodes = (
(252,0,ls),
(267,0,o),
(279,12,o),
(279,27,cs),
(279,302,ls),
(279,333,o),
(294,351,o),
(319,351,cs),
(344,351,o),
(359,334,o),
(359,302,cs),
(359,27,ls),
(359,12,o),
(371,0,o),
(386,0,cs),
(562,0,ls),
(577,0,o),
(589,12,o),
(589,27,cs),
(589,302,ls),
(589,334,o),
(603,351,o),
(628,351,cs),
(653,351,o),
(668,334,o),
(668,302,cs),
(668,27,ls),
(668,12,o),
(680,0,o),
(695,0,cs),
(871,0,ls),
(886,0,o),
(898,12,o),
(898,27,cs),
(898,307,ls),
(898,465,o),
(815,530,o),
(714,530,cs),
(653,530,o),
(592,494,o),
(561,448,c),
(534,506,o),
(482,533,o),
(403,530,cs),
(337,527,o),
(287,490,o),
(264,460,c),
(264,493,ls),
(264,508,o),
(252,520,o),
(237,520,cs),
(72,520,ls),
(57,520,o),
(45,508,o),
(45,493,cs),
(45,27,ls),
(45,12,o),
(57,0,o),
(72,0,cs)
);
}
);
width = 938;
}
);
unicode = 109;
},
{
color = 6;
glyphname = n;
kernLeft = n;
kernRight = n;
layers = (
{
anchors = (
{
name = bottom;
pos = (343,0);
},
{
name = top;
pos = (340,520);
}
);
hints = (
{
horizontal = 1;
place = (0,0);
type = Tag;
},
{
horizontal = 1;
place = (0,0);
type = Tag;
}
);
layerId = "EC64484B-0978-4CB1-9EE9-C40A2D8C4059";
shapes = (
{
closed = 1;
nodes = (
(262,0,ls),
(277,0,o),
(289,12,o),
(289,27,cs),
(289,296,ls),
(289,332,o),
(307,351,o),
(339,351,cs),
(371,351,o),
(389,332,o),
(389,296,cs),
(389,27,ls),
(389,12,o),
(401,0,o),
(416,0,cs),
(607,0,ls),
(622,0,o),
(634,12,o),
(634,27,cs),
(634,303,ls),
(634,461,o),
(541,530,o),
(440,530,cs),
(369,530,o),
(307,499,o),
(274,460,c),
(274,493,ls),
(274,508,o),
(262,520,o),
(247,520,cs),
(72,520,ls),
(57,520,o),
(45,508,o),
(45,493,cs),
(45,27,ls),
(45,12,o),
(57,0,o),
(72,0,cs)
);
}
);
width = 674;
}
);
unicode = 110;
userData = {
com.typemytype.robofont.guides = (
{
angle = 0;
isGlobal = 0;
magnetic = 5;
x = 0;
y = 530;
},
{
angle = 0;
isGlobal = 0;
magnetic = 5;
x = 0;
y = 301;
},
{
angle = 0;
isGlobal = 0;
magnetic = 5;
x = 0;
y = 650;
},
{
angle = 0;
isGlobal = 0;
magnetic = 5;
x = 0;
y = 407;
},
{
angle = 0;
isGlobal = 0;
magnetic = 5;
x = 0;
y = 451;
},
{
angle = 90;
isGlobal = 0;
magnetic = 5;
x = 291;
y = 0;
},
{
angle = 90;
isGlobal = 0;
magnetic = 5;
x = 131;
y = 0;
}
);
};
},
{
color = 3;
glyphname = napostrophe;
kernLeft = n;
kernRight = n;
layers = (
{
layerId = "EC64484B-0978-4CB1-9EE9-C40A2D8C4059";
shapes = (
{
closed = 1;
nodes = (
(30,550,ls),
(56,550,o),
(68,569,o),
(73,582,cs),
(128,721,ls),
(129,724,o),
(129,726,o),
(129,728,cs),
(129,740,o),
(119,750,o),
(107,750,cs),
(-33,750,ls),
(-60,750,o),
(-73,729,o),
(-76,711,cs),
(-97,572,ls),
(-99,560,o),
(-87,550,o),
(-75,550,cs)
);
},
{
ref = n;
}
);
width = 674;
}
);
metricRight = n;
unicode = 329;
userData = {
com.typemytype.robofont.guides = (
{
angle = 0;
isGlobal = 0;
magnetic = 5;
x = 0;
y = 575;
},
{
angle = 90;
isGlobal = 0;
magnetic = 5;
x = 286;
y = 0;
}
);
};
},
{
color = 6;
glyphname = eng;
kernLeft = n;
kernRight = n;
layers = (
{
hints = (
{
horizontal = 1;
place = (0,0);
type = Tag;
},
{
horizontal = 1;
place = (0,0);
type = Tag;
}
);
layerId = "EC64484B-0978-4CB1-9EE9-C40A2D8C4059";
shapes = (
{
closed = 1;
nodes = (
(312,-225,ls),
(494,-225,o),
(634,-142,o),
(634,48,cs),
(634,303,ls),
(634,461,o),
(541,530,o),
(440,530,cs),
(369,530,o),
(307,499,o),
(274,460,c),
(274,493,ls),
(274,508,o),
(262,520,o),
(247,520,cs),
(72,520,ls),
(57,520,o),
(45,508,o),
(45,493,cs),
(45,27,ls),
(45,12,o),
(57,0,o),
(72,0,cs),
(262,0,ls),
(277,0,o),
(289,12,o),
(289,27,cs),
(289,296,ls),
(289,332,o),
(307,351,o),
(339,351,cs),
(371,351,o),
(389,332,o),
(389,296,cs),
(389,59,ls),
(389,-2,o),
(365,-22,o),
(322,-22,cs),
(283,-22,ls),
(268,-22,o),
(256,-34,o),
(256,-49,c),
(256,-198,ls),
(256,-213,o),
(268,-225,o),
(283,-225,cs)
);
}
);
width = 674;
}
);
unicode = 331;
userData = {
com.typemytype.robofont.guides = (
{
angle = 0;
isGlobal = 0;
magnetic = 5;
x = 0;
y = "-300";
},
{
angle = 90;
isGlobal = 0;
magnetic = 5;
x = 225;
y = 0;
}
);
};
},
{
color = 6;
glyphname = o;
kernLeft = o;
kernRight = o;
layers = (
{
anchors = (
{
name = bottom;
pos = (321,0);
},
{
name = center;
pos = (321,260);
},
{
name = ogonek;
pos = (578,10);
},
{
name = top;
pos = (321,520);
},
{
name = topright;
pos = (622,520);
}
);
hints = (
{
horizontal = 1;
place = (0,0);
type = Tag;
}
);
layerId = "EC64484B-0978-4CB1-9EE9-C40A2D8C4059";
shapes = (
{
closed = 1;
nodes = (
(505,-10,o),
(601,66,o),
(611,213,cs),
(613,243,o),
(613,277,o),
(611,307,cs),
(601,454,o),
(494,530,o),
(321,530,cs),
(148,530,o),
(41,454,o),
(31,307,cs),
(29,277,o),
(29,243,o),
(31,213,cs),
(41,66,o),
(137,-10,o),
(321,-10,cs)
);
},
{
closed = 1;
nodes = (
(283,150,o),
(279,171,o),
(276,218,cs),
(275,238,o),
(275,282,o),
(276,302,cs),
(279,346,o),
(283,370,o),
(321,370,cs),
(359,370,o),
(363,346,o),
(366,302,cs),
(367,282,o),
(367,238,o),
(366,218,cs),
(363,171,o),
(359,150,o),
(321,150,cs)
);
}
);
width = 642;
}
);
unicode = 111;
userData = {
com.typemytype.robofont.guides = (
{
angle = 0;
isGlobal = 0;
magnetic = 5;
x = 0;
y = 302;
},
{
angle = 0;
isGlobal = 0;
magnetic = 5;
x = 0;
y = 218;
},
{
angle = 0;
isGlobal = 0;
magnetic = 5;
x = 0;
y = 411;
},
{
angle = 0;
isGlobal = 0;
magnetic = 5;
x = 0;
y = 109;
},
{
angle = 90;
isGlobal = 0;
magnetic = 5;
x = 278;
y = 0;
},
{
angle = 90;
isGlobal = 0;
magnetic = 5;
x = 56;
y = 0;
},
{
angle = 90;
isGlobal = 0;
magnetic = 5;
x = 500;
y = 0;
}
);
};
},
{
color = 6;
glyphname = oe;
kernLeft = o;
kernRight = e;
layers = (
{
anchors = (
{
name = bottom;
pos = (482,0);
},
{
name = top;
pos = (482,520);
}
);
hints = (
{
horizontal = 1;
place = (0,0);
type = Tag;
},
{
horizontal = 1;
place = (0,0);
type = Tag;
},
{
horizontal = 1;
place = (0,0);
type = Tag;
},
{
horizontal = 1;
place = (0,0);
type = Tag;
}
);
layerId = "EC64484B-0978-4CB1-9EE9-C40A2D8C4059";
shapes = (
{
closed = 1;
nodes = (
(391,-10,o),
(448,1,o),
(492,22,c),
(536,0,o),
(591,-10,o),
(654,-10,cs),
(839,-10,o),
(922,94,o),
(925,145,cs),
(926,158,o),
(916,167,o),
(903,167,c),
(714,167,l),
(698,167,o),
(693,165,o),
(681,153,cs),
(670,142,o),
(664,135,o),
(652,135,cs),
(623,135,o),
(613,156,o),
(613,196,c),
(613,201,l),
(911,201,l),
(926,201,o),
(938,213,o),
(938,228,c),
(938,258,l),
(938,405,o),
(849,530,o),
(653,530,cs),
(591,530,o),
(538,518,o),
(494,494,c),
(448,518,o),
(389,530,o),
(321,530,cs),
(148,530,o),
(41,454,o),
(31,307,cs),
(29,277,o),
(29,243,o),
(31,213,cs),
(41,66,o),
(137,-10,o),
(321,-10,cs)
);
},
{
closed = 1;
nodes = (
(283,150,o),
(279,171,o),
(276,218,cs),
(275,238,o),
(275,282,o),
(276,302,cs),
(279,346,o),
(283,370,o),
(321,370,cs),
(359,370,o),
(363,346,o),
(366,302,cs),
(367,282,o),
(367,238,o),
(366,218,cs),
(363,171,o),
(359,150,o),
(321,150,cs)
);
},
{
closed = 1;
nodes = (
(613,327,l),
(613,371,o),
(627,390,o),
(653,390,cs),
(679,390,o),
(693,371,o),
(693,327,c),
(693,326,l),
(613,326,l)
);
}
);
width = 963;
}
);
unicode = 339;
userData = {
com.typemytype.robofont.guides = (
{
angle = 90;
isGlobal = 0;
magnetic = 5;
x = 51;
y = 0;
},
{
angle = 90;
isGlobal = 0;
magnetic = 5;
x = 495;
y = 0;
}
);
};
},
{
color = 6;
glyphname = p;
kernLeft = n;
kernRight = b;
layers = (
{
anchors = (
{
name = bottom;
pos = (331,0);
},
{
name = top;
pos = (331,520);
}
);
hints = (
{
horizontal = 1;
place = (0,0);
type = Tag;
},
{
horizontal = 1;
place = (0,0);
type = Tag;
}
);
layerId = "EC64484B-0978-4CB1-9EE9-C40A2D8C4059";
shapes = (
{
closed = 1;
nodes = (
(257,-190,ls),
(272,-190,o),
(284,-178,o),
(284,-163,cs),
(284,50,l),
(314,7,o),
(361,-10,o),
(417,-10,cs),
(533,-10,o),
(623,63,o),
(629,220,cs),
(630,250,o),
(630,269,o),
(629,299,cs),
(622,466,o),
(533,530,o),
(417,530,cs),
(348,530,o),
(299,502,o),
(269,463,c),
(269,493,ls),
(269,508,o),
(257,520,o),
(242,520,cs),
(72,520,ls),
(57,520,o),
(45,508,o),
(45,493,cs),
(45,-163,ls),
(45,-178,o),
(57,-190,o),
(72,-190,cs)
);
},
{
closed = 1;
nodes = (
(300,169,o),
(286,187,o),
(284,219,cs),
(282,249,o),
(282,263,o),
(284,293,cs),
(286,329,o),
(297,351,o),
(334,351,cs),
(371,351,o),
(380,329,o),
(384,293,cs),
(386,273,o),
(386,247,o),
(384,227,cs),
(380,191,o),
(371,169,o),
(334,169,cs)
);
}
);
width = 661;
}
);
unicode = 112;
userData = {
com.typemytype.robofont.guides = (
{
angle = 0;
isGlobal = 0;
magnetic = 5;
x = 0;
y = 530;
},
{
angle = 0;
isGlobal = 0;
magnetic = 5;
x = 0;
y = "-10";
},
{
angle = 0;
isGlobal = 0;
magnetic = 5;
x = 0;
y = 422;
},
{
angle = 0;
isGlobal = 0;
magnetic = 5;
x = 0;
y = "-190";
},
{
angle = 90;
isGlobal = 0;
magnetic = 5;
x = 419;
y = 0;
},
{
angle = 90;
isGlobal = 0;
magnetic = 5;
x = "-609";
y = 0;
},
{
angle = 90;
isGlobal = 0;
magnetic = 5;
x = 79;
y = 0;
},
{
angle = 90;
isGlobal = 0;
magnetic = 5;
x = 122;
y = 0;
},
{
angle = 90;
isGlobal = 0;
magnetic = 5;
x = 291;
y = 0;
}
);
};
},
{
color = 6;
glyphname = thorn;
kernLeft = h;
kernRight = b;
layers = (
{
anchors = (
{
name = bottom;
pos = (331,0);
},
{
name = top;
pos = (331,520);
}
);
hints = (
{
horizontal = 1;
place = (0,0);
type = Tag;
}
);
layerId = "EC64484B-0978-4CB1-9EE9-C40A2D8C4059";
shapes = (
{
closed = 1;
nodes = (
(258,-190,ls),
(273,-190,o),
(285,-178,o),
(285,-163,cs),
(285,50,l),
(315,7,o),
(362,-10,o),
(418,-10,cs),
(534,-10,o),
(624,63,o),
(630,220,cs),
(631,250,o),
(631,269,o),
(630,299,cs),
(623,466,o),
(534,530,o),
(418,530,cs),
(349,530,o),
(315,512,o),
(285,473,c),
(285,683,ls),
(285,698,o),
(273,710,o),
(258,710,cs),
(73,710,ls),
(58,710,o),
(46,698,o),
(46,683,cs),
(46,-163,ls),
(46,-178,o),
(58,-190,o),
(73,-190,cs)
);
},
{
closed = 1;
nodes = (
(301,169,o),
(287,187,o),
(285,219,cs),
(283,249,o),
(283,263,o),
(285,293,cs),
(287,329,o),
(298,351,o),
(335,351,cs),
(372,351,o),
(381,329,o),
(385,293,cs),
(387,273,o),
(387,247,o),
(385,227,cs),
(381,191,o),
(372,169,o),
(335,169,cs)
);
}
);
width = 662;
}
);
unicode = 254;
userData = {
com.typemytype.robofont.guides = (
{
angle = 0;
isGlobal = 0;
magnetic = 5;
x = 0;
y = 710;
}
);
};
},
{
color = 6;
glyphname = q;
kernLeft = d;
kernRight = u;
layers = (
{
anchors = (
{
name = bottom;
pos = (331,0);
},
{
name = top;
pos = (331,520);
}
);
hints = (
{
horizontal = 1;
place = (0,0);
type = Tag;
},
{
horizontal = 1;
place = (0,0);
type = Tag;
}
);
layerId = "EC64484B-0978-4CB1-9EE9-C40A2D8C4059";
shapes = (
{
closed = 1;
nodes = (
(589,-190,ls),
(604,-190,o),
(616,-178,o),
(616,-163,cs),
(616,493,ls),
(616,508,o),
(604,520,o),
(589,520,cs),
(419,520,ls),
(404,520,o),
(392,508,o),
(392,493,cs),
(392,463,l),
(362,502,o),
(313,530,o),
(244,530,cs),
(128,530,o),
(39,466,o),
(32,299,cs),
(31,269,o),
(31,250,o),
(32,220,cs),
(38,63,o),
(128,-10,o),
(244,-10,cs),
(300,-10,o),
(347,7,o),
(377,50,c),
(377,-163,ls),
(377,-178,o),
(389,-190,o),
(404,-190,cs)
);
},
{
closed = 1;
nodes = (
(290,169,o),
(281,191,o),
(277,227,cs),
(275,247,o),
(275,273,o),
(277,293,cs),
(281,329,o),
(290,351,o),
(327,351,cs),
(364,351,o),
(375,329,o),
(377,293,cs),
(379,263,o),
(379,249,o),
(377,219,cs),
(375,187,o),
(361,169,o),
(327,169,cs)
);
}
);
width = 661;
}
);
unicode = 113;
userData = {
com.typemytype.robofont.guides = (
{
angle = 0;
isGlobal = 0;
magnetic = 5;
x = 0;
y = 530;
},
{
angle = 0;
isGlobal = 0;
magnetic = 5;
x = 0;
y = "-10";
},
{
angle = 0;
isGlobal = 0;
magnetic = 5;
x = 0;
y = "-190";
}
);
};
},
{
color = 6;
glyphname = r;
kernLeft = n;
kernRight = r;
layers = (
{
anchors = (
{
name = bottom;
pos = (164,0);
},
{
name = top;
pos = (277,520);
}
);
hints = (
{
horizontal = 1;
place = (0,0);
type = Tag;
}
);
layerId = "EC64484B-0978-4CB1-9EE9-C40A2D8C4059";
shapes = (
{
closed = 1;
nodes = (
(262,0,ls),
(277,0,o),
(289,12,o),
(289,27,cs),
(289,250,ls),
(289,290,o),
(309,310,o),
(349,310,cs),
(478,310,ls),
(493,310,o),
(505,322,o),
(505,337,cs),
(505,493,ls),
(505,508,o),
(493,520,o),
(478,520,cs),
(430,520,ls),
(370,520,o),
(316,495,o),
(274,458,c),
(274,493,ls),
(274,508,o),
(262,520,o),
(247,520,cs),
(72,520,ls),
(57,520,o),
(45,508,o),
(45,493,cs),
(45,27,ls),
(45,12,o),
(57,0,o),
(72,0,cs)
);
}
);
width = 518;
}
);
unicode = 114;
userData = {
com.typemytype.robofont.guides = (
{
angle = 0;
isGlobal = 0;
magnetic = 5;
x = 0;
y = 462;
}
);
};
},
{
color = 6;
glyphname = s;
kernLeft = s;
kernRight = s;
layers = (
{
anchors = (
{
name = bottom;
pos = (295,0);
},
{
name = top;
pos = (295,520);
}
);
hints = (
{
horizontal = 1;
place = (0,0);
type = Tag;
},
{
horizontal = 1;
place = (0,0);
type = Tag;
}
);
layerId = "EC64484B-0978-4CB1-9EE9-C40A2D8C4059";
shapes = (
{
closed = 1;
nodes = (
(469,-10,o),
(569,55,o),
(569,162,cs),
(569,230,o),
(518,309,o),
(374,330,cs),
(270,345,o),
(264,357,o),
(264,374,cs),
(264,383,o),
(274,390,o),
(284,390,cs),
(313,390,o),
(328,360,o),
(357,360,cs),
(360,360,o),
(364,360,o),
(367,360,c),
(525,360,ls),
(537,360,o),
(548,372,o),
(547,387,cs),
(544,444,o),
(450,530,o),
(285,530,cs),
(120,530,o),
(32,445,o),
(32,359,cs),
(32,254,o),
(122,209,o),
(215,192,cs),
(314,174,o),
(319,162,o),
(319,145,cs),
(319,135,o),
(307,130,o),
(296,130,cs),
(265,130,o),
(250,157,o),
(224,160,cs),
(223,160,o),
(221,160,o),
(220,160,cs),
(46,160,ls),
(32,160,o),
(21,148,o),
(22,133,cs),
(25,80,o),
(97,-10,o),
(289,-10,cs)
);
}
);
width = 590;
}
);
unicode = 115;
userData = {
com.typemytype.robofont.guides = (
{
angle = 0;
isGlobal = 0;
magnetic = 5;
x = 0;
y = 265;
},
{
angle = 0;
isGlobal = 0;
magnetic = 5;
x = 0;
y = 139;
},
{
angle = 90;
isGlobal = 0;
magnetic = 5;
x = 250;
y = 0;
}
);
};
},
{
color = 6;
glyphname = scedilla;
kernLeft = s;
kernRight = s;
layers = (
{
hints = (
{
horizontal = 1;
place = (0,0);
type = Tag;
}
);
layerId = "EC64484B-0978-4CB1-9EE9-C40A2D8C4059";
shapes = (
{
closed = 1;
nodes = (
(359,-220,o),
(398,-183,o),
(398,-130,cs),
(398,-77,o),
(368,-40,o),
(317,-40,cs),
(313,-40,o),
(295,-42,o),
(287,-45,c),
(305,-10,l),
(474,-6,o),
(569,58,o),
(569,162,cs),
(569,230,o),
(518,309,o),
(374,330,cs),
(270,345,o),
(264,357,o),
(264,374,cs),
(264,383,o),
(274,390,o),
(284,390,cs),
(313,390,o),
(328,360,o),
(357,360,cs),
(360,360,o),
(362,360,o),
(365,360,cs),
(525,360,ls),
(537,360,o),
(548,372,o),
(547,387,cs),
(544,444,o),
(450,530,o),
(285,530,cs),
(120,530,o),
(32,445,o),
(32,359,cs),
(32,254,o),
(122,209,o),
(215,192,cs),
(314,174,o),
(319,162,o),
(319,145,cs),
(319,135,o),
(307,130,o),
(296,130,cs),
(263,130,o),
(249,160,o),
(220,160,cs),
(217,160,o),
(215,160,o),
(212,160,cs),
(46,160,ls),
(32,160,o),
(21,148,o),
(22,133,cs),
(24,84,o),
(85,9,o),
(242,-7,c),
(222,-52,ls),
(213,-71,o),
(215,-76,o),
(224,-85,cs),
(245,-106,ls),
(258,-119,o),
(281,-106,o),
(299,-106,cs),
(319,-106,o),
(327,-118,o),
(327,-130,cs),
(327,-142,o),
(318,-154,o),
(299,-154,cs),
(265,-154,o),
(260,-136,o),
(243,-151,cs),
(222,-169,ls),
(199,-189,o),
(246,-220,o),
(299,-220,cs)
);
}
);
width = 590;
}
);
unicode = 351;
},
{
color = 6;
glyphname = germandbls;
kernLeft = h;
layers = (
{
anchors = (
{
name = bottom;
pos = (341,0);
},
{
name = top;
pos = (341,520);
}
);
hints = (
{
horizontal = 1;
place = (0,0);
type = Tag;
}
);
layerId = "EC64484B-0978-4CB1-9EE9-C40A2D8C4059";
shapes = (
{
closed = 1;
nodes = (
(250,0,ls),
(265,0,o),
(277,12,o),
(277,27,c),
(277,459,ls),
(277,518,o),
(301,541,o),
(340,541,c),
(379,541,o),
(403,518,o),
(403,489,cs),
(403,460,o),
(376,439,o),
(339,438,c),
(336,438,l),
(311,438,o),
(307,426,o),
(307,411,cs),
(307,313,ls),
(307,298,o),
(315,286,o),
(336,286,c),
(338,286,l),
(384,286,o),
(409,262,o),
(409,227,cs),
(409,191,o),
(380,168,o),
(342,168,c),
(340,168,l),
(319,169,o),
(307,156,o),
(307,141,cs),
(307,27,ls),
(307,12,o),
(319,0,o),
(340,0,c),
(375,0,l),
(569,0,o),
(655,113,o),
(655,216,cs),
(655,303,o),
(620,348,o),
(566,375,c),
(607,407,o),
(625,447,o),
(625,502,cs),
(625,608,o),
(546,709,o),
(340,710,c),
(134,709,o),
(45,598,o),
(45,452,cs),
(45,27,ls),
(45,12,o),
(57,0,o),
(72,0,cs)
);
}
);
width = 682;
}
);
unicode = 223;
userData = {
com.typemytype.robofont.guides = (
{
angle = 0;
isGlobal = 0;
magnetic = 5;
x = 0;
y = 527;
},
{
angle = 0;
isGlobal = 0;
magnetic = 5;
x = 0;
y = 601;
},
{
angle = 90;
isGlobal = 0;
magnetic = 5;
x = 267;
y = 0;
},
{
angle = 90;
isGlobal = 0;
magnetic = 5;
x = 499;
y = 0;
}
);
};
},
{
color = 6;
glyphname = longs;
layers = (
{
anchors = (
{
name = bottom;
pos = (194,0);
},
{
name = top;
pos = (194,520);
}
);
hints = (
{
horizontal = 1;
place = (0,0);
type = Tag;
}
);
layerId = "EC64484B-0978-4CB1-9EE9-C40A2D8C4059";
shapes = (
{
closed = 1;
nodes = (
(314,0,ls),
(329,0,o),
(341,12,o),
(341,27,cs),
(341,532,l),
(341,553,o),
(354,565,o),
(384,565,cs),
(465,565,ls),
(480,565,o),
(492,577,o),
(492,592,cs),
(492,713,ls),
(492,728,o),
(480,740,o),
(465,740,cs),
(372,740,ls),
(227,740,o),
(112,701,o),
(112,537,cs),
(112,520,l),
(43,520,ls),
(28,520,o),
(16,508,o),
(16,493,cs),
(16,372,ls),
(16,357,o),
(28,345,o),
(43,345,cs),
(112,345,l),
(112,27,ls),
(112,12,o),
(124,0,o),
(139,0,cs)
);
}
);
width = 387;
}
);
unicode = 383;
},
{
color = 6;
glyphname = t;
kernLeft = t;
kernRight = t;
layers = (
{
anchors = (
{
name = bottom;
pos = (311,0);
},
{
name = center;
pos = (242,260);
},
{
name = top;
pos = (266,520);
},
{
name = topright;
pos = (512,810);
}
);
hints = (
{
horizontal = 1;
place = (0,0);
type = Tag;
}
);
layerId = "EC64484B-0978-4CB1-9EE9-C40A2D8C4059";
shapes = (
{
closed = 1;
nodes = (
(480,0,ls),
(495,0,o),
(507,12,o),
(507,27,cs),
(507,158,ls),
(507,173,o),
(495,185,o),
(480,185,cs),
(389,185,ls),
(359,185,o),
(346,204,o),
(346,235,cs),
(346,345,l),
(472,345,ls),
(487,345,o),
(499,357,o),
(499,372,cs),
(499,493,ls),
(499,508,o),
(487,520,o),
(472,520,cs),
(346,520,l),
(346,683,ls),
(346,698,o),
(334,710,o),
(319,710,cs),
(144,710,ls),
(129,710,o),
(117,698,o),
(117,683,cs),
(117,520,l),
(38,520,ls),
(23,520,o),
(11,508,o),
(11,493,cs),
(11,372,ls),
(11,357,o),
(23,345,o),
(38,345,cs),
(117,345,l),
(117,215,ls),
(117,51,o),
(222,0,o),
(367,0,cs)
);
}
);
width = 532;
}
);
unicode = 116;
userData = {
com.typemytype.robofont.guides = (
{
angle = 0;
isGlobal = 0;
magnetic = 5;
x = 0;
y = 175;
},
{
angle = 90;
isGlobal = 0;
magnetic = 5;
x = 342;
y = 0;
},
{
angle = 90;
isGlobal = 0;
magnetic = 5;
x = 35;
y = 0;
}
);
};
},
{
color = 6;
glyphname = tbar;
kernLeft = t;
kernRight = t;
layers = (
{
hints = (
{
horizontal = 1;
place = (0,0);
type = Tag;
}
);
layerId = "EC64484B-0978-4CB1-9EE9-C40A2D8C4059";
shapes = (
{
closed = 1;
nodes = (
(481,0,ls),
(496,0,o),
(508,12,o),
(508,27,cs),
(508,158,ls),
(508,173,o),
(496,185,o),
(481,185,cs),
(390,185,ls),
(360,185,o),
(347,204,o),
(347,235,cs),
(347,265,l),
(473,265,ls),
(488,265,o),
(500,277,o),
(500,292,cs),
(500,343,ls),
(500,358,o),
(488,370,o),
(473,370,cs),
(347,370,l),
(347,415,l),
(473,415,ls),
(488,415,o),
(500,427,o),
(500,442,cs),
(500,493,ls),
(500,508,o),
(488,520,o),
(473,520,cs),
(347,520,l),
(347,683,ls),
(347,698,o),
(335,710,o),
(320,710,cs),
(145,710,ls),
(130,710,o),
(118,698,o),
(118,683,cs),
(118,520,l),
(39,520,ls),
(24,520,o),
(12,508,o),
(12,493,cs),
(12,442,ls),
(12,427,o),
(24,415,o),
(39,415,cs),
(118,415,l),
(118,370,l),
(39,370,ls),
(24,370,o),
(12,358,o),
(12,343,cs),
(12,292,ls),
(12,277,o),
(24,265,o),
(39,265,cs),
(118,265,l),
(118,215,ls),
(118,51,o),
(223,0,o),
(368,0,cs)
);
}
);
width = 533;
}
);
unicode = 359;
userData = {
com.typemytype.robofont.guides = (
{
angle = 90;
isGlobal = 0;
magnetic = 5;
x = 342;
y = 0;
}
);
};
},
{
color = 6;
glyphname = u;
kernLeft = u;
kernRight = u;
layers = (
{
anchors = (
{
name = bottom;
pos = (337,0);
},
{
name = ogonek;
pos = (607,10);
},
{
name = top;
pos = (337,520);
},
{
name = topright;
pos = (654,520);
}
);
layerId = "EC64484B-0978-4CB1-9EE9-C40A2D8C4059";
shapes = (
{
closed = 1;
nodes = (
(305,-10,o),
(367,11,o),
(400,60,c),
(400,27,ls),
(400,12,o),
(412,0,o),
(427,0,cs),
(602,0,ls),
(617,0,o),
(629,12,o),
(629,27,cs),
(629,493,ls),
(629,508,o),
(617,520,o),
(602,520,cs),
(412,520,ls),
(397,520,o),
(385,508,o),
(385,493,cs),
(385,224,ls),
(385,188,o),
(367,169,o),
(335,169,cs),
(303,169,o),
(285,188,o),
(285,224,cs),
(285,493,ls),
(285,508,o),
(273,520,o),
(258,520,cs),
(67,520,ls),
(52,520,o),
(40,508,o),
(40,493,cs),
(40,217,l),
(40,59,o),
(133,-10,o),
(234,-10,cs)
);
}
);
width = 674;
}
);
unicode = 117;
userData = {
com.typemytype.robofont.guides = (
{
angle = 0;
isGlobal = 0;
magnetic = 5;
x = 0;
y = "-10";
},
{
angle = 90;
isGlobal = 0;
magnetic = 5;
x = 432;
y = 0;
},
{
angle = 90;
isGlobal = 0;
magnetic = 5;
x = 126;
y = 0;
},
{
angle = 90;
isGlobal = 0;
magnetic = 5;
x = 65;
y = 0;
}
);
};
},
{
color = 6;
glyphname = uogonek;
kernLeft = u;
kernRight = u;
layers = (
{
layerId = "EC64484B-0978-4CB1-9EE9-C40A2D8C4059";
shapes = (
{
closed = 1;
nodes = (
(602,-220,ls),
(617,-220,o),
(629,-208,o),
(629,-193,cs),
(629,-125,ls),
(629,-110,o),
(617,-98,o),
(602,-98,cs),
(592,-98,ls),
(553,-98,o),
(542,-70,o),
(542,-49,cs),
(542,-29,o),
(552,-2,o),
(586,0,c),
(602,0,ls),
(617,0,o),
(629,12,o),
(629,27,cs),
(629,493,ls),
(629,508,o),
(617,520,o),
(602,520,cs),
(412,520,ls),
(397,520,o),
(385,508,o),
(385,493,cs),
(385,224,ls),
(385,188,o),
(367,169,o),
(335,169,cs),
(303,169,o),
(285,188,o),
(285,224,cs),
(285,493,ls),
(285,508,o),
(273,520,o),
(258,520,cs),
(67,520,ls),
(52,520,o),
(40,508,o),
(40,493,cs),
(40,217,ls),
(40,59,o),
(133,-10,o),
(234,-10,cs),
(305,-10,o),
(367,11,o),
(400,60,c),
(400,27,ls),
(400,14,o),
(409,3,o),
(421,0,c),
(418,-15,o),
(416,-32,o),
(416,-49,cs),
(416,-144,o),
(467,-220,o),
(588,-220,cs)
);
}
);
width = 674;
}
);
unicode = 371;
userData = {
com.typemytype.robofont.guides = (
{
angle = 0;
isGlobal = 0;
magnetic = 5;
x = 0;
y = 213;
},
{
angle = 90;
isGlobal = 0;
magnetic = 5;
x = 493;
y = 0;
}
);
};
},
{
color = 6;
glyphname = v;
layers = (
{
anchors = (
{
name = bottom;
pos = (315,0);
},
{
name = top;
pos = (315,520);
}
);
layerId = "EC64484B-0978-4CB1-9EE9-C40A2D8C4059";
shapes = (
{
closed = 1;
nodes = (
(395,0,ls),
(415,0,o),
(422,13,o),
(428,25,c),
(620,489,ls),
(621,492,o),
(621,494,o),
(621,496,cs),
(621,509,o),
(610,520,o),
(597,520,cs),
(428,520,ls),
(408,520,o),
(399,507,o),
(395,496,cs),
(315,263,l),
(235,496,ls),
(231,507,o),
(222,520,o),
(202,520,cs),
(33,520,ls),
(20,520,o),
(9,509,o),
(9,496,cs),
(9,494,o),
(9,492,o),
(10,489,cs),
(202,25,l),
(208,13,o),
(215,0,o),
(235,0,cs)
);
}
);
width = 630;
}
);
unicode = 118;
userData = {
com.typemytype.robofont.guides = (
{
angle = 90;
isGlobal = 0;
magnetic = 5;
x = 267;
y = 0;
}
);
};
},
{
color = 6;
glyphname = w;
kernLeft = w;
kernRight = w;
layers = (
{
anchors = (
{
name = bottom;
pos = (435,0);
},
{
name = top;
pos = (435,520);
}
);
layerId = "EC64484B-0978-4CB1-9EE9-C40A2D8C4059";
shapes = (
{
closed = 1;
nodes = (
(330,0,ls),
(350,0,o),
(359,13,o),
(363,25,cs),
(435,227,l),
(506,25,ls),
(510,13,o),
(519,0,o),
(539,0,cs),
(673,0,ls),
(693,0,o),
(702,13,o),
(706,25,cs),
(852,488,ls),
(853,492,o),
(853,494,o),
(853,496,cs),
(853,509,o),
(842,520,o),
(829,520,cs),
(675,520,ls),
(655,520,o),
(644,507,o),
(641,496,cs),
(580,288,l),
(515,496,ls),
(512,507,o),
(501,520,o),
(481,520,cs),
(388,520,ls),
(368,520,o),
(357,507,o),
(354,496,cs),
(289,288,l),
(228,496,ls),
(225,507,o),
(214,520,o),
(194,520,cs),
(40,520,ls),
(27,520,o),
(16,509,o),
(16,496,cs),
(16,494,o),
(16,492,o),
(17,488,cs),
(163,25,ls),
(167,13,o),
(176,0,o),
(196,0,cs)
);
}
);
width = 869;
}
);
unicode = 119;
userData = {
com.typemytype.robofont.guides = (
{
angle = 90;
isGlobal = 0;
magnetic = 5;
x = 45;
y = 0;
},
{
angle = 90;
isGlobal = 0;
magnetic = 5;
x = 737;
y = 0;
}
);
};
},
{
color = 6;
glyphname = x;
layers = (
{
anchors = (
{
name = bottom;
pos = (315,0);
},
{
name = top;
pos = (315,520);
}
);
layerId = "EC64484B-0978-4CB1-9EE9-C40A2D8C4059";
shapes = (
{
closed = 1;
nodes = (
(215,0,ls),
(233,0,o),
(241,11,o),
(245,17,cs),
(314,114,l),
(380,17,ls),
(385,10,o),
(392,0,o),
(410,0,cs),
(602,0,ls),
(615,0,o),
(626,11,o),
(626,24,cs),
(626,28,o),
(625,33,o),
(622,37,cs),
(457,269,l),
(604,483,ls),
(606,486,o),
(608,490,o),
(608,497,cs),
(608,509,o),
(597,520,o),
(584,520,cs),
(409,520,ls),
(389,520,o),
(381,507,o),
(377,501,cs),
(319,412,l),
(261,501,ls),
(257,507,o),
(249,520,o),
(229,520,cs),
(46,520,ls),
(33,520,o),
(22,509,o),
(22,496,cs),
(22,491,o),
(24,486,o),
(26,483,cs),
(170,268,l),
(8,37,ls),
(5,33,o),
(4,27,o),
(4,24,cs),
(4,11,o),
(15,0,o),
(28,0,cs)
);
}
);
width = 630;
}
);
unicode = 120;
userData = {
com.typemytype.robofont.guides = (
{
angle = 90;
isGlobal = 0;
magnetic = 5;
x = 255;
y = 0;
}
);
};
},
{
color = 6;
glyphname = y;
kernLeft = y;
kernRight = y;
layers = (
{
anchors = (
{
name = bottom;
pos = (318,0);
},
{
name = top;
pos = (323,520);
}
);
layerId = "EC64484B-0978-4CB1-9EE9-C40A2D8C4059";
shapes = (
{
closed = 1;
nodes = (
(312,-190,ls),
(332,-190,o),
(342,-178,o),
(347,-166,cs),
(629,489,l),
(630,493,o),
(630,496,o),
(630,499,cs),
(630,510,o),
(619,520,o),
(607,520,cs),
(440,520,ls),
(420,520,o),
(411,508,o),
(406,496,cs),
(321,268,l),
(239,496,ls),
(235,507,o),
(227,520,o),
(207,520,cs),
(38,520,ls),
(25,520,o),
(15,509,o),
(13,496,cs),
(13,494,o),
(13,492,o),
(14,489,cs),
(207,33,l),
(127,-159,ls),
(125,-163,o),
(126,-166,o),
(126,-169,cs),
(126,-181,o),
(136,-190,o),
(148,-190,cs)
);
}
);
width = 636;
}
);
unicode = 121;
},
{
color = 6;
glyphname = z;
kernLeft = z;
kernRight = z;
layers = (
{
anchors = (
{
name = bottom;
pos = (295,0);
},
{
name = center;
pos = (295,260);
},
{
name = top;
pos = (297,520);
}
);
layerId = "EC64484B-0978-4CB1-9EE9-C40A2D8C4059";
shapes = (
{
closed = 1;
nodes = (
(533,0,ls),
(548,0,o),
(560,12,o),
(560,27,cs),
(560,145,ls),
(560,160,o),
(548,172,o),
(533,172,cs),
(335,172,l),
(525,338,ls),
(534,346,o),
(539,355,o),
(539,367,cs),
(539,493,ls),
(539,508,o),
(527,520,o),
(512,520,cs),
(70,520,ls),
(55,520,o),
(43,508,o),
(43,493,cs),
(43,375,ls),
(43,360,o),
(55,348,o),
(70,348,cs),
(251,348,l),
(52,177,ls),
(43,169,o),
(36,158,o),
(36,142,cs),
(36,27,ls),
(36,12,o),
(48,0,o),
(63,0,cs)
);
}
);
width = 590;
}
);
unicode = 122;
userData = {
com.typemytype.robofont.guides = (
{
angle = 0;
isGlobal = 0;
magnetic = 5;
x = 0;
y = 36;
},
{
angle = 90;
isGlobal = 0;
magnetic = 5;
x = 480;
y = 0;
},
{
angle = 90;
isGlobal = 0;
magnetic = 5;
x = 70;
y = 0;
}
);
};
},
{
color = 6;
glyphname = f_f;
kernLeft = f;
kernRight = f;
layers = (
{
anchors = (
{
name = caret_1;
pos = (452,0);
}
);
layerId = "EC64484B-0978-4CB1-9EE9-C40A2D8C4059";
shapes = (
{
closed = 1;
nodes = (
(313,0,l),
(328,0,o),
(340,12,o),
(340,27,c),
(340,345,l),
(523,345,l),
(523,27,l),
(523,12,o),
(535,0,o),
(550,0,c),
(725,0,l),
(740,0,o),
(752,12,o),
(752,27,c),
(752,345,l),
(866,345,l),
(881,345,o),
(893,357,o),
(893,372,c),
(893,493,l),
(893,508,o),
(881,520,o),
(866,520,c),
(752,520,l),
(752,532,l),
(752,553,o),
(765,565,o),
(795,565,c),
(876,565,l),
(891,565,o),
(903,577,o),
(903,592,c),
(903,713,l),
(903,728,o),
(891,740,o),
(876,740,c),
(783,740,l),
(638,740,o),
(523,701,o),
(523,537,c),
(523,520,l),
(340,520,l),
(340,532,l),
(340,553,o),
(353,565,o),
(383,565,c),
(464,565,l),
(479,565,o),
(491,577,o),
(491,592,c),
(491,713,l),
(491,728,o),
(479,740,o),
(464,740,c),
(371,740,l),
(226,740,o),
(111,701,o),
(111,537,c),
(111,520,l),
(42,520,l),
(27,520,o),
(15,508,o),
(15,493,c),
(15,372,l),
(15,357,o),
(27,345,o),
(42,345,c),
(111,345,l),
(111,27,l),
(111,12,o),
(123,0,o),
(138,0,c)
);
}
);
width = 904;
}
);
userData = {
com.typemytype.robofont.guides = (
{
angle = 0;
isGlobal = 0;
magnetic = 5;
x = 0;
y = 345;
},
{
angle = 0;
isGlobal = 0;
magnetic = 5;
x = 0;
y = 9;
},
{
angle = 0;
isGlobal = 0;
magnetic = 5;
x = 0;
y = 740;
},
{
angle = 90;
isGlobal = 0;
magnetic = 5;
x = 297;
y = 0;
},
{
angle = 90;
isGlobal = 0;
magnetic = 5;
x = 371;
y = 0;
}
);
};
},
{
color = 6;
glyphname = f_f_i;
kernLeft = f;
kernRight = i;
layers = (
{
anchors = (
{
name = caret_1;
pos = (399,0);
},
{
name = caret_2;
pos = (798,0);
}
);
layerId = "EC64484B-0978-4CB1-9EE9-C40A2D8C4059";
shapes = (
{
closed = 1;
nodes = (
(313,0,l),
(328,0,o),
(340,12,o),
(340,27,c),
(340,345,l),
(523,345,l),
(523,27,l),
(523,12,o),
(535,0,o),
(550,0,c),
(725,0,l),
(740,0,o),
(752,12,o),
(752,27,c),
(752,345,l),
(923,345,l),
(923,27,l),
(923,12,o),
(935,0,o),
(950,0,c),
(1125,0,l),
(1140,0,o),
(1152,12,o),
(1152,27,c),
(1152,493,l),
(1152,508,o),
(1140,520,o),
(1125,520,c),
(752,520,l),
(752,532,l),
(752,553,o),
(765,565,o),
(795,565,c),
(1125,565,l),
(1140,565,o),
(1152,577,o),
(1152,592,c),
(1152,713,l),
(1152,728,o),
(1140,740,o),
(1125,740,c),
(783,740,l),
(638,740,o),
(523,701,o),
(523,537,c),
(523,520,l),
(340,520,l),
(340,532,l),
(340,553,o),
(353,565,o),
(383,565,c),
(464,565,l),
(479,565,o),
(491,577,o),
(491,592,c),
(491,713,l),
(491,728,o),
(479,740,o),
(464,740,c),
(371,740,l),
(226,740,o),
(111,701,o),
(111,537,c),
(111,520,l),
(42,520,l),
(27,520,o),
(15,508,o),
(15,493,c),
(15,372,l),
(15,357,o),
(27,345,o),
(42,345,c),
(111,345,l),
(111,27,l),
(111,12,o),
(123,0,o),
(138,0,c)
);
}
);
width = 1197;
}
);
userData = {
com.typemytype.robofont.guides = (
{
angle = 90;
isGlobal = 0;
magnetic = 5;
x = 712;
y = 0;
}
);
};
},
{
color = 6;
glyphname = f_f_l;
kernLeft = f;
kernRight = l;
layers = (
{
anchors = (
{
name = caret_1;
pos = (403,0);
},
{
name = caret_2;
pos = (806,0);
}
);
layerId = "EC64484B-0978-4CB1-9EE9-C40A2D8C4059";
shapes = (
{
closed = 1;
nodes = (
(313,0,l),
(328,0,o),
(340,12,o),
(340,27,c),
(340,345,l),
(523,345,l),
(523,27,l),
(523,12,o),
(535,0,o),
(550,0,c),
(725,0,l),
(740,0,o),
(752,12,o),
(752,27,c),
(752,345,l),
(935,345,l),
(935,27,l),
(935,12,o),
(947,0,o),
(962,0,c),
(1137,0,l),
(1152,0,o),
(1164,12,o),
(1164,27,c),
(1164,713,l),
(1164,728,o),
(1152,740,o),
(1137,740,c),
(962,740,l),
(947,740,o),
(935,728,o),
(935,713,c),
(935,520,l),
(752,520,l),
(752,532,l),
(752,553,o),
(765,565,o),
(795,565,c),
(856,565,l),
(871,565,o),
(883,577,o),
(883,592,c),
(883,713,l),
(883,728,o),
(871,740,o),
(856,740,c),
(783,740,l),
(638,740,o),
(523,701,o),
(523,537,c),
(523,520,l),
(340,520,l),
(340,532,l),
(340,553,o),
(353,565,o),
(383,565,c),
(464,565,l),
(479,565,o),
(491,577,o),
(491,592,c),
(491,713,l),
(491,728,o),
(479,740,o),
(464,740,c),
(371,740,l),
(226,740,o),
(111,701,o),
(111,537,c),
(111,520,l),
(42,520,l),
(27,520,o),
(15,508,o),
(15,493,c),
(15,372,l),
(15,357,o),
(27,345,o),
(42,345,c),
(111,345,l),
(111,27,l),
(111,12,o),
(123,0,o),
(138,0,c)
);
}
);
width = 1209;
}
);
},
{
color = 6;
glyphname = fi;
kernLeft = f;
kernRight = i;
layers = (
{
anchors = (
{
name = caret_1;
pos = (392.5,0);
}
);
layerId = "EC64484B-0978-4CB1-9EE9-C40A2D8C4059";
shapes = (
{
closed = 1;
nodes = (
(313,0,ls),
(328,0,o),
(340,12,o),
(340,27,cs),
(340,345,l),
(511,345,l),
(511,27,ls),
(511,12,o),
(523,0,o),
(538,0,cs),
(713,0,ls),
(728,0,o),
(740,12,o),
(740,27,cs),
(740,493,ls),
(740,508,o),
(728,520,o),
(713,520,cs),
(340,520,l),
(340,532,ls),
(340,553,o),
(353,565,o),
(383,565,cs),
(713,565,ls),
(728,565,o),
(740,577,o),
(740,592,cs),
(740,713,ls),
(740,728,o),
(728,740,o),
(713,740,cs),
(371,740,ls),
(226,740,o),
(111,701,o),
(111,537,cs),
(111,520,l),
(42,520,ls),
(27,520,o),
(15,508,o),
(15,493,cs),
(15,372,ls),
(15,357,o),
(27,345,o),
(42,345,cs),
(111,345,l),
(111,27,ls),
(111,12,o),
(123,0,o),
(138,0,cs)
);
}
);
width = 785;
}
);
unicode = 64257;
userData = {
com.typemytype.robofont.guides = (
{
angle = 90;
isGlobal = 0;
magnetic = 5;
x = 430;
y = 0;
},
{
angle = 90;
isGlobal = 0;
magnetic = 5;
x = 35;
y = 0;
}
);
};
},
{
color = 6;
glyphname = fl;
kernLeft = f;
kernRight = l;
layers = (
{
anchors = (
{
name = caret_1;
pos = (398.5,0);
}
);
layerId = "EC64484B-0978-4CB1-9EE9-C40A2D8C4059";
shapes = (
{
closed = 1;
nodes = (
(313,0,ls),
(328,0,o),
(340,12,o),
(340,27,cs),
(340,345,l),
(523,345,l),
(523,27,ls),
(523,12,o),
(535,0,o),
(550,0,cs),
(725,0,ls),
(740,0,o),
(752,12,o),
(752,27,cs),
(752,713,ls),
(752,728,o),
(740,740,o),
(725,740,cs),
(550,740,ls),
(535,740,o),
(523,728,o),
(523,713,cs),
(523,520,l),
(340,520,l),
(340,532,ls),
(340,553,o),
(353,565,o),
(383,565,cs),
(444,565,ls),
(459,565,o),
(471,577,o),
(471,592,cs),
(471,713,ls),
(471,728,o),
(459,740,o),
(444,740,cs),
(371,740,ls),
(226,740,o),
(111,701,o),
(111,537,cs),
(111,520,l),
(42,520,ls),
(27,520,o),
(15,508,o),
(15,493,cs),
(15,372,ls),
(15,357,o),
(27,345,o),
(42,345,cs),
(111,345,l),
(111,27,ls),
(111,12,o),
(123,0,o),
(138,0,cs)
);
}
);
width = 797;
}
);
unicode = 64258;
userData = {
com.typemytype.robofont.guides = (
{
angle = 90;
isGlobal = 0;
magnetic = 5;
x = 35;
y = 0;
}
);
};
},
{
color = 6;
glyphname = ordfeminine;
layers = (
{
layerId = "EC64484B-0978-4CB1-9EE9-C40A2D8C4059";
shapes = (
{
closed = 1;
nodes = (
(153,429,o),
(180,441,o),
(194,462,c),
(194,448,ls),
(194,441,o),
(201,434,o),
(209,434,cs),
(298,434,ls),
(306,434,o),
(312,441,o),
(312,448,cs),
(312,594,ls),
(312,670,o),
(268,705,o),
(175,705,cs),
(79,705,o),
(43,655,o),
(41,629,cs),
(40,622,o),
(45,617,o),
(51,617,cs),
(138,617,ls),
(155,617,o),
(156,633,o),
(173,633,cs),
(188,633,o),
(189,626,o),
(189,607,c),
(135,598,ls),
(66,586,o),
(22,560,o),
(22,510,cs),
(22,464,o),
(63,429,o),
(122,429,cs)
);
},
{
closed = 1;
nodes = (
(145,505,o),
(137,510,o),
(137,518,cs),
(137,525,o),
(143,532,o),
(161,537,cs),
(189,544,l),
(189,516,o),
(177,505,o),
(157,505,cs)
);
}
);
width = 351;
}
);
unicode = 170;
},
{
color = 6;
glyphname = ordmasculine;
layers = (
{
layerId = "EC64484B-0978-4CB1-9EE9-C40A2D8C4059";
shapes = (
{
closed = 1;
nodes = (
(274,429,o),
(320,470,o),
(324,540,cs),
(325,550,o),
(325,584,o),
(324,594,cs),
(320,664,o),
(268,705,o),
(175,705,cs),
(82,705,o),
(30,664,o),
(26,594,cs),
(25,584,o),
(25,550,o),
(26,540,cs),
(30,470,o),
(76,429,o),
(175,429,cs)
);
},
{
closed = 1;
nodes = (
(158,511,o),
(154,517,o),
(152,545,cs),
(151,555,o),
(151,579,o),
(152,589,cs),
(153,614,o),
(158,623,o),
(175,623,cs),
(192,623,o),
(197,614,o),
(198,589,cs),
(199,579,o),
(199,555,o),
(198,545,cs),
(196,517,o),
(192,511,o),
(175,511,cs)
);
}
);
width = 350;
}
);
unicode = 186;
userData = {
com.typemytype.robofont.guides = (
{
angle = 0;
isGlobal = 0;
magnetic = 5;
x = 0;
y = 589;
},
{
angle = 0;
isGlobal = 0;
magnetic = 5;
x = 0;
y = 545;
},
{
angle = 0;
isGlobal = 0;
magnetic = 5;
x = 0;
y = 429;
},
{
angle = 0;
isGlobal = 0;
magnetic = 5;
x = 0;
y = 705;
},
{
angle = 90;
isGlobal = 0;
magnetic = 5;
x = 134;
y = 0;
}
);
};
},
{
color = 6;
glyphname = "Be-cy";
kernLeft = afii10026;
layers = (
{
layerId = "EC64484B-0978-4CB1-9EE9-C40A2D8C4059";
shapes = (
{
closed = 1;
nodes = (
(395,0,ls),
(575,0,o),
(681,85,o),
(681,226,cs),
(681,365,o),
(570,447,o),
(395,447,cs),
(305,447,l),
(305,495,l),
(600,495,ls),
(615,495,o),
(627,507,o),
(627,522,cs),
(627,673,ls),
(627,688,o),
(615,700,o),
(600,700,cs),
(82,700,ls),
(67,700,o),
(55,688,o),
(55,673,cs),
(55,27,ls),
(55,12,o),
(67,0,o),
(82,0,cs)
);
},
{
closed = 1;
nodes = (
(305,280,l),
(375,280,ls),
(403,280,o),
(421,253,o),
(421,226,cs),
(421,199,o),
(406,172,o),
(375,172,cs),
(305,172,l)
);
}
);
width = 672;
}
);
unicode = 1041;
userData = {
com.typemytype.robofont.guides = (
{
angle = 0;
isGlobal = 0;
magnetic = 5;
x = 0;
y = 280;
},
{
angle = 0;
isGlobal = 0;
magnetic = 5;
x = 0;
y = 447;
},
{
angle = 90;
isGlobal = 0;
magnetic = 5;
x = 516;
y = 0;
}
);
};
},
{
color = 6;
glyphname = "Ge-cy";
kernLeft = afii10026;
kernRight = afii10020;
layers = (
{
anchors = (
{
name = bottomright;
pos = (174,0);
},
{
name = top;
pos = (350,700);
}
);
layerId = "EC64484B-0978-4CB1-9EE9-C40A2D8C4059";
shapes = (
{
closed = 1;
nodes = (
(278,0,ls),
(293,0,o),
(305,12,o),
(305,27,cs),
(305,495,l),
(552,495,ls),
(567,495,o),
(579,507,o),
(579,522,cs),
(579,673,ls),
(579,688,o),
(567,700,o),
(552,700,cs),
(82,700,ls),
(67,700,o),
(55,688,o),
(55,673,cs),
(55,27,ls),
(55,12,o),
(67,0,o),
(82,0,cs)
);
}
);
width = 599;
}
);
unicode = 1043;
userData = {
com.typemytype.robofont.guides = (
{
angle = 90;
isGlobal = 0;
magnetic = 5;
x = 516;
y = 0;
}
);
};
},
{
color = 6;
glyphname = "Gheupturn-cy";
layers = (
{
layerId = "EC64484B-0978-4CB1-9EE9-C40A2D8C4059";
shapes = (
{
closed = 1;
nodes = (
(278,0,ls),
(293,0,o),
(305,12,o),
(305,27,cs),
(305,495,l),
(552,495,ls),
(567,495,o),
(579,507,o),
(579,522,cs),
(579,813,ls),
(579,828,o),
(567,840,o),
(552,840,cs),
(356,840,ls),
(341,840,o),
(329,828,o),
(329,813,cs),
(329,700,l),
(82,700,ls),
(67,700,o),
(55,688,o),
(55,673,cs),
(55,27,ls),
(55,12,o),
(67,0,o),
(82,0,cs)
);
}
);
width = 599;
}
);
metricLeft = "En-cy";
metricRight = "Ge-cy";
unicode = 1168;
},
{
color = 6;
glyphname = "Ghestroke-cy";
layers = (
{
layerId = "EC64484B-0978-4CB1-9EE9-C40A2D8C4059";
shapes = (
{
closed = 1;
nodes = (
(268,0,ls),
(283,0,o),
(295,12,o),
(295,27,cs),
(295,495,l),
(552,495,ls),
(567,495,o),
(579,507,o),
(579,522,cs),
(579,673,ls),
(579,688,o),
(567,700,o),
(552,700,cs),
(82,700,ls),
(67,700,o),
(55,688,o),
(55,673,cs),
(55,27,ls),
(55,12,o),
(67,0,o),
(82,0,cs)
);
},
{
closed = 1;
nodes = (
(385,269,ls),
(400,269,o),
(412,281,o),
(412,296,cs),
(412,364,ls),
(412,379,o),
(400,391,o),
(385,391,cs),
(10,391,ls),
(-5,391,o),
(-17,379,o),
(-17,364,cs),
(-17,296,ls),
(-17,281,o),
(-5,269,o),
(10,269,cs)
);
}
);
width = 599;
}
);
unicode = 1170;
},
{
color = 6;
glyphname = "Ghemiddlehook-cy";
layers = (
{
layerId = "EC64484B-0978-4CB1-9EE9-C40A2D8C4059";
shapes = (
{
closed = 1;
nodes = (
(278,0,ls),
(293,0,o),
(305,12,o),
(305,27,cs),
(305,495,l),
(552,495,ls),
(567,495,o),
(579,507,o),
(579,522,cs),
(579,673,ls),
(579,688,o),
(567,700,o),
(552,700,cs),
(82,700,ls),
(67,700,o),
(55,688,o),
(55,673,cs),
(55,27,ls),
(55,12,o),
(67,0,o),
(82,0,cs)
);
},
{
closed = 1;
nodes = (
(381,-90,ls),
(570,-90,o),
(688,-27,o),
(688,128,cs),
(688,153,ls),
(688,317,o),
(609,397,o),
(435,397,cs),
(378,397,o),
(327,382,o),
(294,362,c),
(305,149,l),
(305,179,o),
(325,189,o),
(371,189,cs),
(418,189,o),
(438,172,o),
(438,132,cs),
(438,129,ls),
(438,105,o),
(424,90,o),
(381,90,cs),
(371,90,ls),
(356,90,o),
(344,78,o),
(344,63,cs),
(344,-63,ls),
(344,-78,o),
(356,-90,o),
(371,-90,cs)
);
}
);
width = 718;
}
);
metricLeft = "En-cy";
metricRight = "Dje-cy";
unicode = 1172;
},
{
color = 6;
glyphname = "De-cy";
layers = (
{
layerId = "EC64484B-0978-4CB1-9EE9-C40A2D8C4059";
shapes = (
{
closed = 1;
nodes = (
(258,-140,ls),
(273,-140,o),
(285,-128,o),
(285,-113,cs),
(285,0,l),
(565,0,l),
(565,-113,ls),
(565,-128,o),
(577,-140,o),
(592,-140,cs),
(788,-140,ls),
(803,-140,o),
(815,-128,o),
(815,-113,cs),
(815,193,ls),
(815,208,o),
(803,220,o),
(788,220,cs),
(743,220,l),
(743,673,ls),
(743,688,o),
(731,700,o),
(716,700,cs),
(178,700,ls),
(163,700,o),
(151,688,o),
(151,673,cs),
(151,481,ls),
(151,363,o),
(143,220,o),
(77,220,cs),
(62,220,ls),
(47,220,o),
(35,208,o),
(35,193,cs),
(35,-113,ls),
(35,-129,o),
(47,-140,o),
(62,-140,cs)
);
},
{
closed = 1;
nodes = (
(381,274,o),
(391,350,o),
(391,449,cs),
(391,480,l),
(493,480,l),
(493,220,l),
(362,220,l)
);
}
);
width = 845;
}
);
metricRight = "Tse-cy";
unicode = 1044;
userData = {
com.typemytype.robofont.guides = (
{
angle = 0;
isGlobal = 0;
magnetic = 5;
x = 0;
y = "-110";
}
);
};
},
{
color = 6;
glyphname = "Zhe-cy";
layers = (
{
anchors = (
{
name = bottomright;
pos = (954,0);
},
{
name = top;
pos = (568,700);
}
);
layerId = "EC64484B-0978-4CB1-9EE9-C40A2D8C4059";
shapes = (
{
closed = 1;
nodes = (
(260,0,ls),
(287,0,o),
(297,17,o),
(301,23,cs),
(424,243,l),
(448,243,l),
(448,27,ls),
(448,11,o),
(460,0,o),
(475,0,cs),
(661,0,ls),
(676,0,o),
(688,11,o),
(688,27,cs),
(688,243,l),
(712,243,l),
(835,23,ls),
(839,17,o),
(849,0,o),
(876,0,cs),
(1104,0,ls),
(1116,0,o),
(1126,10,o),
(1126,22,cs),
(1126,25,o),
(1125,30,o),
(1123,33,cs),
(926,365,l),
(1106,667,ls),
(1108,670,o),
(1109,674,o),
(1109,678,cs),
(1109,690,o),
(1099,700,o),
(1087,700,cs),
(866,700,ls),
(844,700,o),
(832,689,o),
(826,678,cs),
(704,463,l),
(688,463,l),
(688,673,ls),
(688,688,o),
(676,700,o),
(661,700,cs),
(475,700,ls),
(460,700,o),
(448,688,o),
(448,673,cs),
(448,463,l),
(432,463,l),
(310,678,ls),
(304,689,o),
(292,700,o),
(270,700,cs),
(49,700,ls),
(37,700,o),
(27,690,o),
(27,678,cs),
(27,674,o),
(28,670,o),
(30,667,cs),
(210,365,l),
(13,33,ls),
(11,30,o),
(10,25,o),
(10,22,cs),
(10,10,o),
(20,0,o),
(32,0,cs)
);
}
);
width = 1136;
}
);
metricLeft = "=|Ka-cy";
metricRight = "Ka-cy";
unicode = 1046;
},
{
color = 6;
glyphname = "Ze-cy";
layers = (
{
anchors = (
{
name = bottom;
pos = (358,0);
},
{
name = top;
pos = (358,700);
}
);
layerId = "EC64484B-0978-4CB1-9EE9-C40A2D8C4059";
shapes = (
{
closed = 1;
nodes = (
(562,-10,o),
(687,77,o),
(687,209,cs),
(687,260,o),
(668,330,o),
(590,368,c),
(655,403,o),
(668,460,o),
(668,501,cs),
(668,618,o),
(541,710,o),
(360,710,cs),
(119,710,o),
(50,589,o),
(40,501,cs),
(39,489,o),
(50,479,o),
(62,479,cs),
(260,479,ls),
(278,479,o),
(284,484,o),
(292,495,cs),
(297,502,o),
(314,515,o),
(354,515,cs),
(400,515,o),
(412,496,o),
(412,474,cs),
(412,448,o),
(390,438,o),
(357,438,cs),
(282,438,ls),
(267,438,o),
(255,424,o),
(255,409,cs),
(255,289,ls),
(255,274,o),
(267,260,o),
(282,260,cs),
(357,260,ls),
(404,260,o),
(427,249,o),
(427,221,cs),
(427,196,o),
(407,183,o),
(354,183,cs),
(318,183,o),
(300,190,o),
(287,203,cs),
(278,212,o),
(271,219,o),
(253,219,cs),
(57,219,ls),
(45,219,o),
(34,209,o),
(35,197,cs),
(45,108,o),
(119,-10,o),
(360,-10,cs)
);
}
);
width = 715;
}
);
metricRight = "Ve-cy";
unicode = 1047;
userData = {
com.typemytype.robofont.guides = (
{
angle = 0;
isGlobal = 0;
magnetic = 5;
x = 0;
y = "-10";
},
{
angle = 0;
isGlobal = 0;
magnetic = 5;
x = 0;
y = 180;
},
{
angle = 90;
isGlobal = 0;
magnetic = 5;
x = 61;
y = 0;
},
{
angle = 90;
isGlobal = 0;
magnetic = 5;
x = 309;
y = 0;
}
);
};
},
{
color = 6;
glyphname = "Ii-cy";
kernLeft = afii10026;
kernRight = afii10026;
layers = (
{
anchors = (
{
name = bottomright;
pos = (790,0);
},
{
name = top;
pos = (415,700);
}
);
layerId = "EC64484B-0978-4CB1-9EE9-C40A2D8C4059";
shapes = (
{
closed = 1;
nodes = (
(255,0,ls),
(278,0,o),
(288,11,o),
(296,23,c),
(505,308,l),
(505,27,ls),
(505,12,o),
(517,0,o),
(532,0,cs),
(728,0,ls),
(743,0,o),
(755,12,o),
(755,27,cs),
(755,673,ls),
(755,688,o),
(743,700,o),
(728,700,cs),
(555,700,ls),
(536,700,o),
(523,692,o),
(514,677,c),
(305,370,l),
(305,673,ls),
(305,688,o),
(293,700,o),
(278,700,cs),
(82,700,ls),
(67,700,o),
(55,688,o),
(55,673,cs),
(55,27,ls),
(55,12,o),
(67,0,o),
(82,0,cs)
);
}
);
width = 810;
}
);
metricLeft = "En-cy";
metricRight = "En-cy";
unicode = 1048;
},
{
color = 6;
glyphname = "Ka-cy";
kernLeft = afii10026;
kernRight = afii10028;
layers = (
{
anchors = (
{
name = bottomright;
pos = (563,0);
},
{
name = top;
pos = (365,700);
}
);
layerId = "EC64484B-0978-4CB1-9EE9-C40A2D8C4059";
shapes = (
{
closed = 1;
nodes = (
(278,0,ls),
(293,0,o),
(305,12,o),
(305,27,cs),
(305,243,l),
(329,243,l),
(452,23,ls),
(456,17,o),
(466,0,o),
(493,0,cs),
(721,0,ls),
(733,0,o),
(743,10,o),
(743,22,cs),
(743,25,o),
(742,30,o),
(740,33,cs),
(543,365,l),
(723,667,ls),
(725,670,o),
(726,674,o),
(726,678,cs),
(726,690,o),
(716,700,o),
(704,700,cs),
(483,700,ls),
(461,700,o),
(449,689,o),
(443,678,cs),
(321,463,l),
(305,463,l),
(305,673,ls),
(305,688,o),
(293,700,o),
(278,700,cs),
(82,700,ls),
(67,700,o),
(55,688,o),
(55,673,cs),
(55,27,ls),
(55,11,o),
(67,0,o),
(82,0,cs)
);
}
);
width = 753;
},
{
anchors = (
{
name = bottomright;
pos = (695,0);
},
{
name = top;
pos = (358,700);
}
);
associatedMasterId = "EC64484B-0978-4CB1-9EE9-C40A2D8C4059";
background = {
anchors = (
{
name = bottomright;
pos = (695,0);
},
{
name = top;
pos = (358,700);
}
);
shapes = (
{
closed = 1;
nodes = (
(701,0,ls),
(713,0,o),
(723,10,o),
(723,22,cs),
(723,25,o),
(722,30,o),
(720,33,c),
(618,302,ls),
(576,413,o),
(515,463,o),
(424,463,cs),
(292,463,l),
(292,248,l),
(339,248,ls),
(363,248,o),
(378,233,o),
(391,200,cs),
(457,23,ls),
(463,7,o),
(472,0,o),
(498,0,cs)
);
},
{
closed = 1;
nodes = (
(278,0,ls),
(293,0,o),
(305,12,o),
(305,27,cs),
(305,673,ls),
(305,688,o),
(293,700,o),
(278,700,cs),
(82,700,ls),
(67,700,o),
(55,688,o),
(55,673,cs),
(55,27,ls),
(55,12,o),
(67,0,o),
(82,0,cs)
);
},
{
closed = 1;
nodes = (
(567,335,l),
(695,667,ls),
(702,685,o),
(697,700,o),
(676,700,cs),
(473,700,ls),
(451,700,o),
(438,693,o),
(433,678,cs),
(311,335,l)
);
}
);
};
color = 6;
layerId = "D8C7E40E-65C5-412D-93E0-7B6E51038BD5";
name = "Sep 1 16, 19:04";
shapes = (
{
closed = 1;
nodes = (
(278,0,ls),
(293,0,o),
(305,12,o),
(305,27,cs),
(305,248,l),
(339,248,ls),
(363,248,o),
(378,233,o),
(391,200,cs),
(457,23,ls),
(464,6,o),
(473,0,o),
(498,0,cs),
(701,0,ls),
(718,0,o),
(726,18,o),
(720,33,cs),
(618,302,ls),
(606,333,o),
(594,357,o),
(582,375,c),
(695,667,ls),
(697,672,o),
(698,677,o),
(698,681,cs),
(698,693,o),
(691,700,o),
(676,700,cs),
(473,700,ls),
(451,700,o),
(438,693,o),
(433,678,cs),
(357,463,l),
(305,463,l),
(305,673,ls),
(305,688,o),
(293,700,o),
(278,700,cs),
(82,700,ls),
(67,700,o),
(55,688,o),
(55,673,cs),
(55,27,ls),
(55,12,o),
(67,0,o),
(82,0,cs)
);
}
);
width = 715;
}
);
metricLeft = "En-cy";
unicode = 1050;
},
{
color = 6;
glyphname = "El-cy";
kernLeft = afii10029;
kernRight = afii10026;
layers = (
{
layerId = "EC64484B-0978-4CB1-9EE9-C40A2D8C4059";
shapes = (
{
closed = 1;
nodes = (
(340,0,o),
(376,127,o),
(376,449,cs),
(376,480,l),
(508,480,l),
(508,27,ls),
(508,12,o),
(520,0,o),
(535,0,cs),
(731,0,ls),
(746,0,o),
(758,12,o),
(758,27,cs),
(758,673,ls),
(758,688,o),
(746,700,o),
(731,700,cs),
(163,700,ls),
(148,700,o),
(136,688,o),
(136,673,cs),
(136,481,ls),
(136,357,o),
(130,225,o),
(62,212,cs),
(46,209,o),
(35,200,o),
(35,185,cs),
(35,27,ls),
(35,12,o),
(48,0,o),
(63,0,cs)
);
}
);
width = 813;
}
);
metricRight = "En-cy";
unicode = 1051;
userData = {
com.typemytype.robofont.guides = (
{
angle = 0;
isGlobal = 0;
magnetic = 5;
x = 0;
y = "-10";
}
);
};
},
{
color = 6;
glyphname = "Pe-cy";
kernLeft = afii10026;
kernRight = afii10026;
layers = (
{
anchors = (
{
name = bottomright;
pos = (585,0);
}
);
layerId = "EC64484B-0978-4CB1-9EE9-C40A2D8C4059";
shapes = (
{
closed = 1;
nodes = (
(278,0,ls),
(293,0,o),
(305,12,o),
(305,27,cs),
(305,480,l),
(467,480,l),
(467,27,ls),
(467,12,o),
(479,0,o),
(494,0,cs),
(690,0,ls),
(705,0,o),
(717,12,o),
(717,27,cs),
(717,673,ls),
(717,688,o),
(705,700,o),
(690,700,cs),
(82,700,ls),
(67,700,o),
(55,688,o),
(55,673,cs),
(55,27,ls),
(55,11,o),
(67,0,o),
(82,0,cs)
);
}
);
width = 772;
}
);
unicode = 1055;
userData = {
com.typemytype.robofont.guides = (
{
angle = 90;
isGlobal = 0;
magnetic = 5;
x = 85;
y = 0;
}
);
};
},
{
color = 6;
glyphname = "U-cy";
kernLeft = afii10037;
kernRight = afii10037;
layers = (
{
anchors = (
{
name = top;
pos = (369,700);
}
);
layerId = "EC64484B-0978-4CB1-9EE9-C40A2D8C4059";
shapes = (
{
closed = 1;
nodes = (
(210,0,ls),
(380,0,o),
(434,44,o),
(503,204,cs),
(697,656,ls),
(700,663,o),
(703,672,o),
(703,679,cs),
(703,690,o),
(693,700,o),
(680,700,cs),
(483,700,ls),
(467,700,o),
(456,692,o),
(449,676,cs),
(270,267,ls),
(253,229,o),
(230,214,o),
(186,214,cs),
(145,214,ls),
(130,214,o),
(118,202,o),
(118,187,cs),
(118,27,ls),
(118,12,o),
(130,0,o),
(145,0,cs)
);
},
{
closed = 1;
nodes = (
(386,429,l),
(272,676,ls),
(265,691,o),
(257,700,o),
(240,700,cs),
(31,700,ls),
(17,700,o),
(5,688,o),
(5,676,cs),
(5,674,o),
(6,671,o),
(7,669,cs),
(260,188,l)
);
}
);
width = 701;
}
);
unicode = 1059;
userData = {
com.typemytype.robofont.guides = (
{
angle = 90;
isGlobal = 0;
magnetic = 5;
x = 4678;
y = 0;
},
{
angle = 90;
isGlobal = 0;
magnetic = 5;
x = 6607;
y = 0;
},
{
angle = 90;
isGlobal = 0;
magnetic = 5;
x = 6901;
y = 0;
}
);
};
},
{
color = 6;
glyphname = "Ef-cy";
layers = (
{
layerId = "EC64484B-0978-4CB1-9EE9-C40A2D8C4059";
shapes = (
{
closed = 1;
nodes = (
(593,-32,ls),
(608,-32,o),
(620,-20,o),
(620,-5,cs),
(620,55,l),
(820,55,o),
(942,148,o),
(953,325,cs),
(955,359,o),
(955,369,o),
(953,403,cs),
(944,576,o),
(817,677,o),
(620,677,c),
(620,724,ls),
(620,739,o),
(608,751,o),
(593,751,cs),
(397,751,ls),
(382,751,o),
(370,739,o),
(370,724,cs),
(370,677,l),
(173,677,o),
(46,576,o),
(37,403,c),
(36,394,o),
(36,334,o),
(37,325,c),
(48,148,o),
(170,55,o),
(370,55,c),
(370,-5,ls),
(370,-20,o),
(382,-32,o),
(397,-32,cs)
);
},
{
closed = 1;
nodes = (
(323,250,o),
(299,276,o),
(296,331,cs),
(296,354,o),
(296,378,o),
(296,401,cs),
(299,455,o),
(324,482,o),
(372,482,c),
(372,250,l)
);
},
{
closed = 1;
nodes = (
(618,482,l),
(666,482,o),
(691,455,o),
(694,401,c),
(695,393,o),
(695,340,o),
(694,331,c),
(691,276,o),
(667,250,o),
(618,250,c)
);
}
);
width = 990;
}
);
metricLeft = O;
metricRight = O;
unicode = 1060;
userData = {
com.typemytype.robofont.guides = (
{
angle = 0;
isGlobal = 0;
magnetic = 5;
x = 0;
y = 183;
},
{
angle = 0;
isGlobal = 0;
magnetic = 5;
x = 0;
y = 350;
},
{
angle = 0;
isGlobal = 0;
magnetic = 5;
x = 0;
y = 535;
},
{
angle = 0;
isGlobal = 0;
magnetic = 5;
x = 0;
y = 595;
},
{
angle = 90;
isGlobal = 0;
magnetic = 5;
x = 50;
y = 0;
}
);
};
},
{
color = 6;
glyphname = "Che-cy";
kernRight = afii10026;
layers = (
{
anchors = (
{
name = bottomright;
pos = (535,0);
},
{
name = top;
pos = (349,700);
}
);
layerId = "EC64484B-0978-4CB1-9EE9-C40A2D8C4059";
shapes = (
{
closed = 1;
nodes = (
(646,0,ls),
(661,0,o),
(673,12,o),
(673,27,cs),
(673,673,ls),
(673,688,o),
(661,700,o),
(646,700,cs),
(450,700,ls),
(435,700,o),
(423,688,o),
(423,673,cs),
(423,430,ls),
(423,416,o),
(385,404,o),
(355,404,cs),
(308,404,o),
(288,424,o),
(288,471,cs),
(288,673,ls),
(288,688,o),
(276,700,o),
(261,700,cs),
(65,700,ls),
(50,700,o),
(38,688,o),
(38,673,cs),
(38,461,ls),
(38,265,o),
(125,176,o),
(301,176,cs),
(350,176,o),
(391,186,o),
(423,206,c),
(423,27,ls),
(423,12,o),
(435,0,o),
(450,0,cs)
);
}
);
width = 737;
}
);
unicode = 1063;
userData = {
com.typemytype.robofont.guides = (
{
angle = 0;
isGlobal = 0;
magnetic = 5;
x = 0;
y = 700;
},
{
angle = 0;
isGlobal = 0;
magnetic = 5;
x = 0;
y = 434;
},
{
angle = 0;
isGlobal = 0;
magnetic = 5;
x = 0;
y = 206;
},
{
angle = 0;
isGlobal = 0;
magnetic = 5;
x = 0;
y = 1286;
},
{
angle = 90;
isGlobal = 0;
magnetic = 5;
x = 1609;
y = 0;
},
{
angle = 90;
isGlobal = 0;
magnetic = 5;
x = 50;
y = 0;
}
);
};
},
{
color = 6;
glyphname = "Tse-cy";
kernLeft = afii10026;
kernRight = afii10040;
layers = (
{
layerId = "EC64484B-0978-4CB1-9EE9-C40A2D8C4059";
shapes = (
{
closed = 1;
nodes = (
(762,-140,ls),
(777,-140,o),
(789,-128,o),
(789,-113,cs),
(789,193,ls),
(789,208,o),
(777,220,o),
(762,220,cs),
(717,220,l),
(717,673,ls),
(717,688,o),
(705,700,o),
(690,700,cs),
(494,700,ls),
(479,700,o),
(467,688,o),
(467,673,cs),
(467,220,l),
(305,220,l),
(305,673,ls),
(305,688,o),
(293,700,o),
(278,700,cs),
(82,700,ls),
(67,700,o),
(55,689,o),
(55,673,cs),
(55,27,ls),
(55,12,o),
(67,0,o),
(82,0,cs),
(539,0,l),
(539,-113,ls),
(539,-128,o),
(551,-140,o),
(566,-140,cs)
);
}
);
width = 819;
}
);
metricLeft = "En-cy";
unicode = 1062;
userData = {
com.typemytype.robofont.guides = (
{
angle = 0;
isGlobal = 0;
magnetic = 5;
x = 0;
y = "-110";
},
{
angle = 90;
isGlobal = 0;
magnetic = 5;
x = 85;
y = 0;
}
);
};
},
{
color = 6;
glyphname = "Sha-cy";
kernLeft = afii10026;
kernRight = afii10026;
layers = (
{
layerId = "EC64484B-0978-4CB1-9EE9-C40A2D8C4059";
shapes = (
{
closed = 1;
nodes = (
(931,0,ls),
(946,0,o),
(958,12,o),
(958,27,cs),
(958,673,ls),
(958,688,o),
(946,700,o),
(931,700,cs),
(735,700,ls),
(720,700,o),
(708,688,o),
(708,673,cs),
(708,220,l),
(632,220,l),
(632,673,ls),
(632,688,o),
(620,700,o),
(605,700,cs),
(409,700,ls),
(394,700,o),
(382,688,o),
(382,673,cs),
(382,220,l),
(305,220,l),
(305,673,ls),
(305,688,o),
(293,700,o),
(278,700,cs),
(82,700,ls),
(67,700,o),
(55,689,o),
(55,673,cs),
(55,27,ls),
(55,12,o),
(67,0,o),
(82,0,cs)
);
}
);
width = 1013;
}
);
metricLeft = "En-cy";
metricRight = "En-cy";
unicode = 1064;
userData = {
com.typemytype.robofont.guides = (
{
angle = 90;
isGlobal = 0;
magnetic = 5;
x = 422;
y = 0;
}
);
};
},
{
color = 6;
glyphname = "Shcha-cy";
kernLeft = afii10026;
kernRight = afii10040;
layers = (
{
layerId = "EC64484B-0978-4CB1-9EE9-C40A2D8C4059";
shapes = (
{
closed = 1;
nodes = (
(1003,-140,ls),
(1018,-140,o),
(1030,-128,o),
(1030,-113,cs),
(1030,193,ls),
(1030,208,o),
(1018,220,o),
(1003,220,cs),
(958,220,l),
(958,673,ls),
(958,688,o),
(946,700,o),
(931,700,cs),
(735,700,ls),
(720,700,o),
(708,688,o),
(708,673,cs),
(708,220,l),
(632,220,l),
(632,673,ls),
(632,688,o),
(620,700,o),
(605,700,cs),
(409,700,ls),
(394,700,o),
(382,688,o),
(382,673,cs),
(382,220,l),
(305,220,l),
(305,673,ls),
(305,688,o),
(293,700,o),
(278,700,cs),
(82,700,ls),
(67,700,o),
(55,689,o),
(55,673,cs),
(55,27,ls),
(55,12,o),
(67,0,o),
(82,0,cs),
(780,0,l),
(780,-113,ls),
(780,-128,o),
(792,-140,o),
(807,-140,cs)
);
}
);
width = 1060;
}
);
metricLeft = "En-cy";
metricRight = "Tse-cy";
unicode = 1065;
userData = {
com.typemytype.robofont.guides = (
{
angle = 0;
isGlobal = 0;
magnetic = 5;
x = 0;
y = "-110";
},
{
angle = 0;
isGlobal = 0;
magnetic = 5;
x = 0;
y = 60;
}
);
};
},
{
color = 6;
glyphname = "Dzhe-cy";
kernLeft = afii10026;
kernRight = afii10026;
layers = (
{
layerId = "EC64484B-0978-4CB1-9EE9-C40A2D8C4059";
shapes = (
{
closed = 1;
nodes = (
(484,-140,ls),
(499,-140,o),
(511,-128,o),
(511,-113,cs),
(511,0,l),
(690,0,ls),
(705,0,o),
(717,12,o),
(717,27,cs),
(717,673,ls),
(717,688,o),
(705,700,o),
(690,700,cs),
(494,700,ls),
(479,700,o),
(467,688,o),
(467,673,cs),
(467,220,l),
(305,220,l),
(305,673,ls),
(305,688,o),
(293,700,o),
(278,700,cs),
(82,700,ls),
(67,700,o),
(55,689,o),
(55,673,cs),
(55,27,ls),
(55,12,o),
(67,0,o),
(82,0,cs),
(261,0,l),
(261,-113,ls),
(261,-128,o),
(273,-140,o),
(288,-140,cs)
);
}
);
width = 772;
}
);
metricLeft = "En-cy";
metricRight = "En-cy";
unicode = 1039;
userData = {
com.typemytype.robofont.guides = (
{
angle = 0;
isGlobal = 0;
magnetic = 5;
x = 0;
y = "-110";
},
{
angle = 90;
isGlobal = 0;
magnetic = 5;
x = 1327;
y = 0;
},
{
angle = 90;
isGlobal = 0;
magnetic = 5;
x = 1072;
y = 0;
},
{
angle = 90;
isGlobal = 0;
magnetic = 5;
x = 85;
y = 0;
}
);
};
},
{
color = 6;
glyphname = "Softsign-cy";
kernLeft = afii10026;
kernRight = afii10046;
layers = (
{
layerId = "EC64484B-0978-4CB1-9EE9-C40A2D8C4059";
shapes = (
{
closed = 1;
nodes = (
(370,0,ls),
(562,0,o),
(676,84,o),
(676,245,cs),
(676,406,o),
(563,482,o),
(370,482,cs),
(305,482,l),
(305,673,ls),
(305,688,o),
(293,700,o),
(278,700,cs),
(82,700,ls),
(67,700,o),
(55,688,o),
(55,673,cs),
(55,27,ls),
(55,12,o),
(67,0,o),
(82,0,cs)
);
},
{
closed = 1;
nodes = (
(305,297,l),
(370,297,ls),
(394,297,o),
(416,279,o),
(416,243,cs),
(416,212,o),
(402,186,o),
(370,186,cs),
(305,186,l)
);
}
);
width = 705;
}
);
metricLeft = "En-cy";
unicode = 1068;
},
{
color = 3;
glyphname = "Yeru-cy";
kernLeft = afii10026;
kernRight = afii10026;
layers = (
{
anchors = (
{
name = top;
pos = (524,700);
}
);
layerId = "EC64484B-0978-4CB1-9EE9-C40A2D8C4059";
shapes = (
{
closed = 1;
nodes = (
(370,0,ls),
(562,0,o),
(676,84,o),
(676,245,cs),
(676,406,o),
(563,482,o),
(370,482,cs),
(305,482,l),
(305,673,ls),
(305,688,o),
(293,700,o),
(278,700,cs),
(82,700,ls),
(67,700,o),
(55,688,o),
(55,673,cs),
(55,27,ls),
(55,12,o),
(67,0,o),
(82,0,cs)
);
},
{
closed = 1;
nodes = (
(305,297,l),
(370,297,ls),
(394,297,o),
(416,279,o),
(416,243,cs),
(416,212,o),
(402,186,o),
(370,186,cs),
(305,186,l)
);
},
{
pos = (680,0);
ref = I;
}
);
width = 1048;
}
);
metricLeft = "En-cy";
metricRight = "En-cy";
unicode = 1067;
},
{
color = 6;
glyphname = "Hardsign-cy";
kernRight = afii10046;
layers = (
{
anchors = (
{
name = top;
pos = (404,700);
}
);
layerId = "EC64484B-0978-4CB1-9EE9-C40A2D8C4059";
shapes = (
{
closed = 1;
nodes = (
(472,0,ls),
(664,0,o),
(778,84,o),
(778,245,cs),
(778,406,o),
(665,482,o),
(472,482,cs),
(407,482,l),
(407,673,ls),
(407,688,o),
(395,700,o),
(380,700,cs),
(44,700,ls),
(29,700,o),
(17,688,o),
(17,673,cs),
(17,532,ls),
(17,517,o),
(29,505,o),
(44,505,cs),
(157,505,l),
(157,27,ls),
(157,12,o),
(169,0,o),
(184,0,cs)
);
},
{
closed = 1;
nodes = (
(407,297,l),
(472,297,ls),
(496,297,o),
(518,279,o),
(518,243,cs),
(518,212,o),
(504,186,o),
(472,186,cs),
(407,186,l)
);
}
);
width = 807;
}
);
metricLeft = T;
metricRight = "Softsign-cy";
unicode = 1066;
userData = {
com.typemytype.robofont.guides = (
{
angle = 90;
isGlobal = 0;
magnetic = 5;
x = 160;
y = 0;
},
{
angle = 90;
isGlobal = 0;
magnetic = 5;
x = 41;
y = 0;
}
);
};
},
{
color = 6;
glyphname = "Lje-cy";
kernLeft = afii10029;
kernRight = afii10046;
layers = (
{
layerId = "EC64484B-0978-4CB1-9EE9-C40A2D8C4059";
shapes = (
{
closed = 1;
nodes = (
(340,0,o),
(376,127,o),
(376,449,cs),
(376,480,l),
(508,480,l),
(508,27,ls),
(508,12,o),
(520,0,o),
(535,0,cs),
(823,0,ls),
(1015,0,o),
(1129,84,o),
(1129,245,cs),
(1129,406,o),
(1016,482,o),
(823,482,cs),
(758,482,l),
(758,673,ls),
(758,688,o),
(746,700,o),
(731,700,cs),
(163,700,ls),
(148,700,o),
(136,688,o),
(136,673,cs),
(136,481,ls),
(136,357,o),
(130,225,o),
(62,212,cs),
(46,209,o),
(35,200,o),
(35,185,cs),
(35,27,ls),
(35,12,o),
(48,0,o),
(63,0,cs)
);
},
{
closed = 1;
nodes = (
(758,297,l),
(823,297,ls),
(847,297,o),
(869,279,o),
(869,243,cs),
(869,212,o),
(855,186,o),
(823,186,cs),
(758,186,l)
);
}
);
width = 1158;
}
);
metricLeft = "El-cy";
metricRight = "Softsign-cy";
unicode = 1033;
},
{
color = 6;
glyphname = "Nje-cy";
kernLeft = afii10026;
kernRight = afii10046;
layers = (
{
layerId = "EC64484B-0978-4CB1-9EE9-C40A2D8C4059";
shapes = (
{
closed = 1;
nodes = (
(278,0,ls),
(293,0,o),
(305,12,o),
(305,27,cs),
(305,243,l),
(467,243,l),
(467,27,ls),
(467,12,o),
(479,0,o),
(494,0,cs),
(782,0,ls),
(974,0,o),
(1088,84,o),
(1088,245,cs),
(1088,406,o),
(975,482,o),
(782,482,cs),
(717,482,l),
(717,673,ls),
(717,688,o),
(705,700,o),
(690,700,cs),
(494,700,ls),
(479,700,o),
(467,688,o),
(467,673,cs),
(467,463,l),
(305,463,l),
(305,673,ls),
(305,688,o),
(293,700,o),
(278,700,cs),
(82,700,ls),
(67,700,o),
(55,688,o),
(55,673,cs),
(55,27,ls),
(55,11,o),
(67,0,o),
(82,0,cs)
);
},
{
closed = 1;
nodes = (
(717,297,l),
(782,297,ls),
(806,297,o),
(828,279,o),
(828,243,cs),
(828,212,o),
(814,186,o),
(782,186,cs),
(717,186,l)
);
}
);
width = 1117;
}
);
metricLeft = "En-cy";
metricRight = "Softsign-cy";
unicode = 1034;
},
{
color = 6;
glyphname = "E-cy";
kernLeft = afii10032;
layers = (
{
layerId = "EC64484B-0978-4CB1-9EE9-C40A2D8C4059";
shapes = (
{
closed = 1;
nodes = (
(530,-10,o),
(674,52,o),
(691,197,cs),
(692,209,o),
(681,219,o),
(669,219,cs),
(473,219,ls),
(457,219,o),
(451,215,o),
(439,203,cs),
(426,190,o),
(407,183,o),
(372,183,cs),
(321,183,o),
(291,205,o),
(291,250,c),
(291,260,l),
(444,260,ls),
(459,260,o),
(471,274,o),
(471,289,cs),
(471,409,ls),
(471,424,o),
(459,438,o),
(444,438,cs),
(291,438,l),
(291,448,l),
(291,496,o),
(320,515,o),
(372,515,cs),
(407,515,o),
(427,504,o),
(434,495,cs),
(443,483,o),
(449,479,o),
(466,479,cs),
(664,479,ls),
(676,479,o),
(687,489,o),
(686,501,cs),
(669,644,o),
(538,710,o),
(366,710,cs),
(170,710,o),
(39,618,o),
(31,439,cs),
(30,419,o),
(30,280,o),
(31,261,cs),
(39,77,o),
(165,-10,o),
(366,-10,cs)
);
}
);
width = 728;
}
);
unicode = 1028;
userData = {
com.typemytype.robofont.guides = (
{
angle = 0;
isGlobal = 0;
magnetic = 5;
x = 0;
y = 350;
}
);
};
},
{
color = 6;
glyphname = "Ereversed-cy";
kernRight = afii10032;
layers = (
{
anchors = (
{
name = top;
pos = (367,700);
}
);
layerId = "EC64484B-0978-4CB1-9EE9-C40A2D8C4059";
shapes = (
{
closed = 1;
nodes = (
(561,-10,o),
(687,77,o),
(695,261,cs),
(697,336,o),
(697,364,o),
(695,439,cs),
(687,618,o),
(556,710,o),
(360,710,cs),
(196,710,o),
(57,649,o),
(40,501,cs),
(39,489,o),
(50,479,o),
(62,479,cs),
(260,479,ls),
(277,479,o),
(283,483,o),
(292,495,cs),
(299,504,o),
(319,515,o),
(354,515,cs),
(406,515,o),
(435,494,o),
(435,448,c),
(435,438,l),
(282,438,ls),
(267,438,o),
(255,424,o),
(255,409,cs),
(255,289,ls),
(255,274,o),
(267,260,o),
(282,260,cs),
(435,260,l),
(435,250,l),
(435,205,o),
(405,183,o),
(354,183,cs),
(319,183,o),
(300,190,o),
(287,203,cs),
(276,214,o),
(269,219,o),
(253,219,cs),
(57,219,ls),
(45,219,o),
(34,209,o),
(35,197,cs),
(51,58,o),
(191,-10,o),
(360,-10,cs)
);
}
);
width = 733;
}
);
unicode = 1069;
userData = {
com.typemytype.robofont.guides = (
{
angle = 0;
isGlobal = 0;
magnetic = 5;
x = 0;
y = 541;
},
{
angle = 0;
isGlobal = 0;
magnetic = 5;
x = 0;
y = 159;
},
{
angle = 0;
isGlobal = 0;
magnetic = 5;
x = 0;
y = 350;
},
{
angle = 90;
isGlobal = 0;
magnetic = 5;
x = 204;
y = 0;
},
{
angle = 90;
isGlobal = 0;
magnetic = 5;
x = 296;
y = 0;
}
);
};
},
{
color = 6;
glyphname = "Tshe-cy";
layers = (
{
layerId = "EC64484B-0978-4CB1-9EE9-C40A2D8C4059";
shapes = (
{
closed = 1;
nodes = (
(380,0,ls),
(395,0,o),
(407,12,o),
(407,27,cs),
(407,208,ls),
(407,234,o),
(443,239,o),
(475,239,cs),
(522,239,o),
(542,227,o),
(542,202,cs),
(542,27,ls),
(542,12,o),
(554,0,o),
(569,0,cs),
(765,0,ls),
(780,0,o),
(792,12,o),
(792,27,cs),
(792,223,ls),
(792,388,o),
(712,467,o),
(539,467,cs),
(491,467,o),
(439,453,o),
(407,437,c),
(407,523,l),
(614,523,ls),
(627,523,o),
(637,533,o),
(637,546,cs),
(637,677,ls),
(637,690,o),
(627,700,o),
(614,700,cs),
(40,700,ls),
(27,700,o),
(17,690,o),
(17,677,cs),
(17,546,ls),
(17,533,o),
(27,523,o),
(40,523,cs),
(157,523,l),
(157,27,ls),
(157,12,o),
(169,0,o),
(184,0,cs)
);
}
);
width = 830;
}
);
metricLeft = T;
metricRight = "=|Che-cy";
unicode = 1035;
userData = {
com.typemytype.robofont.guides = (
{
angle = 90;
isGlobal = 0;
magnetic = 5;
x = 50;
y = 0;
},
{
angle = 90;
isGlobal = 0;
magnetic = 5;
x = 413;
y = 0;
}
);
};
},
{
color = 6;
glyphname = "Iu-cy";
kernLeft = afii10026;
kernRight = afii10032;
layers = (
{
anchors = (
{
name = top;
pos = (555,700);
}
);
layerId = "EC64484B-0978-4CB1-9EE9-C40A2D8C4059";
shapes = (
{
closed = 1;
nodes = (
(935,-10,o),
(1065,81,o),
(1073,260,cs),
(1075,314,o),
(1075,379,o),
(1073,436,cs),
(1066,611,o),
(935,710,o),
(739,710,cs),
(556,710,o),
(430,624,o),
(408,471,cs),
(408,469,o),
(407,466,o),
(407,463,c),
(305,463,l),
(305,673,l),
(305,688,o),
(293,700,o),
(278,700,c),
(82,700,l),
(67,700,o),
(55,688,o),
(55,673,c),
(55,27,l),
(55,11,o),
(67,0,o),
(82,0,c),
(278,0,l),
(293,0,o),
(305,12,o),
(305,27,c),
(305,243,l),
(406,243,l),
(406,241,o),
(406,240,o),
(407,238,cs),
(425,73,o),
(551,-10,o),
(739,-10,cs)
);
},
{
closed = 1;
nodes = (
(695,185,o),
(667,210,o),
(665,266,cs),
(663,323,o),
(663,379,o),
(665,434,cs),
(667,490,o),
(696,515,o),
(739,515,cs),
(782,515,o),
(811,490,o),
(813,434,cs),
(815,379,o),
(815,323,o),
(813,266,cs),
(811,210,o),
(783,185,o),
(739,185,cs)
);
}
);
width = 1110;
}
);
unicode = 1070;
userData = {
com.typemytype.robofont.guides = (
{
angle = 0;
isGlobal = 0;
magnetic = 5;
x = 0;
y = 355;
}
);
};
},
{
color = 6;
glyphname = "Ia-cy";
kernRight = afii10026;
layers = (
{
anchors = (
{
name = top;
pos = (369,700);
}
);
layerId = "EC64484B-0978-4CB1-9EE9-C40A2D8C4059";
shapes = (
{
closed = 1;
nodes = (
(655,0,ls),
(670,0,o),
(682,12,o),
(682,27,cs),
(682,673,ls),
(682,688,o),
(670,700,o),
(655,700,cs),
(359,700,ls),
(167,700,o),
(53,609,o),
(53,457,cs),
(53,314,o),
(170,218,o),
(323,218,cs),
(432,218,l),
(432,27,ls),
(432,12,o),
(444,0,o),
(459,0,cs)
);
},
{
closed = 1;
nodes = (
(262,0,ls),
(286,0,o),
(300,14,o),
(305,27,c),
(398,233,l),
(169,275,l),
(38,33,ls),
(36,29,o),
(35,25,o),
(35,22,cs),
(35,10,o),
(45,0,o),
(57,0,cs)
);
},
{
closed = 1;
nodes = (
(330,408,o),
(313,430,o),
(313,459,cs),
(313,488,o),
(328,514,o),
(359,514,cs),
(432,514,l),
(432,408,l),
(359,408,ls)
);
}
);
width = 737;
}
);
metricRight = "En-cy";
unicode = 1071;
},
{
color = 6;
glyphname = "Dje-cy";
layers = (
{
layerId = "EC64484B-0978-4CB1-9EE9-C40A2D8C4059";
shapes = (
{
closed = 1;
nodes = (
(380,0,ls),
(395,0,o),
(407,12,o),
(407,27,cs),
(407,228,l),
(407,244,o),
(423,259,o),
(475,259,cs),
(522,259,o),
(542,248,o),
(542,222,cs),
(542,219,ls),
(542,195,o),
(528,180,o),
(485,180,cs),
(465,180,ls),
(450,180,o),
(438,168,o),
(438,153,cs),
(438,27,ls),
(438,12,o),
(450,0,o),
(465,0,cs),
(485,0,ls),
(674,0,o),
(792,63,o),
(792,218,cs),
(792,243,ls),
(792,407,o),
(713,487,o),
(539,487,cs),
(488,487,o),
(436,472,o),
(407,457,c),
(407,523,l),
(614,523,ls),
(627,523,o),
(637,533,o),
(637,546,cs),
(637,677,ls),
(637,690,o),
(627,700,o),
(614,700,cs),
(40,700,ls),
(27,700,o),
(17,690,o),
(17,677,cs),
(17,546,ls),
(17,533,o),
(27,523,o),
(40,523,cs),
(157,523,l),
(157,27,ls),
(157,12,o),
(169,0,o),
(184,0,cs)
);
}
);
width = 822;
}
);
metricLeft = T;
unicode = 1026;
userData = {
com.typemytype.robofont.guides = (
{
angle = 90;
isGlobal = 0;
magnetic = 5;
x = 50;
y = 0;
},
{
angle = 90;
isGlobal = 0;
magnetic = 5;
x = 413;
y = 0;
},
{
angle = 90;
isGlobal = 0;
magnetic = 5;
x = 485;
y = 0;
}
);
};
},
{
color = 3;
glyphname = "Yat-cy";
layers = (
{
layerId = "EC64484B-0978-4CB1-9EE9-C40A2D8C4059";
shapes = (
{
closed = 1;
nodes = (
(532,520,ls),
(545,520,o),
(555,530,o),
(555,543,cs),
(555,620,ls),
(555,633,o),
(548,643,o),
(532,643,cs),
(40,643,ls),
(24,643,o),
(17,633,o),
(17,620,cs),
(17,543,ls),
(17,530,o),
(27,520,o),
(40,520,cs)
);
},
{
pos = (77,0);
ref = "Softsign-cy";
}
);
width = 782;
}
);
metricLeft = T;
metricRight = "Softsign-cy";
unicode = 1122;
},
{
color = 6;
glyphname = "Yusbig-cy";
layers = (
{
layerId = "EC64484B-0978-4CB1-9EE9-C40A2D8C4059";
shapes = (
{
closed = 1;
nodes = (
(232,0,ls),
(257,0,o),
(269,7,o),
(273,23,c),
(313,160,ls),
(322,192,o),
(340,208,o),
(365,208,cs),
(379,208,l),
(379,27,ls),
(379,12,o),
(391,0,o),
(406,0,cs),
(602,0,ls),
(617,0,o),
(629,12,o),
(629,27,cs),
(629,208,l),
(643,208,ls),
(668,208,o),
(686,192,o),
(695,160,cs),
(734,23,ls),
(738,7,o),
(750,0,o),
(775,0,cs),
(977,0,ls),
(994,0,o),
(1001,19,o),
(996,33,cs),
(927,242,ls),
(892,348,o),
(829,391,o),
(735,399,c),
(727,399,l),
(981,662,ls),
(988,669,o),
(989,673,o),
(989,678,cs),
(989,689,o),
(978,700,o),
(966,700,cs),
(42,700,ls),
(30,700,o),
(21,689,o),
(21,677,cs),
(21,672,o),
(22,668,o),
(25,665,cs),
(270,398,l),
(262,398,l),
(175,390,o),
(114,347,o),
(80,242,cs),
(11,33,ls),
(7,20,o),
(12,0,o),
(30,0,cs)
);
},
{
closed = 1;
nodes = (
(406,520,l),
(596,520,l),
(499,403,l)
);
}
);
width = 1008;
}
);
metricLeft = "Zhe-cy";
metricRight = "Zhe-cy";
unicode = 1130;
},
{
color = 3;
glyphname = "Fita-cy";
layers = (
{
layerId = "EC64484B-0978-4CB1-9EE9-C40A2D8C4059";
shapes = (
{
closed = 1;
nodes = (
(462,289,l),
(462,411,l),
(280,411,l),
(280,289,l)
);
},
{
ref = O;
}
);
width = 742;
}
);
metricLeft = O;
metricRight = O;
unicode = 1138;
},
{
color = 6;
glyphname = "Izhitsa-cy";
layers = (
{
anchors = (
{
name = top;
pos = (368,700);
}
);
layerId = "EC64484B-0978-4CB1-9EE9-C40A2D8C4059";
shapes = (
{
closed = 1;
nodes = (
(477,0,ls),
(502,0,o),
(517,16,o),
(522,33,cs),
(634,414,ls),
(644,450,o),
(660,468,o),
(682,468,cs),
(708,468,ls),
(723,468,o),
(735,480,o),
(735,495,cs),
(736,672,ls),
(736,688,o),
(725,700,o),
(710,700,cs),
(664,700,ls),
(537,700,o),
(460,635,o),
(419,492,cs),
(363,295,l),
(268,667,l),
(263,684,o),
(248,700,o),
(223,700,cs),
(37,700,ls),
(20,700,o),
(12,685,o),
(16,671,cs),
(204,33,ls),
(209,16,o),
(224,0,o),
(249,0,cs)
);
}
);
width = 736;
}
);
metricLeft = V;
unicode = 1140;
},
{
color = 3;
glyphname = "Zhedescender-cy";
layers = (
{
anchors = (
{
name = _bottomright;
pos = (953,0);
}
);
layerId = "EC64484B-0978-4CB1-9EE9-C40A2D8C4059";
shapes = (
{
closed = 1;
nodes = (
(1129,-140,ls),
(1144,-140,o),
(1156,-128,o),
(1156,-113,cs),
(1156,193,ls),
(1156,208,o),
(1144,220,o),
(1129,220,cs),
(834,220,l),
(884,0,l),
(906,0,l),
(906,-113,ls),
(906,-128,o),
(918,-140,o),
(933,-140,cs)
);
},
{
ref = "Zhe-cy";
}
);
width = 1176;
}
);
metricLeft = "Zhe-cy";
metricRight = "Kadescender-cy";
unicode = 1174;
},
{
color = 3;
glyphname = "Zedescender-cy";
layers = (
{
layerId = "EC64484B-0978-4CB1-9EE9-C40A2D8C4059";
shapes = (
{
closed = 1;
nodes = (
(451,-140,ls),
(466,-140,o),
(478,-128,o),
(478,-113,cs),
(478,63,l),
(228,60,l),
(228,-113,ls),
(228,-128,o),
(240,-140,o),
(255,-140,cs)
);
},
{
ref = "Ze-cy";
}
);
width = 715;
}
);
metricLeft = "Ze-cy";
metricRight = "Ze-cy";
unicode = 1176;
},
{
color = 6;
glyphname = "Kaverticalstroke-cy";
layers = (
{
layerId = "EC64484B-0978-4CB1-9EE9-C40A2D8C4059";
shapes = (
{
closed = 1;
nodes = (
(278,0,ls),
(293,0,o),
(305,12,o),
(305,27,cs),
(305,273,l),
(327,273,l),
(327,202,ls),
(327,187,o),
(339,175,o),
(354,175,cs),
(366,175,ls),
(381,175,o),
(393,187,o),
(393,202,cs),
(393,271,l),
(393,272,l),
(532,23,ls),
(535,17,o),
(546,0,o),
(573,0,cs),
(801,0,ls),
(813,0,o),
(823,10,o),
(823,22,cs),
(823,25,o),
(822,30,o),
(820,33,cs),
(623,365,l),
(803,667,ls),
(805,670,o),
(806,674,o),
(806,678,cs),
(806,690,o),
(796,700,o),
(784,700,cs),
(563,700,ls),
(541,700,o),
(529,689,o),
(523,678,cs),
(394,450,l),
(393,448,l),
(393,497,ls),
(393,512,o),
(381,524,o),
(366,524,cs),
(354,524,ls),
(339,524,o),
(327,512,o),
(327,497,cs),
(327,433,l),
(305,433,l),
(305,673,ls),
(305,688,o),
(293,700,o),
(278,700,cs),
(82,700,ls),
(67,700,o),
(55,688,o),
(55,673,cs),
(55,27,ls),
(55,11,o),
(67,0,o),
(82,0,cs)
);
}
);
width = 833;
}
);
metricRight = "Ka-cy";
unicode = 1180;
},
{
color = 6;
glyphname = "Kabashkir-cy";
layers = (
{
layerId = "EC64484B-0978-4CB1-9EE9-C40A2D8C4059";
shapes = (
{
closed = 1;
nodes = (
(433,0,ls),
(448,0,o),
(460,12,o),
(460,27,cs),
(460,243,l),
(484,243,l),
(607,23,l),
(611,17,o),
(621,0,o),
(648,0,cs),
(876,0,ls),
(888,0,o),
(898,10,o),
(898,22,cs),
(898,25,o),
(897,30,o),
(895,33,c),
(698,365,l),
(878,667,l),
(880,670,o),
(881,674,o),
(881,678,cs),
(881,690,o),
(871,700,o),
(859,700,cs),
(638,700,ls),
(616,700,o),
(604,689,o),
(598,678,cs),
(476,463,l),
(460,463,l),
(460,673,ls),
(460,688,o),
(448,700,o),
(433,700,cs),
(44,700,ls),
(29,700,o),
(17,688,o),
(17,673,cs),
(17,512,ls),
(17,497,o),
(29,485,o),
(44,485,cs),
(210,485,l),
(210,27,ls),
(210,11,o),
(222,0,o),
(237,0,cs)
);
}
);
width = 908;
}
);
metricLeft = "Te-cy";
metricRight = "Ka-cy";
unicode = 1184;
},
{
color = 6;
glyphname = "Enghe-cy";
layers = (
{
layerId = "EC64484B-0978-4CB1-9EE9-C40A2D8C4059";
shapes = (
{
closed = 1;
nodes = (
(278,0,ls),
(293,0,o),
(305,12,o),
(305,27,cs),
(305,243,l),
(467,243,l),
(467,27,ls),
(467,12,o),
(479,0,o),
(494,0,cs),
(690,0,ls),
(705,0,o),
(717,12,o),
(717,27,cs),
(717,495,l),
(914,495,ls),
(929,495,o),
(941,507,o),
(941,522,cs),
(941,673,ls),
(941,688,o),
(929,700,o),
(914,700,cs),
(494,700,ls),
(479,700,o),
(467,688,o),
(467,673,cs),
(467,463,l),
(305,463,l),
(305,673,ls),
(305,688,o),
(293,700,o),
(278,700,cs),
(82,700,ls),
(67,700,o),
(55,688,o),
(55,673,cs),
(55,27,ls),
(55,11,o),
(67,0,o),
(82,0,cs)
);
}
);
width = 961;
}
);
metricLeft = "En-cy";
metricRight = "Ge-cy";
unicode = 1188;
},
{
color = 3;
glyphname = "Esdescender-cy";
layers = (
{
layerId = "EC64484B-0978-4CB1-9EE9-C40A2D8C4059";
shapes = (
{
closed = 1;
nodes = (
(471,-140,ls),
(486,-140,o),
(498,-128,o),
(498,-113,cs),
(498,63,l),
(248,60,l),
(248,-113,ls),
(248,-128,o),
(260,-140,o),
(275,-140,cs)
);
},
{
ref = "Es-cy";
}
);
width = 733;
}
);
unicode = 1194;
},
{
color = 6;
glyphname = "Ustrait-cy";
layers = (
{
layerId = "EC64484B-0978-4CB1-9EE9-C40A2D8C4059";
shapes = (
{
closed = 1;
nodes = (
(453,0,ls),
(468,0,o),
(480,12,o),
(480,27,cs),
(480,224,l),
(705,669,ls),
(706,671,o),
(707,675,o),
(707,678,cs),
(707,690,o),
(697,700,o),
(685,700,cs),
(497,700,ls),
(470,700,o),
(458,681,o),
(455,675,cs),
(355,474,l),
(255,675,ls),
(252,681,o),
(240,700,o),
(213,700,cs),
(25,700,ls),
(13,700,o),
(3,690,o),
(3,678,cs),
(3,675,o),
(4,671,o),
(5,669,cs),
(230,224,l),
(230,27,ls),
(230,12,o),
(242,0,o),
(257,0,cs)
);
}
);
width = 710;
}
);
unicode = 1198;
},
{
color = 3;
glyphname = "Ustraitstroke-cy";
layers = (
{
layerId = "EC64484B-0978-4CB1-9EE9-C40A2D8C4059";
shapes = (
{
closed = 1;
nodes = (
(573,167,ls),
(588,167,o),
(600,179,o),
(600,194,cs),
(600,265,ls),
(600,280,o),
(588,292,o),
(573,292,cs),
(130,292,ls),
(115,292,o),
(103,280,o),
(103,265,cs),
(103,194,ls),
(103,179,o),
(115,167,o),
(130,167,cs)
);
},
{
ref = "Ustrait-cy";
}
);
width = 710;
}
);
unicode = 1200;
},
{
color = 6;
glyphname = "Cheverticalstroke-cy";
layers = (
{
layerId = "EC64484B-0978-4CB1-9EE9-C40A2D8C4059";
shapes = (
{
closed = 1;
nodes = (
(676,0,ls),
(691,0,o),
(703,12,o),
(703,27,cs),
(703,673,ls),
(703,688,o),
(691,700,o),
(676,700,cs),
(480,700,ls),
(465,700,o),
(453,688,o),
(453,673,cs),
(453,390,ls),
(453,376,o),
(409,364,o),
(375,364,cs),
(314,364,o),
(288,384,o),
(288,431,cs),
(288,673,ls),
(288,688,o),
(276,700,o),
(261,700,cs),
(65,700,ls),
(50,700,o),
(38,688,o),
(38,673,cs),
(38,461,ls),
(38,265,o),
(122,176,o),
(321,176,cs),
(374,176,o),
(418,186,o),
(453,206,c),
(453,27,ls),
(453,12,o),
(465,0,o),
(480,0,cs)
);
},
{
closed = 1;
nodes = (
(387,97,ls),
(402,97,o),
(414,109,o),
(414,124,cs),
(414,429,ls),
(414,444,o),
(402,456,o),
(387,456,cs),
(375,456,ls),
(360,456,o),
(348,444,o),
(348,429,cs),
(348,124,ls),
(348,109,o),
(360,97,o),
(375,97,cs)
);
}
);
width = 767;
}
);
metricLeft = "Che-cy";
unicode = 1208;
},
{
color = 6;
glyphname = "Shha-cy";
layers = (
{
anchors = (
{
name = bottomright;
pos = (717,0);
}
);
layerId = "EC64484B-0978-4CB1-9EE9-C40A2D8C4059";
shapes = (
{
closed = 1;
nodes = (
(287,0,ls),
(302,0,o),
(314,12,o),
(314,27,cs),
(314,270,ls),
(314,284,o),
(352,296,o),
(382,296,cs),
(429,296,o),
(449,276,o),
(449,229,cs),
(449,27,ls),
(449,12,o),
(461,0,o),
(476,0,cs),
(672,0,ls),
(687,0,o),
(699,12,o),
(699,27,cs),
(699,239,ls),
(700,435,o),
(612,524,o),
(436,524,cs),
(387,524,o),
(346,514,o),
(314,494,c),
(314,673,ls),
(314,688,o),
(302,700,o),
(287,700,cs),
(91,700,ls),
(76,700,o),
(64,688,o),
(64,673,cs),
(64,27,ls),
(64,12,o),
(76,0,o),
(91,0,cs)
);
}
);
width = 737;
}
);
unicode = 1210;
},
{
color = 3;
glyphname = "Chekhakassian-cy";
layers = (
{
layerId = "EC64484B-0978-4CB1-9EE9-C40A2D8C4059";
shapes = (
{
closed = 1;
nodes = (
(574,-140,ls),
(589,-140,o),
(601,-128,o),
(601,-113,cs),
(601,0,l),
(623,0,l),
(673,120,l),
(378,120,ls),
(363,120,o),
(351,108,o),
(351,93,cs),
(351,-113,ls),
(351,-128,o),
(363,-140,o),
(378,-140,cs)
);
},
{
ref = "Che-cy";
}
);
width = 737;
}
);
unicode = 1227;
},
{
color = 6;
glyphname = "Schwa-cy";
layers = (
{
anchors = (
{
name = top;
pos = (371,700);
}
);
layerId = "EC64484B-0978-4CB1-9EE9-C40A2D8C4059";
shapes = (
{
closed = 1;
nodes = (
(562,-10,o),
(697,70,o),
(705,261,cs),
(707,315,o),
(707,382,o),
(705,439,cs),
(697,625,o),
(557,710,o),
(371,710,cs),
(199,710,o),
(51,612,o),
(51,473,cs),
(51,461,o),
(61,451,o),
(73,451,cs),
(268,451,ls),
(290,451,o),
(297,458,o),
(305,480,c),
(317,509,o),
(341,515,o),
(371,515,cs),
(415,515,o),
(443,495,o),
(445,434,cs),
(445,426,o),
(446,419,o),
(446,411,c),
(72,411,ls),
(52,411,o),
(36,395,o),
(36,374,cs),
(36,351,ls),
(36,154,o),
(145,-10,o),
(370,-10,cs)
);
},
{
closed = 1;
nodes = (
(324,185,o),
(298,218,o),
(297,263,c),
(297,289,l),
(446,289,l),
(446,281,o),
(445,274,o),
(445,266,cs),
(443,205,o),
(415,185,o),
(371,185,cs)
);
}
);
width = 742;
}
);
metricLeft = O;
metricRight = O;
unicode = 1240;
},
{
color = 3;
glyphname = "Obarred-cy";
layers = (
{
anchors = (
{
name = top;
pos = (371,700);
}
);
layerId = "EC64484B-0978-4CB1-9EE9-C40A2D8C4059";
shapes = (
{
closed = 1;
nodes = (
(578,289,ls),
(593,289,o),
(605,301,o),
(605,316,cs),
(605,384,ls),
(605,399,o),
(593,411,o),
(578,411,cs),
(163,411,ls),
(148,411,o),
(136,399,o),
(136,384,cs),
(136,316,ls),
(136,301,o),
(148,289,o),
(163,289,cs)
);
},
{
ref = "O-cy";
}
);
width = 742;
}
);
unicode = 1256;
},
{
color = 6;
glyphname = "be-cy";
layers = (
{
layerId = "EC64484B-0978-4CB1-9EE9-C40A2D8C4059";
shapes = (
{
closed = 1;
nodes = (
(505,-10,o),
(601,58,o),
(611,189,cs),
(613,215,o),
(613,246,o),
(611,272,cs),
(601,403,o),
(521,471,o),
(365,471,cs),
(303,471,o),
(248,443,o),
(226,414,c),
(253,369,l),
(253,539,o),
(272,555,o),
(535,596,cs),
(550,598,o),
(559,612,o),
(556,629,cs),
(531,764,l),
(529,781,o),
(514,790,o),
(499,787,cs),
(155,718,o),
(45,666,o),
(31,406,cs),
(29,368,o),
(29,322,o),
(31,284,cs),
(42,67,o),
(118,-10,o),
(321,-10,cs)
);
},
{
closed = 1;
nodes = (
(283,132,o),
(278,151,o),
(276,193,cs),
(275,211,o),
(275,250,o),
(276,268,cs),
(278,307,o),
(284,328,o),
(325,328,cs),
(360,328,o),
(364,307,o),
(366,268,cs),
(367,250,o),
(367,211,o),
(366,193,cs),
(364,151,o),
(359,132,o),
(321,132,cs)
);
}
);
width = 642;
}
);
metricRight = o;
unicode = 1073;
userData = {
com.typemytype.robofont.guides = (
{
angle = 0;
isGlobal = 0;
magnetic = 5;
x = 0;
y = 730;
},
{
angle = 0;
isGlobal = 0;
magnetic = 5;
x = 0;
y = 231;
},
{
angle = 90;
isGlobal = 0;
magnetic = 5;
x = 55;
y = 0;
},
{
angle = 90;
isGlobal = 0;
magnetic = 5;
x = 493;
y = 0;
}
);
};
},
{
color = 6;
glyphname = "ve-cy";
kernLeft = afii10074;
layers = (
{
layerId = "EC64484B-0978-4CB1-9EE9-C40A2D8C4059";
shapes = (
{
closed = 1;
nodes = (
(349,0,ls),
(535,0,o),
(610,63,o),
(610,159,cs),
(610,212,o),
(583,244,o),
(544,267,c),
(570,289,o),
(590,321,o),
(590,364,cs),
(590,460,o),
(515,520,o),
(329,520,cs),
(72,520,ls),
(57,520,o),
(45,508,o),
(45,493,cs),
(45,27,ls),
(45,12,o),
(57,0,o),
(72,0,c)
);
},
{
closed = 1;
nodes = (
(269,188,l),
(339,188,ls),
(362,188,o),
(375,182,o),
(375,162,cs),
(375,142,o),
(362,137,o),
(339,137,cs),
(269,137,l)
);
},
{
closed = 1;
nodes = (
(269,383,l),
(339,383,ls),
(362,383,o),
(375,377,o),
(375,357,cs),
(375,337,o),
(363,332,o),
(339,332,cs),
(269,332,l)
);
}
);
width = 644;
}
);
metricLeft = "en-cy";
unicode = 1074;
userData = {
com.typemytype.robofont.guides = (
{
angle = 90;
isGlobal = 0;
magnetic = 5;
x = 70;
y = 0;
}
);
};
},
{
color = 6;
glyphname = "ge-cy";
kernLeft = afii10074;
kernRight = afii10068;
layers = (
{
anchors = (
{
name = bottomright;
pos = (150,0);
},
{
name = top;
pos = (261,520);
}
);
layerId = "EC64484B-0978-4CB1-9EE9-C40A2D8C4059";
shapes = (
{
closed = 1;
nodes = (
(251,0,ls),
(266,0,o),
(278,12,o),
(278,27,cs),
(278,345,l),
(437,345,ls),
(452,345,o),
(464,357,o),
(464,372,cs),
(464,493,ls),
(464,508,o),
(452,520,o),
(437,520,cs),
(72,520,ls),
(57,520,o),
(45,508,o),
(45,493,cs),
(45,27,ls),
(45,12,o),
(57,0,o),
(72,0,cs)
);
}
);
width = 484;
}
);
metricLeft = "en-cy";
unicode = 1075;
userData = {
com.typemytype.robofont.guides = (
{
angle = 90;
isGlobal = 0;
magnetic = 5;
x = 467;
y = 0;
}
);
};
},
{
color = 6;
glyphname = "gheupturn-cy";
layers = (
{
layerId = "EC64484B-0978-4CB1-9EE9-C40A2D8C4059";
shapes = (
{
closed = 1;
nodes = (
(251,0,ls),
(266,0,o),
(278,12,o),
(278,27,cs),
(278,345,l),
(437,345,ls),
(452,345,o),
(464,357,o),
(464,372,cs),
(464,603,ls),
(464,618,o),
(452,630,o),
(437,630,cs),
(258,630,ls),
(243,630,o),
(231,618,o),
(231,603,cs),
(231,520,l),
(72,520,ls),
(57,520,o),
(45,508,o),
(45,493,cs),
(45,27,ls),
(45,12,o),
(57,0,o),
(72,0,cs)
);
}
);
width = 484;
}
);
metricLeft = "en-cy";
metricRight = "ge-cy";
unicode = 1169;
},
{
color = 6;
glyphname = "ghemiddlehook-cy";
layers = (
{
layerId = "EC64484B-0978-4CB1-9EE9-C40A2D8C4059";
shapes = (
{
closed = 1;
nodes = (
(231,0,ls),
(246,0,o),
(258,12,o),
(258,27,cs),
(258,345,l),
(437,345,ls),
(452,345,o),
(464,357,o),
(464,372,cs),
(464,493,ls),
(464,508,o),
(452,520,o),
(437,520,cs),
(72,520,ls),
(57,520,o),
(45,508,o),
(45,493,cs),
(45,27,ls),
(45,12,o),
(57,0,o),
(72,0,cs)
);
},
{
closed = 1;
nodes = (
(347,-190,ls),
(500,-190,o),
(610,-114,o),
(610,29,cs),
(610,63,ls),
(610,196,o),
(536,290,o),
(411,290,cs),
(349,290,o),
(298,278,o),
(258,256,c),
(258,80,l),
(258,101,o),
(284,111,o),
(320,111,cs),
(362,111,o),
(380,92,o),
(380,56,cs),
(380,35,ls),
(380,2,o),
(366,-15,o),
(337,-15,cs),
(316,-15,ls),
(301,-15,o),
(289,-27,o),
(289,-42,cs),
(289,-163,ls),
(289,-178,o),
(301,-190,o),
(316,-190,cs)
);
}
);
width = 625;
}
);
metricLeft = "en-cy";
unicode = 1173;
},
{
color = 6;
glyphname = "de-cy";
layers = (
{
layerId = "EC64484B-0978-4CB1-9EE9-C40A2D8C4059";
shapes = (
{
closed = 1;
nodes = (
(231,-110,ls),
(246,-110,o),
(258,-98,o),
(258,-83,cs),
(258,0,l),
(459,0,l),
(459,-83,ls),
(459,-98,o),
(471,-110,o),
(486,-110,cs),
(665,-110,ls),
(680,-110,o),
(692,-98,o),
(692,-83,cs),
(692,148,ls),
(692,163,o),
(680,175,o),
(665,175,cs),
(626,175,l),
(626,493,ls),
(626,508,o),
(614,520,o),
(599,520,cs),
(143,520,ls),
(128,520,o),
(116,508,o),
(116,493,cs),
(116,341,ls),
(116,249,o),
(114,175,o),
(66,175,cs),
(52,175,ls),
(37,175,o),
(25,163,o),
(25,148,cs),
(25,-83,ls),
(25,-98,o),
(37,-110,o),
(52,-110,cs)
);
},
{
closed = 1;
nodes = (
(330,206,o),
(336,253,o),
(336,316,cs),
(336,345,l),
(393,345,l),
(393,175,l),
(318,175,l)
);
}
);
width = 704;
}
);
metricRight = "tse-cy";
unicode = 1076;
userData = {
com.typemytype.robofont.guides = (
{
angle = 0;
isGlobal = 0;
magnetic = 5;
x = 0;
y = "-110";
},
{
angle = 90;
isGlobal = 0;
magnetic = 5;
x = 466;
y = 0;
},
{
angle = 90;
isGlobal = 0;
magnetic = 5;
x = 60;
y = 0;
},
{
angle = 90;
isGlobal = 0;
magnetic = 5;
x = 508;
y = 0;
}
);
};
},
{
color = 6;
glyphname = "zhe-cy";
layers = (
{
anchors = (
{
name = bottomright;
pos = (813,0);
},
{
name = top;
pos = (507,520);
}
);
layerId = "EC64484B-0978-4CB1-9EE9-C40A2D8C4059";
shapes = (
{
closed = 1;
nodes = (
(249,0,ls),
(269,0,o),
(278,14,o),
(280,17,cs),
(375,175,l),
(392,175,l),
(392,27,ls),
(392,12,o),
(404,0,o),
(419,0,cs),
(594,0,ls),
(609,0,o),
(621,12,o),
(621,27,cs),
(621,175,l),
(638,175,l),
(733,17,ls),
(735,14,o),
(744,0,o),
(764,0,cs),
(974,0,ls),
(987,0,o),
(998,11,o),
(998,24,cs),
(998,30,o),
(996,34,o),
(994,37,cs),
(842,266,l),
(969,481,ls),
(971,484,o),
(974,490,o),
(974,496,cs),
(974,509,o),
(963,520,o),
(950,520,cs),
(758,520,ls),
(740,520,o),
(732,508,o),
(729,503,cs),
(643,350,l),
(621,350,l),
(621,493,ls),
(621,508,o),
(609,520,o),
(594,520,cs),
(419,520,ls),
(404,520,o),
(392,508,o),
(392,493,cs),
(392,350,l),
(370,350,l),
(284,503,ls),
(281,508,o),
(273,520,o),
(255,520,cs),
(63,520,ls),
(50,520,o),
(39,509,o),
(39,496,cs),
(39,490,o),
(42,484,o),
(44,481,cs),
(171,266,l),
(19,37,ls),
(17,34,o),
(15,30,o),
(15,24,cs),
(15,11,o),
(26,0,o),
(39,0,cs)
);
}
);
width = 1013;
},
{
associatedMasterId = "EC64484B-0978-4CB1-9EE9-C40A2D8C4059";
background = {
shapes = (
{
closed = 1;
nodes = (
(240,0,ls),
(258,0,o),
(266,11,o),
(270,17,cs),
(339,114,l),
(405,17,ls),
(410,10,o),
(417,0,o),
(435,0,cs),
(627,0,ls),
(640,0,o),
(651,11,o),
(651,24,cs),
(651,28,o),
(650,33,o),
(647,37,cs),
(482,269,l),
(629,483,ls),
(631,486,o),
(633,490,o),
(633,497,cs),
(633,509,o),
(622,520,o),
(609,520,cs),
(434,520,ls),
(414,520,o),
(406,507,o),
(402,501,cs),
(344,412,l),
(286,501,ls),
(282,507,o),
(274,520,o),
(254,520,cs),
(71,520,ls),
(58,520,o),
(47,509,o),
(47,496,cs),
(47,491,o),
(49,486,o),
(51,483,cs),
(195,268,l),
(33,37,ls),
(30,33,o),
(29,27,o),
(29,24,cs),
(29,11,o),
(40,0,o),
(53,0,cs)
);
}
);
};
color = 6;
layerId = "5138092E-F717-42B1-AA6B-B68ED7722E56";
name = "Sep 1 16, 18:41";
shapes = (
{
closed = 1;
nodes = (
(222,0,ls),
(240,0,o),
(251,8,o),
(253,17,cs),
(288,139,ls),
(295,164,o),
(309,174,o),
(327,174,cs),
(355,174,l),
(355,27,ls),
(355,12,o),
(367,0,o),
(382,0,cs),
(561,0,ls),
(576,0,o),
(588,12,o),
(588,27,cs),
(588,174,l),
(616,174,ls),
(634,174,o),
(648,164,o),
(655,139,cs),
(690,17,ls),
(693,7,o),
(704,0,o),
(721,0,cs),
(898,0,ls),
(911,0,o),
(916,13,o),
(912,24,cs),
(846,224,ls),
(819,307,o),
(770,343,o),
(702,343,cs),
(588,343,l),
(588,493,ls),
(588,508,o),
(576,520,o),
(561,520,cs),
(382,520,ls),
(367,520,o),
(355,508,o),
(355,493,cs),
(355,343,l),
(241,343,ls),
(173,343,o),
(125,307,o),
(97,224,cs),
(31,24,ls),
(27,12,o),
(33,0,o),
(45,0,cs)
);
},
{
closed = 1;
nodes = (
(348,270,l),
(281,504,ls),
(279,513,o),
(268,520,o),
(252,520,cs),
(70,520,ls),
(58,520,o),
(47,510,o),
(47,497,cs),
(47,494,o),
(48,490,o),
(49,487,cs),
(131,270,l)
);
},
{
closed = 1;
nodes = (
(812,270,l),
(894,488,ls),
(895,491,o),
(896,494,o),
(896,497,cs),
(896,509,o),
(886,520,o),
(872,520,cs),
(691,520,ls),
(675,520,o),
(665,514,o),
(662,504,cs),
(595,270,l)
);
}
);
width = 943;
}
);
metricLeft = "=|ka-cy";
metricRight = "ka-cy";
unicode = 1078;
userData = {
com.typemytype.robofont.guides = (
{
angle = 90;
isGlobal = 0;
magnetic = 5;
x = 14;
y = 0;
}
);
};
},
{
color = 6;
glyphname = "ze-cy";
layers = (
{
anchors = (
{
name = bottom;
pos = (299,0);
},
{
name = top;
pos = (307,520);
}
);
layerId = "EC64484B-0978-4CB1-9EE9-C40A2D8C4059";
shapes = (
{
closed = 1;
nodes = (
(469,-10,o),
(564,59,o),
(564,149,cs),
(564,196,o),
(546,252,o),
(485,273,c),
(534,295,o),
(552,340,o),
(552,380,cs),
(552,471,o),
(483,530,o),
(295,530,cs),
(93,530,o),
(44,427,o),
(34,368,cs),
(32,359,o),
(41,351,o),
(50,351,cs),
(219,351,ls),
(236,351,o),
(240,358,o),
(247,363,cs),
(258,372,o),
(267,376,o),
(293,376,cs),
(318,376,o),
(329,366,o),
(329,350,cs),
(329,334,o),
(322,324,o),
(292,324,cs),
(235,324,ls),
(223,324,o),
(214,313,o),
(214,302,cs),
(214,219,ls),
(214,208,o),
(223,197,o),
(235,197,cs),
(292,197,ls),
(326,197,o),
(333,185,o),
(333,171,cs),
(333,152,o),
(323,142,o),
(293,142,cs),
(266,142,o),
(257,148,o),
(249,154,cs),
(242,159,o),
(238,166,o),
(221,166,cs),
(46,166,ls),
(38,166,o),
(27,158,o),
(30,149,cs),
(40,90,o),
(86,-10,o),
(295,-10,cs)
);
}
);
width = 598;
}
);
unicode = 1079;
},
{
color = 6;
glyphname = "ii-cy";
kernLeft = afii10074;
kernRight = afii10074;
layers = (
{
anchors = (
{
name = bottomright;
pos = (643,0);
},
{
name = top;
pos = (352,520);
}
);
layerId = "EC64484B-0978-4CB1-9EE9-C40A2D8C4059";
shapes = (
{
closed = 1;
nodes = (
(231,0,ls),
(243,0,o),
(253,6,o),
(260,17,cs),
(460,324,l),
(399,342,l),
(399,27,ls),
(399,12,o),
(411,0,o),
(426,0,cs),
(605,0,ls),
(620,0,o),
(632,12,o),
(632,27,cs),
(632,493,ls),
(632,508,o),
(620,520,o),
(605,520,cs),
(446,520,ls),
(434,520,o),
(424,514,o),
(417,503,cs),
(217,196,l),
(278,178,l),
(278,493,ls),
(278,508,o),
(266,520,o),
(251,520,cs),
(72,520,ls),
(57,520,o),
(45,508,o),
(45,493,cs),
(45,27,ls),
(45,12,o),
(57,0,o),
(72,0,cs)
);
}
);
width = 663;
}
);
unicode = 1080;
userData = {
com.typemytype.robofont.guides = (
{
angle = 90;
isGlobal = 0;
magnetic = 5;
x = 465;
y = 0;
}
);
};
},
{
color = 6;
glyphname = "ka-cy";
kernLeft = afii10074;
kernRight = afii10076;
layers = (
{
anchors = (
{
name = bottomright;
pos = (356,0);
},
{
name = top;
pos = (333,520);
}
);
layerId = "EC64484B-0978-4CB1-9EE9-C40A2D8C4059";
shapes = (
{
closed = 1;
nodes = (
(247,0,ls),
(262,0,o),
(274,12,o),
(274,27,cs),
(274,175,l),
(291,175,l),
(386,17,ls),
(392,8,o),
(401,0,o),
(417,0,cs),
(627,0,ls),
(640,0,o),
(651,11,o),
(651,24,cs),
(651,30,o),
(649,34,o),
(647,37,cs),
(495,266,l),
(622,481,ls),
(624,484,o),
(627,490,o),
(627,496,cs),
(627,509,o),
(616,520,o),
(603,520,cs),
(411,520,ls),
(393,520,o),
(385,508,o),
(382,503,cs),
(296,350,l),
(274,350,l),
(274,493,ls),
(274,508,o),
(262,520,o),
(247,520,cs),
(72,520,ls),
(57,520,o),
(45,508,o),
(45,493,cs),
(45,27,ls),
(45,12,o),
(57,0,o),
(72,0,cs)
);
}
);
width = 666;
},
{
anchors = (
{
name = bottomright;
pos = (584,0);
},
{
name = top;
pos = (322,520);
}
);
associatedMasterId = "EC64484B-0978-4CB1-9EE9-C40A2D8C4059";
background = {
shapes = (
{
closed = 1;
nodes = (
(243,256,l),
(386,17,ls),
(388,14,o),
(397,0,o),
(417,0,cs),
(627,0,ls),
(640,0,o),
(651,11,o),
(651,24,cs),
(651,30,o),
(649,34,o),
(647,37,cs),
(495,266,l),
(622,481,ls),
(624,484,o),
(627,490,o),
(627,496,cs),
(627,509,o),
(616,520,o),
(603,520,cs),
(411,520,ls),
(393,520,o),
(385,508,o),
(382,503,cs)
);
},
{
closed = 1;
nodes = (
(274,493,ls),
(274,508,o),
(262,520,o),
(247,520,cs),
(72,520,ls),
(57,520,o),
(45,508,o),
(45,493,cs),
(45,27,ls),
(45,12,o),
(57,0,o),
(72,0,cs),
(247,0,ls),
(262,0,o),
(274,12,o),
(274,27,cs)
);
}
);
};
color = 6;
layerId = "E24BA32A-70DD-4A24-A88A-0AB3E1A53C5D";
name = old;
shapes = (
{
closed = 1;
nodes = (
(251,0,ls),
(266,0,o),
(278,12,o),
(278,27,cs),
(278,174,l),
(306,174,ls),
(324,174,o),
(335,163,o),
(345,139,c),
(390,17,ls),
(394,5,o),
(403,0,o),
(421,0,cs),
(598,0,ls),
(607,0,o),
(614,7,o),
(614,16,cs),
(614,19,o),
(613,22,o),
(612,24,c),
(536,224,ls),
(505,306,o),
(460,343,o),
(392,343,cs),
(278,343,l),
(278,493,ls),
(278,508,o),
(266,520,o),
(251,520,cs),
(72,520,ls),
(57,520,o),
(45,508,o),
(45,493,cs),
(45,27,ls),
(45,12,o),
(57,0,o),
(72,0,cs)
);
},
{
closed = 1;
nodes = (
(502,239,l),
(597,492,ls),
(599,498,o),
(600,501,o),
(600,504,cs),
(600,513,o),
(593,520,o),
(584,520,cs),
(392,520,ls),
(376,520,o),
(366,513,o),
(363,504,cs),
(285,239,l)
);
}
);
width = 644;
}
);
metricLeft = "en-cy";
unicode = 1082;
userData = {
com.typemytype.robofont.guides = (
{
angle = 0;
isGlobal = 0;
magnetic = 5;
x = 0;
y = 260;
},
{
angle = 90;
isGlobal = 0;
magnetic = 5;
x = "-857";
y = 0;
},
{
angle = 90;
isGlobal = 0;
magnetic = 5;
x = 70;
y = 0;
}
);
};
},
{
color = 6;
glyphname = "el-cy";
kernLeft = afii10077;
kernRight = afii10074;
layers = (
{
layerId = "EC64484B-0978-4CB1-9EE9-C40A2D8C4059";
shapes = (
{
closed = 1;
nodes = (
(282,0,o),
(322,64,o),
(322,316,cs),
(322,345,l),
(379,345,l),
(379,27,ls),
(379,12,o),
(391,0,o),
(406,0,cs),
(585,0,ls),
(600,0,o),
(612,12,o),
(612,27,cs),
(612,493,ls),
(612,508,o),
(600,520,o),
(585,520,cs),
(129,520,ls),
(114,520,o),
(102,508,o),
(102,493,cs),
(102,341,ls),
(102,252,o),
(105,194,o),
(52,185,cs),
(36,182,o),
(25,173,o),
(25,158,cs),
(25,27,ls),
(25,12,o),
(37,0,o),
(52,0,cs)
);
}
);
width = 664;
}
);
metricRight = "en-cy";
unicode = 1083;
userData = {
com.typemytype.robofont.guides = (
{
angle = 90;
isGlobal = 0;
magnetic = 5;
x = 60;
y = 0;
}
);
};
},
{
color = 6;
glyphname = "em-cy";
kernLeft = afii10074;
kernRight = afii10074;
layers = (
{
layerId = "EC64484B-0978-4CB1-9EE9-C40A2D8C4059";
shapes = (
{
closed = 1;
nodes = (
(253,0,ls),
(264,0,o),
(273,9,o),
(273,20,cs),
(273,284,l),
(214,268,l),
(322,92,ls),
(330,79,o),
(339,73,o),
(350,73,cs),
(402,73,ls),
(415,73,o),
(422,80,o),
(429,92,cs),
(539,267,l),
(479,284,l),
(479,20,ls),
(479,9,o),
(487,0,o),
(499,0,cs),
(687,0,ls),
(699,0,o),
(708,9,o),
(708,20,cs),
(708,500,ls),
(708,511,o),
(699,520,o),
(687,520,cs),
(516,520,ls),
(503,520,o),
(492,513,o),
(484,500,cs),
(376,322,l),
(268,500,ls),
(260,513,o),
(249,520,o),
(236,520,cs),
(65,520,ls),
(54,520,o),
(45,511,o),
(45,500,cs),
(45,20,ls),
(45,9,o),
(54,0,o),
(65,0,cs)
);
}
);
width = 760;
}
);
metricLeft = "en-cy";
metricRight = "en-cy";
unicode = 1084;
userData = {
com.typemytype.robofont.guides = (
{
angle = 0;
isGlobal = 0;
magnetic = 5;
x = 0;
y = 85;
},
{
angle = 0;
isGlobal = 0;
magnetic = 5;
x = 0;
y = 113;
}
);
};
},
{
color = 6;
glyphname = "en-cy";
kernLeft = afii10074;
kernRight = afii10074;
layers = (
{
anchors = (
{
name = bottomright;
pos = (498,0);
}
);
layerId = "EC64484B-0978-4CB1-9EE9-C40A2D8C4059";
shapes = (
{
closed = 1;
nodes = (
(251,0,ls),
(266,0,o),
(278,12,o),
(278,27,cs),
(278,175,l),
(378,175,l),
(378,27,ls),
(378,12,o),
(390,0,o),
(405,0,cs),
(584,0,ls),
(599,0,o),
(611,12,o),
(611,27,cs),
(611,493,ls),
(611,508,o),
(599,520,o),
(584,520,cs),
(405,520,ls),
(390,520,o),
(378,508,o),
(378,493,cs),
(378,350,l),
(278,350,l),
(278,493,ls),
(278,508,o),
(266,520,o),
(251,520,cs),
(72,520,ls),
(57,520,o),
(45,508,o),
(45,493,cs),
(45,27,ls),
(45,12,o),
(57,0,o),
(72,0,cs)
);
}
);
width = 663;
}
);
unicode = 1085;
userData = {
com.typemytype.robofont.guides = (
{
angle = 0;
isGlobal = 0;
magnetic = 5;
x = 0;
y = 260;
},
{
angle = 90;
isGlobal = 0;
magnetic = 5;
x = 70;
y = 0;
}
);
};
},
{
color = 6;
glyphname = "pe-cy";
kernLeft = afii10074;
kernRight = afii10074;
layers = (
{
anchors = (
{
name = bottomright;
pos = (485,0);
}
);
layerId = "EC64484B-0978-4CB1-9EE9-C40A2D8C4059";
shapes = (
{
closed = 1;
nodes = (
(251,0,ls),
(266,0,o),
(278,12,o),
(278,27,cs),
(278,345,l),
(378,345,l),
(378,27,ls),
(378,12,o),
(390,0,o),
(405,0,cs),
(584,0,ls),
(599,0,o),
(611,12,o),
(611,27,cs),
(611,493,ls),
(611,508,o),
(599,520,o),
(584,520,cs),
(72,520,ls),
(57,520,o),
(45,508,o),
(45,493,cs),
(45,27,ls),
(45,12,o),
(57,0,o),
(72,0,cs)
);
}
);
width = 663;
}
);
metricRight = "en-cy";
unicode = 1087;
userData = {
com.typemytype.robofont.guides = (
{
angle = 90;
isGlobal = 0;
magnetic = 5;
x = 70;
y = 0;
}
);
};
},
{
color = 6;
glyphname = "te-cy";
layers = (
{
anchors = (
{
name = bottomright;
pos = (559,0);
}
);
layerId = "EC64484B-0978-4CB1-9EE9-C40A2D8C4059";
shapes = (
{
closed = 1;
nodes = (
(377,0,ls),
(392,0,o),
(404,12,o),
(404,27,cs),
(404,345,l),
(537,345,ls),
(552,345,o),
(564,357,o),
(564,372,cs),
(564,493,ls),
(564,508,o),
(552,520,o),
(537,520,cs),
(42,520,ls),
(27,520,o),
(15,508,o),
(15,493,cs),
(15,372,ls),
(15,357,o),
(27,345,o),
(42,345,cs),
(175,345,l),
(175,27,ls),
(175,12,o),
(187,0,o),
(202,0,cs)
);
}
);
width = 579;
}
);
unicode = 1090;
userData = {
com.typemytype.robofont.guides = (
{
angle = 90;
isGlobal = 0;
magnetic = 5;
x = 30;
y = 0;
},
{
angle = 90;
isGlobal = 0;
magnetic = 5;
x = 501;
y = 0;
}
);
};
},
{
color = 6;
glyphname = "u-cy";
kernLeft = afii10085;
kernRight = afii10085;
layers = (
{
anchors = (
{
name = top;
pos = (326,520);
}
);
layerId = "EC64484B-0978-4CB1-9EE9-C40A2D8C4059";
shapes = (
{
closed = 1;
nodes = (
(177,-191,ls),
(308,-191,o),
(365,-136,o),
(430,24,cs),
(620,489,ls),
(622,493,o),
(621,496,o),
(621,499,cs),
(621,510,o),
(610,520,o),
(598,520,cs),
(437,520,ls),
(417,520,o),
(408,508,o),
(403,496,cs),
(218,33,ls),
(203,-4,o),
(190,-16,o),
(160,-16,cs),
(118,-16,l),
(103,-16,o),
(91,-28,o),
(91,-43,cs),
(91,-164,ls),
(91,-179,o),
(103,-191,o),
(118,-191,cs)
);
},
{
closed = 1;
nodes = (
(360,156,l),
(236,496,ls),
(232,507,o),
(224,520,o),
(204,520,cs),
(35,520,ls),
(22,520,o),
(12,509,o),
(10,496,cs),
(10,494,o),
(10,492,o),
(11,489,cs),
(218,7,l)
);
}
);
width = 631;
}
);
unicode = 1091;
userData = {
com.typemytype.robofont.guides = (
{
angle = 0;
isGlobal = 0;
magnetic = 5;
x = 0;
y = "-190";
},
{
angle = 90;
isGlobal = 0;
magnetic = 5;
x = 272;
y = 0;
},
{
angle = 90;
isGlobal = 0;
magnetic = 5;
x = 40;
y = 0;
}
);
};
},
{
color = 6;
glyphname = "ef-cy";
kernRight = afii10082;
layers = (
{
layerId = "EC64484B-0978-4CB1-9EE9-C40A2D8C4059";
shapes = (
{
closed = 1;
nodes = (
(531,-190,ls),
(546,-190,o),
(558,-178,o),
(558,-163,cs),
(558,0,l),
(745,0,o),
(842,73,o),
(852,213,cs),
(854,244,o),
(854,276,o),
(852,307,cs),
(842,447,o),
(733,520,o),
(558,520,c),
(558,683,ls),
(558,698,o),
(546,710,o),
(531,710,cs),
(352,710,ls),
(337,710,o),
(325,698,o),
(325,683,cs),
(325,520,l),
(150,520,o),
(41,447,o),
(31,307,cs),
(29,276,o),
(29,244,o),
(31,213,cs),
(41,73,o),
(138,0,o),
(325,0,c),
(325,-163,ls),
(325,-178,o),
(337,-190,o),
(352,-190,cs)
);
},
{
closed = 1;
nodes = (
(280,160,o),
(267,174,o),
(262,228,cs),
(261,243,o),
(261,275,o),
(262,292,cs),
(264,340,o),
(277,360,o),
(327,360,c),
(327,160,l)
);
},
{
closed = 1;
nodes = (
(556,360,l),
(603,360,o),
(619,343,o),
(621,292,cs),
(622,275,o),
(622,243,o),
(621,228,cs),
(617,177,o),
(606,160,o),
(556,160,c)
);
}
);
width = 883;
}
);
metricLeft = o;
metricRight = o;
unicode = 1092;
userData = {
com.typemytype.robofont.guides = (
{
angle = 0;
isGlobal = 0;
magnetic = 5;
x = 0;
y = "-190";
},
{
angle = 0;
isGlobal = 0;
magnetic = 5;
x = 0;
y = 710;
}
);
};
},
{
color = 6;
glyphname = "che-cy";
kernRight = afii10074;
layers = (
{
anchors = (
{
name = bottomright;
pos = (464,0);
},
{
name = top;
pos = (303,520);
}
);
layerId = "EC64484B-0978-4CB1-9EE9-C40A2D8C4059";
shapes = (
{
closed = 1;
nodes = (
(573,0,ls),
(588,0,o),
(600,12,o),
(600,27,cs),
(600,493,ls),
(600,508,o),
(588,520,o),
(573,520,cs),
(378,520,ls),
(363,520,o),
(351,508,o),
(351,493,cs),
(351,347,ls),
(351,331,o),
(332,319,o),
(309,319,cs),
(274,319,o),
(265,328,o),
(265,364,cs),
(265,493,ls),
(265,508,o),
(253,520,o),
(238,520,cs),
(52,520,ls),
(37,520,o),
(25,508,o),
(25,493,cs),
(25,354,ls),
(25,190,o),
(97,120,o),
(229,120,cs),
(281,120,o),
(324,131,o),
(351,148,c),
(351,27,ls),
(351,12,o),
(363,0,o),
(378,0,cs)
);
}
);
width = 652;
}
);
metricRight = "en-cy";
unicode = 1095;
},
{
color = 6;
glyphname = "tse-cy";
kernLeft = afii10074;
kernRight = afii10088;
layers = (
{
layerId = "EC64484B-0978-4CB1-9EE9-C40A2D8C4059";
shapes = (
{
closed = 1;
nodes = (
(650,-110,ls),
(665,-110,o),
(677,-98,o),
(677,-83,cs),
(677,148,ls),
(677,163,o),
(665,175,o),
(650,175,cs),
(611,175,l),
(611,493,ls),
(611,508,o),
(599,520,o),
(584,520,cs),
(405,520,ls),
(390,520,o),
(378,508,o),
(378,493,cs),
(378,175,l),
(278,175,l),
(278,493,ls),
(278,508,o),
(266,520,o),
(251,520,cs),
(72,520,ls),
(57,520,o),
(45,508,o),
(45,493,cs),
(45,27,ls),
(45,12,o),
(57,0,o),
(72,0,cs),
(444,0,l),
(444,-83,ls),
(444,-98,o),
(456,-110,o),
(471,-110,cs)
);
}
);
width = 689;
}
);
unicode = 1094;
userData = {
com.typemytype.robofont.guides = (
{
angle = 0;
isGlobal = 0;
magnetic = 5;
x = 0;
y = 58;
},
{
angle = 0;
isGlobal = 0;
magnetic = 5;
x = 0;
y = "-110";
},
{
angle = 90;
isGlobal = 0;
magnetic = 5;
x = 70;
y = 0;
}
);
};
},
{
color = 6;
glyphname = "sha-cy";
kernLeft = afii10074;
kernRight = afii10074;
layers = (
{
layerId = "EC64484B-0978-4CB1-9EE9-C40A2D8C4059";
shapes = (
{
closed = 1;
nodes = (
(788,0,ls),
(803,0,o),
(815,12,o),
(815,27,cs),
(815,493,ls),
(815,508,o),
(803,520,o),
(788,520,cs),
(619,520,ls),
(604,520,o),
(592,508,o),
(592,493,cs),
(592,175,l),
(534,175,l),
(534,493,ls),
(534,508,o),
(522,520,o),
(507,520,cs),
(353,520,ls),
(338,520,o),
(326,508,o),
(326,493,cs),
(326,175,l),
(268,175,l),
(268,493,ls),
(268,508,o),
(256,520,o),
(241,520,cs),
(72,520,ls),
(57,520,o),
(45,508,o),
(45,493,cs),
(45,27,ls),
(45,12,o),
(57,0,o),
(72,0,cs)
);
}
);
width = 867;
}
);
metricLeft = "en-cy";
metricRight = "en-cy";
unicode = 1096;
},
{
color = 6;
glyphname = "shcha-cy";
kernLeft = afii10074;
kernRight = afii10088;
layers = (
{
layerId = "EC64484B-0978-4CB1-9EE9-C40A2D8C4059";
shapes = (
{
closed = 1;
nodes = (
(853,-110,ls),
(868,-110,o),
(880,-98,o),
(880,-83,cs),
(880,148,ls),
(880,163,o),
(868,175,o),
(853,175,cs),
(815,175,l),
(815,493,ls),
(815,508,o),
(803,520,o),
(788,520,cs),
(619,520,ls),
(604,520,o),
(592,508,o),
(592,493,cs),
(592,175,l),
(534,175,l),
(534,493,ls),
(534,508,o),
(522,520,o),
(507,520,cs),
(353,520,ls),
(338,520,o),
(326,508,o),
(326,493,cs),
(326,175,l),
(268,175,l),
(268,493,ls),
(268,508,o),
(256,520,o),
(241,520,cs),
(72,520,ls),
(57,520,o),
(45,508,o),
(45,493,cs),
(45,27,ls),
(45,12,o),
(57,0,o),
(72,0,cs),
(648,0,l),
(648,-83,ls),
(648,-98,o),
(660,-110,o),
(675,-110,cs)
);
}
);
width = 892;
}
);
metricLeft = "en-cy";
metricRight = "tse-cy";
unicode = 1097;
userData = {
com.typemytype.robofont.guides = (
{
angle = 0;
isGlobal = 0;
magnetic = 5;
x = 0;
y = 58;
},
{
angle = 0;
isGlobal = 0;
magnetic = 5;
x = 0;
y = "-110";
}
);
};
},
{
color = 6;
glyphname = "dzhe-cy";
kernLeft = afii10074;
kernRight = afii10074;
layers = (
{
layerId = "EC64484B-0978-4CB1-9EE9-C40A2D8C4059";
shapes = (
{
closed = 1;
nodes = (
(417,-110,ls),
(432,-110,o),
(444,-98,o),
(444,-83,cs),
(444,0,l),
(584,0,ls),
(599,0,o),
(611,12,o),
(611,27,cs),
(611,493,ls),
(611,508,o),
(599,520,o),
(584,520,cs),
(405,520,ls),
(390,520,o),
(378,508,o),
(378,493,cs),
(378,175,l),
(278,175,l),
(278,493,ls),
(278,508,o),
(266,520,o),
(251,520,cs),
(72,520,ls),
(57,520,o),
(45,508,o),
(45,493,cs),
(45,27,ls),
(45,12,o),
(57,0,o),
(72,0,cs),
(212,0,l),
(212,-83,ls),
(212,-98,o),
(224,-110,o),
(239,-110,cs)
);
}
);
width = 663;
}
);
metricLeft = "en-cy";
metricRight = "en-cy";
unicode = 1119;
userData = {
com.typemytype.robofont.guides = (
{
angle = 0;
isGlobal = 0;
magnetic = 5;
x = 0;
y = "-110";
},
{
angle = 90;
isGlobal = 0;
magnetic = 5;
x = 70;
y = 0;
},
{
angle = 90;
isGlobal = 0;
magnetic = 5;
x = 443;
y = 0;
}
);
};
},
{
color = 6;
glyphname = "softsign-cy";
kernLeft = afii10074;
kernRight = afii10094;
layers = (
{
layerId = "EC64484B-0978-4CB1-9EE9-C40A2D8C4059";
shapes = (
{
closed = 1;
nodes = (
(359,0,ls),
(492,0,o),
(583,68,o),
(583,184,cs),
(583,300,o),
(492,369,o),
(359,369,cs),
(279,369,l),
(279,493,ls),
(279,508,o),
(267,520,o),
(252,520,cs),
(72,520,ls),
(57,520,o),
(45,508,o),
(45,493,cs),
(45,27,ls),
(45,12,o),
(57,0,o),
(72,0,cs)
);
},
{
closed = 1;
nodes = (
(274,220,l),
(339,220,ls),
(366,220,o),
(379,207,o),
(379,184,cs),
(379,161,o),
(366,149,o),
(339,149,cs),
(274,149,l)
);
}
);
width = 608;
}
);
metricLeft = "en-cy";
unicode = 1100;
userData = {
com.typemytype.robofont.guides = (
{
angle = 90;
isGlobal = 0;
magnetic = 5;
x = 70;
y = 0;
}
);
};
},
{
color = 3;
glyphname = "yeru-cy";
kernLeft = afii10074;
kernRight = afii10074;
layers = (
{
anchors = (
{
name = top;
pos = (461,520);
}
);
layerId = "EC64484B-0978-4CB1-9EE9-C40A2D8C4059";
shapes = (
{
closed = 1;
nodes = (
(359,0,ls),
(492,0,o),
(583,68,o),
(583,184,cs),
(583,300,o),
(492,369,o),
(359,369,cs),
(279,369,l),
(279,493,ls),
(279,508,o),
(267,520,o),
(252,520,cs),
(72,520,ls),
(57,520,o),
(45,508,o),
(45,493,cs),
(45,27,ls),
(45,12,o),
(57,0,o),
(72,0,cs)
);
},
{
closed = 1;
nodes = (
(274,220,l),
(339,220,ls),
(366,220,o),
(379,207,o),
(379,184,cs),
(379,161,o),
(366,149,o),
(339,149,cs),
(274,149,l)
);
},
{
pos = (591,0);
ref = idotless;
}
);
width = 921;
}
);
metricLeft = "en-cy";
metricRight = "en-cy";
unicode = 1099;
},
{
color = 6;
glyphname = "hardsign-cy";
kernRight = afii10094;
layers = (
{
layerId = "EC64484B-0978-4CB1-9EE9-C40A2D8C4059";
shapes = (
{
closed = 1;
nodes = (
(466,0,ls),
(599,0,o),
(690,68,o),
(690,184,cs),
(690,300,o),
(599,369,o),
(466,369,cs),
(386,369,l),
(386,493,ls),
(386,508,o),
(374,520,o),
(359,520,cs),
(42,520,ls),
(27,520,o),
(15,508,o),
(15,493,cs),
(15,372,ls),
(15,357,o),
(27,345,o),
(42,345,cs),
(152,345,l),
(152,27,ls),
(152,12,o),
(164,0,o),
(179,0,cs)
);
},
{
closed = 1;
nodes = (
(381,220,l),
(446,220,ls),
(473,220,o),
(486,207,o),
(486,184,cs),
(486,161,o),
(473,149,o),
(446,149,cs),
(381,149,l)
);
}
);
width = 715;
}
);
metricLeft = "te-cy";
metricRight = "softsign-cy";
unicode = 1098;
},
{
color = 6;
glyphname = "lje-cy";
kernLeft = afii10077;
kernRight = afii10094;
layers = (
{
layerId = "EC64484B-0978-4CB1-9EE9-C40A2D8C4059";
shapes = (
{
closed = 1;
nodes = (
(282,0,o),
(322,64,o),
(322,316,cs),
(322,345,l),
(380,345,l),
(380,27,ls),
(380,12,o),
(392,0,o),
(407,0,cs),
(694,0,ls),
(827,0,o),
(918,68,o),
(918,184,cs),
(918,300,o),
(827,369,o),
(694,369,cs),
(614,369,l),
(614,493,ls),
(614,508,o),
(602,520,o),
(587,520,cs),
(129,520,ls),
(114,520,o),
(102,508,o),
(102,493,cs),
(102,341,ls),
(102,232,o),
(100,194,o),
(52,185,cs),
(36,182,o),
(25,173,o),
(25,158,cs),
(25,27,ls),
(25,12,o),
(37,0,o),
(52,0,cs)
);
},
{
closed = 1;
nodes = (
(609,220,l),
(674,220,ls),
(701,220,o),
(714,207,o),
(714,184,cs),
(714,161,o),
(701,149,o),
(674,149,cs),
(609,149,l)
);
}
);
width = 943;
}
);
metricLeft = "el-cy";
metricRight = "softsign-cy";
unicode = 1113;
},
{
color = 6;
glyphname = "nje-cy";
kernLeft = afii10074;
kernRight = afii10094;
layers = (
{
layerId = "EC64484B-0978-4CB1-9EE9-C40A2D8C4059";
shapes = (
{
closed = 1;
nodes = (
(251,0,ls),
(266,0,o),
(278,12,o),
(278,27,cs),
(278,175,l),
(378,175,l),
(378,27,ls),
(378,12,o),
(390,0,o),
(405,0,cs),
(691,0,ls),
(824,0,o),
(915,68,o),
(915,184,cs),
(915,300,o),
(824,369,o),
(691,369,cs),
(611,369,l),
(611,493,ls),
(611,508,o),
(599,520,o),
(584,520,cs),
(405,520,ls),
(390,520,o),
(378,508,o),
(378,493,cs),
(378,350,l),
(278,350,l),
(278,493,ls),
(278,508,o),
(266,520,o),
(251,520,cs),
(72,520,ls),
(57,520,o),
(45,508,o),
(45,493,cs),
(45,27,ls),
(45,12,o),
(57,0,o),
(72,0,cs)
);
},
{
closed = 1;
nodes = (
(606,220,l),
(671,220,ls),
(698,220,o),
(711,207,o),
(711,184,cs),
(711,161,o),
(698,149,o),
(671,149,cs),
(606,149,l)
);
}
);
width = 940;
}
);
metricLeft = "en-cy";
metricRight = "softsign-cy";
unicode = 1114;
},
{
color = 6;
glyphname = "e-cy";
kernLeft = afii10080;
layers = (
{
layerId = "EC64484B-0978-4CB1-9EE9-C40A2D8C4059";
shapes = (
{
closed = 1;
nodes = (
(513,-10,o),
(579,66,o),
(594,149,c),
(595,158,o),
(587,166,o),
(578,166,cs),
(403,166,ls),
(394,166,o),
(387,164,o),
(383,161,cs),
(365,147,o),
(360,142,o),
(329,142,cs),
(297,142,o),
(285,156,o),
(285,191,cs),
(285,197,l),
(389,197,ls),
(401,197,o),
(410,207,o),
(410,219,cs),
(410,302,ls),
(410,314,o),
(401,324,o),
(389,324,cs),
(285,324,l),
(285,328,ls),
(285,359,o),
(301,376,o),
(329,376,cs),
(355,376,o),
(365,371,o),
(385,356,cs),
(389,353,o),
(396,351,o),
(405,351,cs),
(574,351,ls),
(584,351,o),
(592,357,o),
(590,368,cs),
(575,451,o),
(508,530,o),
(329,530,cs),
(154,530,o),
(48,452,o),
(39,307,cs),
(38,296,o),
(38,224,o),
(39,213,cs),
(49,64,o),
(146,-10,o),
(329,-10,cs)
);
}
);
width = 632;
}
);
unicode = 1108;
},
{
color = 6;
glyphname = "ereversed-cy";
kernRight = afii10080;
layers = (
{
anchors = (
{
name = top;
pos = (316,520);
}
);
layerId = "EC64484B-0978-4CB1-9EE9-C40A2D8C4059";
shapes = (
{
closed = 1;
nodes = (
(487,-10,o),
(583,66,o),
(593,213,cs),
(595,243,o),
(595,277,o),
(593,307,cs),
(583,454,o),
(476,530,o),
(303,530,cs),
(101,530,o),
(52,427,o),
(42,368,c),
(40,359,o),
(49,351,o),
(58,351,cs),
(227,351,ls),
(244,351,o),
(248,358,o),
(255,363,c),
(266,372,o),
(277,376,o),
(303,376,cs),
(336,376,o),
(347,353,o),
(347,329,cs),
(347,324,l),
(243,324,ls),
(231,324,o),
(222,313,o),
(222,302,cs),
(222,219,ls),
(222,208,o),
(231,197,o),
(243,197,cs),
(347,197,l),
(347,192,ls),
(347,158,o),
(336,142,o),
(303,142,cs),
(276,142,o),
(265,148,o),
(257,154,cs),
(250,159,o),
(246,166,o),
(229,166,cs),
(54,166,ls),
(46,166,o),
(35,158,o),
(38,149,c),
(48,90,o),
(94,-10,o),
(303,-10,cs)
);
}
);
width = 632;
}
);
unicode = 1101;
userData = {
com.typemytype.robofont.guides = (
{
angle = 0;
isGlobal = 0;
magnetic = 5;
x = 0;
y = 259;
},
{
angle = 90;
isGlobal = 0;
magnetic = 5;
x = 254;
y = 0;
},
{
angle = 90;
isGlobal = 0;
magnetic = 5;
x = 107;
y = 0;
}
);
};
},
{
color = 6;
glyphname = "tshe-cy";
kernLeft = afii10108;
layers = (
{
layerId = "EC64484B-0978-4CB1-9EE9-C40A2D8C4059";
shapes = (
{
closed = 1;
nodes = (
(290,0,ls),
(305,0,o),
(317,12,o),
(317,27,cs),
(317,266,ls),
(317,302,o),
(336,321,o),
(368,321,cs),
(400,321,o),
(418,302,o),
(418,266,cs),
(418,27,ls),
(418,12,o),
(430,0,o),
(445,0,cs),
(641,0,ls),
(656,0,o),
(668,12,o),
(668,27,cs),
(668,273,ls),
(668,406,o),
(594,500,o),
(469,500,cs),
(408,500,o),
(353,477,o),
(317,438,c),
(317,538,l),
(411,538,ls),
(426,538,o),
(438,550,o),
(438,565,cs),
(438,616,ls),
(438,631,o),
(426,643,o),
(411,643,cs),
(317,643,l),
(317,683,ls),
(317,698,o),
(305,710,o),
(290,710,cs),
(95,710,ls),
(80,710,o),
(68,698,o),
(68,683,cs),
(68,643,l),
(42,643,ls),
(27,643,o),
(15,631,o),
(15,616,cs),
(15,565,ls),
(15,550,o),
(27,538,o),
(42,538,cs),
(68,538,l),
(68,27,ls),
(68,12,o),
(80,0,o),
(95,0,cs)
);
}
);
width = 740;
}
);
unicode = 1115;
userData = {
com.typemytype.robofont.guides = (
{
angle = 0;
isGlobal = 0;
magnetic = 5;
x = 0;
y = 629;
},
{
angle = 90;
isGlobal = 0;
magnetic = 5;
x = 110;
y = 0;
}
);
};
},
{
color = 3;
glyphname = "iu-cy";
kernLeft = afii10074;
kernRight = afii10080;
layers = (
{
anchors = (
{
name = top;
pos = (469,520);
}
);
layerId = "EC64484B-0978-4CB1-9EE9-C40A2D8C4059";
shapes = (
{
closed = 1;
nodes = (
(251,0,ls),
(266,0,o),
(278,12,o),
(278,27,cs),
(278,175,l),
(466,175,l),
(466,350,l),
(278,350,l),
(278,493,ls),
(278,508,o),
(266,520,o),
(251,520,cs),
(72,520,ls),
(57,520,o),
(45,508,o),
(45,493,cs),
(45,27,ls),
(45,12,o),
(57,0,o),
(72,0,cs)
);
},
{
pos = (295,0);
ref = o;
}
);
width = 937;
}
);
metricLeft = "en-cy";
metricRight = o;
unicode = 1102;
},
{
color = 6;
glyphname = "ia-cy";
kernRight = afii10074;
layers = (
{
anchors = (
{
name = top;
pos = (328,520);
}
);
layerId = "EC64484B-0978-4CB1-9EE9-C40A2D8C4059";
shapes = (
{
closed = 1;
nodes = (
(576,0,ls),
(591,0,o),
(603,12,o),
(603,27,cs),
(603,493,ls),
(603,508,o),
(591,520,o),
(576,520,cs),
(284,520,ls),
(151,520,o),
(60,452,o),
(60,336,cs),
(60,220,o),
(151,156,o),
(307,156,c),
(307,151,l),
(364,151,l),
(364,27,ls),
(364,12,o),
(376,0,o),
(391,0,cs)
);
},
{
closed = 1;
nodes = (
(242,0,ls),
(253,0,o),
(260,5,o),
(264,15,cs),
(329,166,l),
(140,206,l),
(43,31,l),
(41,27,o),
(40,23,o),
(40,20,cs),
(40,9,o),
(49,0,o),
(62,0,cs)
);
},
{
closed = 1;
nodes = (
(277,300,o),
(264,313,o),
(264,336,cs),
(264,359,o),
(277,371,o),
(304,371,cs),
(369,371,l),
(369,300,l),
(304,300,ls)
);
}
);
width = 655;
}
);
metricRight = "en-cy";
unicode = 1103;
userData = {
com.typemytype.robofont.guides = (
{
angle = 90;
isGlobal = 0;
magnetic = 5;
x = 49;
y = 0;
}
);
};
},
{
color = 6;
glyphname = "dje-cy";
kernLeft = afii10108;
layers = (
{
layerId = "EC64484B-0978-4CB1-9EE9-C40A2D8C4059";
shapes = (
{
closed = 1;
nodes = (
(405,-190,ls),
(558,-190,o),
(668,-114,o),
(668,29,cs),
(668,273,ls),
(668,406,o),
(594,500,o),
(469,500,cs),
(408,500,o),
(353,477,o),
(317,438,c),
(317,538,l),
(411,538,ls),
(426,538,o),
(438,550,o),
(438,565,cs),
(438,616,ls),
(438,631,o),
(426,643,o),
(411,643,cs),
(317,643,l),
(317,683,ls),
(317,698,o),
(305,710,o),
(290,710,cs),
(95,710,ls),
(80,710,o),
(68,698,o),
(68,683,cs),
(68,643,l),
(42,643,ls),
(27,643,o),
(15,631,o),
(15,616,cs),
(15,565,ls),
(15,550,o),
(27,538,o),
(42,538,cs),
(68,538,l),
(68,27,ls),
(68,12,o),
(80,0,o),
(95,0,cs),
(290,0,ls),
(305,0,o),
(317,12,o),
(317,27,cs),
(317,266,ls),
(317,302,o),
(336,321,o),
(368,321,cs),
(400,321,o),
(418,302,o),
(418,266,cs),
(418,35,ls),
(418,2,o),
(404,-15,o),
(375,-15,cs),
(355,-15,ls),
(340,-15,o),
(328,-27,o),
(328,-42,cs),
(328,-163,ls),
(328,-178,o),
(340,-190,o),
(355,-190,cs)
);
}
);
width = 708;
}
);
unicode = 1106;
userData = {
com.typemytype.robofont.guides = (
{
angle = 0;
isGlobal = 0;
magnetic = 5;
x = 0;
y = 620;
},
{
angle = 90;
isGlobal = 0;
magnetic = 5;
x = 140;
y = 0;
},
{
angle = 90;
isGlobal = 0;
magnetic = 5;
x = 553;
y = 0;
},
{
angle = 90;
isGlobal = 0;
magnetic = 5;
x = 482;
y = 0;
}
);
};
},
{
color = 6;
glyphname = "yat-cy";
layers = (
{
layerId = "EC64484B-0978-4CB1-9EE9-C40A2D8C4059";
shapes = (
{
closed = 1;
nodes = (
(393,0,ls),
(526,0,o),
(617,68,o),
(617,184,cs),
(617,300,o),
(526,369,o),
(393,369,cs),
(313,369,l),
(313,683,ls),
(313,698,o),
(301,710,o),
(286,710,cs),
(106,710,ls),
(91,710,o),
(79,698,o),
(79,683,cs),
(79,27,ls),
(79,12,o),
(91,0,o),
(106,0,cs)
);
},
{
closed = 1;
nodes = (
(308,220,l),
(373,220,ls),
(400,220,o),
(413,207,o),
(413,184,cs),
(413,161,o),
(400,149,o),
(373,149,cs),
(308,149,l)
);
},
{
closed = 1;
nodes = (
(417,455,ls),
(432,455,o),
(444,467,o),
(444,482,cs),
(444,533,ls),
(444,548,o),
(432,560,o),
(417,560,cs),
(42,560,ls),
(27,560,o),
(15,548,o),
(15,533,cs),
(15,482,ls),
(15,467,o),
(27,455,o),
(42,455,cs)
);
}
);
width = 642;
}
);
metricRight = "softsign-cy";
unicode = 1123;
},
{
color = 6;
glyphname = "yusbig-cy";
layers = (
{
layerId = "EC64484B-0978-4CB1-9EE9-C40A2D8C4059";
shapes = (
{
closed = 1;
nodes = (
(249,0,ls),
(269,0,o),
(278,14,o),
(280,17,c),
(367,163,l),
(371,171,o),
(381,175,o),
(390,175,c),
(392,175,l),
(392,27,ls),
(392,12,o),
(404,0,o),
(419,0,cs),
(594,0,ls),
(609,0,o),
(621,12,o),
(621,27,cs),
(621,175,l),
(623,175,l),
(630,175,o),
(640,173,o),
(646,163,cs),
(733,17,l),
(735,14,o),
(744,0,o),
(764,0,cs),
(974,0,ls),
(987,0,o),
(998,11,o),
(998,24,cs),
(998,30,o),
(996,34,o),
(994,37,cs),
(903,175,ls),
(854,249,o),
(802,270,o),
(742,270,cs),
(695,270,l),
(849,481,l),
(851,484,o),
(854,490,o),
(854,496,cs),
(854,509,o),
(843,520,o),
(830,520,cs),
(183,520,ls),
(170,520,o),
(159,509,o),
(159,496,cs),
(159,490,o),
(162,484,o),
(164,481,c),
(318,270,l),
(261,270,ls),
(211,270,o),
(159,249,o),
(106,168,cs),
(19,37,ls),
(17,34,o),
(15,30,o),
(15,24,cs),
(15,11,o),
(26,0,o),
(39,0,cs)
);
},
{
closed = 1;
nodes = (
(423,398,l),
(590,398,l),
(507,268,l)
);
}
);
width = 1013;
},
{
anchors = (
{
name = _center;
pos = (464.5,467);
},
{
name = bottomright;
pos = (700,0);
},
{
name = top;
pos = (485,520);
}
);
associatedMasterId = "EC64484B-0978-4CB1-9EE9-C40A2D8C4059";
color = 6;
layerId = "5A22D510-FACA-4E1B-9AED-5AE8471E420E";
name = "Sep 3 16, 11:39";
shapes = (
{
closed = 1;
nodes = (
(572,0,ls),
(587,0,o),
(599,12,o),
(599,27,cs),
(599,175,l),
(643,175,l),
(643,267,l),
(326,267,l),
(326,175,l),
(370,175,l),
(370,27,ls),
(370,12,o),
(382,0,o),
(397,0,cs)
);
},
{
closed = 1;
nodes = (
(177,279,l),
(16,37,ls),
(14,34,o),
(12,30,o),
(12,24,cs),
(12,11,o),
(23,0,o),
(36,0,cs),
(246,0,ls),
(266,0,o),
(275,14,o),
(277,17,cs),
(428,270,l)
);
},
{
closed = 1;
nodes = (
(544,270,l),
(695,17,ls),
(697,14,o),
(706,0,o),
(726,0,cs),
(936,0,ls),
(949,0,o),
(960,11,o),
(960,24,cs),
(960,30,o),
(958,34,o),
(956,37,cs),
(795,279,l)
);
},
{
closed = 1;
nodes = (
(1364,0,ls),
(1384,0,o),
(1391,13,o),
(1397,25,c),
(1589,489,ls),
(1590,492,o),
(1590,494,o),
(1590,496,cs),
(1590,509,o),
(1579,520,o),
(1566,520,cs),
(1397,520,ls),
(1377,520,o),
(1368,507,o),
(1364,496,cs),
(1284,263,l),
(1204,496,ls),
(1200,507,o),
(1191,520,o),
(1171,520,cs),
(1002,520,ls),
(989,520,o),
(978,509,o),
(978,496,cs),
(978,494,o),
(978,492,o),
(979,489,cs),
(1171,25,l),
(1177,13,o),
(1184,0,o),
(1204,0,cs)
);
},
{
closed = 1;
nodes = (
(161,520,ls),
(148,520,o),
(137,509,o),
(137,496,cs),
(137,490,o),
(140,484,o),
(142,481,c),
(277,252,l),
(692,252,l),
(827,481,l),
(829,484,o),
(832,490,o),
(832,496,cs),
(832,509,o),
(821,520,o),
(808,520,cs)
);
},
{
closed = 1;
nodes = (
(558,398,l),
(485,268,l),
(411,398,l)
);
}
);
width = 1599;
}
);
unicode = 1131;
},
{
color = 6;
glyphname = "izhitsa-cy";
layers = (
{
anchors = (
{
name = top;
pos = (315,520);
}
);
layerId = "EC64484B-0978-4CB1-9EE9-C40A2D8C4059";
shapes = (
{
closed = 1;
nodes = (
(385,0,ls),
(405,0,o),
(412,13,o),
(418,25,c),
(515,270,ls),
(538,327,o),
(554,345,o),
(585,345,cs),
(600,345,o),
(610,357,o),
(610,373,cs),
(610,492,ls),
(610,508,o),
(598,520,o),
(582,520,cs),
(522,520,ls),
(429,520,o),
(403,481,o),
(370,398,cs),
(316,261,l),
(235,496,ls),
(231,507,o),
(222,520,o),
(202,520,cs),
(33,520,ls),
(20,520,o),
(9,509,o),
(9,496,cs),
(9,494,o),
(9,492,o),
(10,489,c),
(202,25,l),
(208,13,o),
(215,0,o),
(235,0,cs)
);
}
);
width = 630;
}
);
metricLeft = v;
unicode = 1141;
},
{
color = 3;
glyphname = "zhedescender-cy";
layers = (
{
anchors = (
{
name = _bottomright;
pos = (803.617,0);
}
);
layerId = "EC64484B-0978-4CB1-9EE9-C40A2D8C4059";
shapes = (
{
closed = 1;
nodes = (
(972,-110,ls),
(987,-110,o),
(999,-98,o),
(999,-83,cs),
(999,148,ls),
(999,163,o),
(987,175,o),
(972,175,cs),
(700,175,l),
(764,0,l),
(766,0,l),
(766,-83,ls),
(766,-98,o),
(778,-110,o),
(793,-110,cs)
);
},
{
ref = "zhe-cy";
}
);
width = 1019;
}
);
metricLeft = "zhe-cy";
metricRight = "kadescender-cy";
unicode = 1175;
},
{
color = 3;
glyphname = "zedescender-cy";
layers = (
{
layerId = "EC64484B-0978-4CB1-9EE9-C40A2D8C4059";
shapes = (
{
closed = 1;
nodes = (
(402,-110,ls),
(417,-110,o),
(429,-98,o),
(429,-83,cs),
(429,48,l),
(196,48,l),
(196,-83,ls),
(196,-98,o),
(208,-110,o),
(223,-110,cs)
);
},
{
alignment = -1;
ref = "ze-cy";
}
);
width = 598;
}
);
metricLeft = "ze-cy";
metricRight = "ze-cy";
unicode = 1177;
},
{
color = 3;
glyphname = "kadescender-cy";
layers = (
{
anchors = (
{
name = _bottomright;
pos = (356,0);
}
);
layerId = "EC64484B-0978-4CB1-9EE9-C40A2D8C4059";
shapes = (
{
closed = 1;
nodes = (
(648,-110,ls),
(663,-110,o),
(675,-98,o),
(675,-83,cs),
(675,148,ls),
(675,163,o),
(663,175,o),
(648,175,cs),
(376,175,l),
(418,0,l),
(442,0,l),
(442,-83,ls),
(442,-98,o),
(454,-110,o),
(469,-110,cs)
);
},
{
ref = "ka-cy";
}
);
width = 695;
}
);
metricLeft = "en-cy";
unicode = 1179;
},
{
color = 6;
glyphname = "kaverticalstroke-cy";
layers = (
{
layerId = "EC64484B-0978-4CB1-9EE9-C40A2D8C4059";
shapes = (
{
closed = 1;
nodes = (
(247,0,ls),
(262,0,o),
(274,12,o),
(274,27,cs),
(274,195,l),
(299,195,l),
(299,126,ls),
(299,111,o),
(311,99,o),
(326,99,cs),
(338,99,ls),
(353,99,o),
(365,111,o),
(365,126,cs),
(365,195,l),
(369,195,l),
(476,17,ls),
(482,8,o),
(491,0,o),
(507,0,cs),
(717,0,ls),
(730,0,o),
(741,11,o),
(741,24,cs),
(741,30,o),
(739,34,o),
(737,37,cs),
(585,266,l),
(712,481,ls),
(714,484,o),
(717,490,o),
(717,496,cs),
(717,509,o),
(706,520,o),
(693,520,cs),
(501,520,ls),
(483,520,o),
(475,508,o),
(472,503,cs),
(375,330,l),
(365,330,l),
(365,401,ls),
(365,416,o),
(353,428,o),
(338,428,cs),
(326,428,ls),
(311,428,o),
(299,416,o),
(299,401,cs),
(299,330,l),
(274,330,l),
(274,493,ls),
(274,508,o),
(262,520,o),
(247,520,cs),
(72,520,ls),
(57,520,o),
(45,508,o),
(45,493,cs),
(45,27,ls),
(45,12,o),
(57,0,o),
(72,0,cs)
);
}
);
width = 756;
}
);
metricLeft = "en-cy";
metricRight = "ka-cy";
unicode = 1181;
},
{
color = 6;
glyphname = "kabashkir-cy";
layers = (
{
layerId = "EC64484B-0978-4CB1-9EE9-C40A2D8C4059";
shapes = (
{
closed = 1;
nodes = (
(377,0,ls),
(392,0,o),
(404,12,o),
(404,27,cs),
(404,175,l),
(421,175,l),
(516,17,l),
(522,8,o),
(531,0,o),
(547,0,cs),
(757,0,ls),
(770,0,o),
(781,11,o),
(781,24,cs),
(781,30,o),
(779,34,o),
(777,37,cs),
(625,266,l),
(752,481,l),
(754,484,o),
(757,490,o),
(757,496,cs),
(757,509,o),
(746,520,o),
(733,520,cs),
(541,520,ls),
(523,520,o),
(515,508,o),
(512,503,cs),
(426,350,l),
(404,350,l),
(404,493,ls),
(404,508,o),
(392,520,o),
(377,520,cs),
(42,520,ls),
(27,520,o),
(15,508,o),
(15,493,cs),
(15,372,ls),
(15,357,o),
(27,345,o),
(42,345,cs),
(175,345,l),
(175,27,ls),
(175,12,o),
(187,0,o),
(202,0,cs)
);
}
);
width = 796;
}
);
metricLeft = "te-cy";
metricRight = "ka-cy";
unicode = 1185;
},
{
color = 6;
glyphname = "enghe-cy";
layers = (
{
layerId = "EC64484B-0978-4CB1-9EE9-C40A2D8C4059";
shapes = (
{
closed = 1;
nodes = (
(251,0,ls),
(266,0,o),
(278,12,o),
(278,27,cs),
(278,175,l),
(378,175,l),
(378,27,ls),
(378,12,o),
(390,0,o),
(405,0,cs),
(584,0,ls),
(599,0,o),
(611,12,o),
(611,27,cs),
(611,345,l),
(750,345,ls),
(765,345,o),
(777,357,o),
(777,372,cs),
(777,493,ls),
(777,508,o),
(765,520,o),
(750,520,cs),
(405,520,ls),
(390,520,o),
(378,508,o),
(378,493,cs),
(378,350,l),
(278,350,l),
(278,493,ls),
(278,508,o),
(266,520,o),
(251,520,cs),
(72,520,ls),
(57,520,o),
(45,508,o),
(45,493,cs),
(45,27,ls),
(45,12,o),
(57,0,o),
(72,0,cs)
);
}
);
width = 797;
}
);
metricLeft = "en-cy";
metricRight = "ge-cy";
unicode = 1189;
},
{
color = 3;
glyphname = "esdescender-cy";
layers = (
{
layerId = "EC64484B-0978-4CB1-9EE9-C40A2D8C4059";
shapes = (
{
closed = 1;
nodes = (
(405,-110,ls),
(420,-110,o),
(432,-98,o),
(432,-83,cs),
(432,48,l),
(199,48,l),
(199,-83,ls),
(199,-98,o),
(211,-110,o),
(226,-110,cs)
);
},
{
ref = "es-cy";
}
);
width = 622;
}
);
unicode = 1195;
},
{
color = 6;
glyphname = "ustrait-cy";
layers = (
{
layerId = "EC64484B-0978-4CB1-9EE9-C40A2D8C4059";
shapes = (
{
closed = 1;
nodes = (
(398,-190,ls),
(413,-190,o),
(425,-178,o),
(425,-163,cs),
(425,43,l),
(611,489,l),
(612,492,o),
(612,494,o),
(612,496,cs),
(612,509,o),
(601,520,o),
(588,520,cs),
(419,520,ls),
(399,520,o),
(390,507,o),
(386,496,cs),
(306,263,l),
(226,496,ls),
(222,507,o),
(213,520,o),
(193,520,cs),
(24,520,ls),
(11,520,o),
(0,509,o),
(0,496,cs),
(0,494,o),
(0,492,o),
(1,489,c),
(186,48,l),
(186,-163,ls),
(186,-178,o),
(198,-190,o),
(213,-190,cs)
);
}
);
width = 612;
}
);
unicode = 1199;
},
